<svg width="8" height="10" viewBox="0 0 8 10" fill="none" xmlns="http://www.w3.org/2000/svg">
<path d="M7.49999 6.21876C7.49999 4.21877 4.0625 0.312506 3.78124 0C3.78124 0 0 4.15624 0 6.21876C0 8.28127 1.68752 9.96875 3.75 9.96875C3.87498 9.96875 4.03125 9.96875 4.15624 9.93751C4.18749 9.93751 4.21874 9.93751 4.24998 9.90626C4.34372 9.90626 4.4375 9.87501 4.53124 9.87501C4.56249 9.87501 4.59374 9.84377 4.65623 9.84377C4.74997 9.81252 4.84375 9.81252 4.93749 9.78127C4.96874 9.78127 4.99998 9.75002 5.03123 9.75002C5.12497 9.71878 5.21875 9.68753 5.31249 9.65628C5.34373 9.65628 5.37498 9.62504 5.37498 9.62504C5.46872 9.59379 5.5625 9.53129 5.65624 9.4688C5.68749 9.4688 5.68749 9.43755 5.71873 9.43755C5.81248 9.37506 5.90625 9.31257 5.99999 9.25004C5.99999 9.25004 6.03124 9.25004 6.03124 9.21879C6.12498 9.15629 6.21876 9.06255 6.3125 9.00002C7.03125 8.28127 7.49999 7.31251 7.49999 6.21876Z" transform="translate(0 0.03125)" fill="#3CAED6"/>
<path d="M0.625011 0C0.281259 0 0 0.281259 0 0.625011C0 0.968764 0.281259 1.25002 0.625011 1.25002C0.968764 1.25002 1.25002 0.968764 1.25002 0.625011C1.25002 0.281223 0.968728 0 0.625011 0Z" transform="translate(4.6875 5)" fill="#63BFDE"/>
<path d="M4.06247 9.68749C1.99995 9.68749 0.31247 7.99998 0.31247 5.9375C0.31247 4.21874 2.87497 1.0625 3.78121 0.031247L3.75 0C3.75 0 0 4.18749 0 6.25C0 8.31252 1.68752 10 3.75 10C4.87499 10 5.875 9.50001 6.56251 8.75001C5.87493 9.31249 5.03119 9.68749 4.06247 9.68749Z" transform="translate(0.000976562)" fill="#369DC0"/>
</svg>
