<svg width="45" height="60" viewBox="0 0 45 60" fill="none" xmlns="http://www.w3.org/2000/svg">
<path d="M44.9999 37.3125C44.9999 25.3126 24.375 1.87503 22.6875 0C22.6875 0 0 24.9375 0 37.3125C0 49.6876 10.1251 59.8125 22.5 59.8125C23.2499 59.8125 24.1875 59.8125 24.9375 59.625C25.1249 59.625 25.3124 59.625 25.4999 59.4375C26.0623 59.4375 26.625 59.2501 27.1874 59.2501C27.3749 59.2501 27.5624 59.0626 27.9374 59.0626C28.4998 58.8751 29.0625 58.8751 29.6249 58.6876C29.8124 58.6876 29.9999 58.5001 30.1874 58.5001C30.7498 58.3127 31.3125 58.1252 31.8749 57.9377C32.0624 57.9377 32.2499 57.7502 32.2499 57.7502C32.8123 57.5627 33.375 57.1878 33.9374 56.8128C34.1249 56.8128 34.1249 56.6253 34.3124 56.6253C34.8749 56.2504 35.4375 55.8754 36 55.5002C36 55.5002 36.1874 55.5002 36.1874 55.3127C36.7499 54.9378 37.3125 54.3753 37.875 54.0001C42.1875 49.6876 44.9999 43.875 44.9999 37.3125Z" transform="translate(0 0.1875)" fill="#3CAED6"/>
<path d="M3.75007 0C1.68755 0 0 1.68755 0 3.75007C0 5.81258 1.68755 7.50013 3.75007 7.50013C5.81258 7.50013 7.50013 5.81258 7.50013 3.75007C7.50013 1.68734 5.81237 0 3.75007 0Z" transform="translate(28.1251 30)" fill="#63BFDE"/>
<path d="M24.3748 58.125C11.9997 58.125 1.87482 47.9999 1.87482 35.625C1.87482 25.3124 17.2498 6.37503 22.6872 0.187482L22.5 0C22.5 0 0 25.1249 0 37.5C0 49.8751 10.1251 60 22.5 60C29.25 60 35.25 57.0001 39.3751 52.5001C35.2496 55.875 30.1872 58.125 24.3748 58.125Z" transform="translate(0.00604248)" fill="#369DC0"/>
</svg>
