<svg width="8" height="10" viewBox="0 0 8 10" fill="none" xmlns="http://www.w3.org/2000/svg">
<path d="M1.60441 9.09633C1.1167 8.57475 0.629011 8.03232 0.318641 7.38555C0.00829078 6.69707 -0.0803896 5.90427 0.0747958 5.1532C0.229981 4.40213 0.584661 3.69278 1.09455 3.08775C1.05022 3.60934 1.24973 4.15177 1.62659 4.54818C1.4049 3.54675 1.7596 2.46186 2.46898 1.66906C3.17836 0.876271 4.15378 0.354667 5.17351 0C4.66364 0.500715 4.59714 1.29351 4.79665 1.96114C4.99617 2.62876 5.41737 3.21293 5.79423 3.81795C6.17108 4.42298 6.52578 5.04887 6.54796 5.73736C6.74747 5.38269 6.96916 5.028 7.10217 4.63162C7.23518 4.23521 7.30169 3.81795 7.19085 3.42155C7.58988 3.88054 7.81158 4.33952 7.92241 4.92369C8.03325 5.50787 8.01109 6.11289 7.94458 6.69707C7.8559 7.34383 7.67857 8.01145 7.30171 8.55388C6.85835 9.20064 6.14895 9.65962 5.37306 9.90998C3.99859 10.1395 2.64632 9.95172 1.60441 9.09633Z" fill="#F3705A"/>
<path d="M1.46465 5.6539C3.28244 6.32153 5.07808 4.2978 4.0805 2.73306C4.0805 2.7122 4.05833 2.71219 4.05833 2.69134C4.14701 3.54673 3.92532 4.17262 3.50411 4.52731C3.7258 4.02659 3.57062 3.44242 3.3046 2.9417C3.03858 2.46186 2.66172 2.02373 2.37353 1.56474C2.08533 1.08489 1.86366 0.542435 1.99667 0C1.46463 0.375537 1.08778 0.938841 0.93259 1.54387C0.777405 2.14889 0.866085 2.81652 1.15428 3.37983C0.821756 3.15034 0.577911 2.7748 0.555736 2.3784C0.201035 2.7748 -0.0206342 3.29637 0.00152031 3.81795C0.0015411 4.63162 0.688746 5.36182 1.46465 5.6539Z" transform="translate(1.82446 4.21436)" fill="#FFD15C"/>
</svg>
