<svg width="24" height="30" viewBox="0 0 24 30" fill="none" xmlns="http://www.w3.org/2000/svg">
<path d="M4.65797 27.289C3.24204 25.7242 1.82616 24.0969 0.925086 22.1567C0.02407 20.0912 -0.233389 17.7128 0.217149 15.4596C0.667687 13.2064 1.6974 11.0783 3.17772 9.26325C3.04902 10.828 3.62825 12.4553 4.72235 13.6445C4.07873 10.6402 5.10851 7.38557 7.168 5.00719C9.22749 2.62881 12.0594 1.064 15.0199 0C13.5396 1.50215 13.3465 3.88052 13.9258 5.88342C14.505 7.88627 15.7279 9.63879 16.822 11.4539C17.916 13.2689 18.9458 15.1466 19.0102 17.2121C19.5894 16.1481 20.2331 15.084 20.6192 13.8949C21.0054 12.7056 21.1985 11.4539 20.8767 10.2646C22.0352 11.6416 22.6788 13.0186 23.0005 14.7711C23.3223 16.5236 23.258 18.3387 23.0649 20.0912C22.8075 22.0315 22.2926 24.0343 21.1985 25.6616C19.9113 27.6019 17.8518 28.9789 15.5992 29.7299C11.6088 30.4185 7.68285 29.8552 4.65797 27.289Z" fill="#F3705A"/>
<path d="M4.25221 16.9617C9.52967 18.9646 14.7428 12.8934 11.8466 8.19919C11.8466 8.13659 11.7822 8.13658 11.7822 8.07403C12.0397 10.6402 11.3961 12.5179 10.1732 13.5819C10.8168 12.0798 10.3663 10.3273 9.59399 8.82511C8.82167 7.38557 7.72758 6.07119 6.89088 4.69421C6.05418 3.25467 5.41063 1.62731 5.79679 0C4.25215 1.12661 3.15806 2.81652 2.70752 4.6316C2.25698 6.44667 2.51444 8.44957 3.35114 10.1395C2.38574 9.45102 1.67781 8.32441 1.61343 7.13519C0.583651 8.32441 -0.0599057 9.88911 0.00441382 11.4539C0.00447415 13.8948 1.99958 16.0855 4.25221 16.9617Z" transform="translate(5.29712 12.6431)" fill="#FFD15C"/>
</svg>
