<?xml version="1.0" encoding="utf-8"?>
<!-- Generator: Adobe Illustrator 18.1.1, SVG Export Plug-In . SVG Version: 6.00 Build 0)  -->
<svg version="1.1" xmlns="http://www.w3.org/2000/svg" xmlns:xlink="http://www.w3.org/1999/xlink" x="0px" y="0px"
	 viewBox="0 0 1024 512" enable-background="new 0 0 1024 512" xml:space="preserve">
<g id="_x38_">
	<linearGradient id="SVGID_1_" gradientUnits="userSpaceOnUse" x1="512" y1="512" x2="512" y2="-2.298657e-008">
		<stop  offset="0" style="stop-color:#A9DDE5"/>
		<stop  offset="0.198" style="stop-color:#A1D8E3"/>
		<stop  offset="0.5042" style="stop-color:#8BC8DF"/>
		<stop  offset="0.8785" style="stop-color:#68B0D8"/>
		<stop  offset="1" style="stop-color:#5BA7D5"/>
	</linearGradient>
	<rect fill="url(#SVGID_1_)" width="1024" height="512"/>
	<path fill="#519ECA" d="M226.1,34.1C139.1,33,63.4,38.9,0,47.5V23.8C64.7,19.9,139.9,21.8,226.1,34.1z"/>
	<path fill="#519ECA" d="M1024,23.8v23.8c-45.7,6.2-84.9,13.8-117.4,21.1c-129.8,29.1-220.4,68.9-336,37.5
		c-63.3-17.2-109.8-49.1-138-72c59.2,24.8,146.7,52.1,252,48c74.6-2.9,123-20.1,174-33C903.1,37.8,958.1,27.8,1024,23.8z"/>
	<path fill="#519ECA" d="M1024,122.2v33.5c-29.2,7.2-57.8,13.7-96.9,17.2c-99.8,8.8-189.4-9.7-264-36c112.2,10.6,203.1,5.5,267-1.5
		C963.7,131.6,994.6,126.9,1024,122.2z"/>
	<path fill="#519ECA" d="M375.6,143.8c-105.6-21.1-195.5-19.8-268.5-10c-45,6-76.4,14.3-107.1,21.8v-33.5
		c93.9-15.1,173.1-29.7,278.1-7.8C320,123,353.5,134.9,375.6,143.8z"/>
	<path fill="#92DBE6" d="M1024,330.7v18.5c-23.9,12.4-46.2,25-66.9,37.4C976.6,368.3,998.8,349.4,1024,330.7z"/>
	<path fill="#92DBE6" d="M612.6,202.1c-112.1-0.6-270.5,12.4-447,75C103.9,299,48.7,323.8,0,349.2v-18.5c28-20.7,59.6-41,95.1-59.6
		C309.8,158.7,523.2,185.3,612.6,202.1z"/>
	<path fill="#A9E5EC" d="M794.1,256c-230.9,27.7-404.2,123.4-429,250.6c-0.4,1.8-0.7,3.6-1,5.4H62.2
		c48.9-48.7,113.6-102,196.4-147.9C483.4,239.4,701.5,247.1,794.1,256z"/>
	<path fill="#A9E5EC" d="M690.1,512H482.8c3.6-5.8,7.3-11.6,11.3-17.4c136.8-201.1,393.1-223.2,444-226.6
		C782.1,345.7,685.2,441.5,690.1,512z"/>
</g>
<g id="_x37__1_">
	<g>
		<path fill="#C3EFE8" d="M1013.2,113.2c-28.1-2.8-59.3-4.6-93.2-4.2c-27.4,0.3-52.9,1.9-76.4,4.2c5.4-1.8,11.6-3.5,18.6-4.8
			c7.5-1.4,14.4-2.1,20.5-2.4c-2.4,0-4.8-0.1-7.1-0.5c-13-1.8-23.4-8.7-27.4-18.4c-7.6-18.6,13-37.7,16-40.5
			c16-14.9,44.4-22.9,67.5-15.7c8.3,2.6,15.8,7.2,21.9,14.1c21,23.9,9.3,59.1,8.7,60.7c5.6-0.1,11.8,0.1,18.4,0.8
			C993.2,107.8,1004.2,110.3,1013.2,113.2z"/>
		<path fill="#D1F4F9" d="M875.1,51.8c-1.5,2.1-15.7,23.5-5.5,41c4.6,7.8,12,11.5,16.1,13.1c0,0-4.4-0.1-10.1-0.3
			c-13-1.8-23.4-8.7-27.4-18.4c-7.6-18.6,13-37.7,16-40.5c16-14.9,44.4-22.9,67.5-15.7C908.3,27.7,886.3,35.4,875.1,51.8z"/>
	</g>
	<g>
		<path fill="#C3EFE8" d="M919.8,265.6c-18.5-1.9-39.1-3-61.4-2.8c-18,0.2-34.9,1.2-50.3,2.8c3.6-1.2,7.7-2.3,12.2-3.2
			c4.9-0.9,9.5-1.4,13.5-1.6c-1.6,0-3.1-0.1-4.6-0.3c-8.5-1.2-15.4-5.7-18-12.1c-5-12.2,8.5-24.8,10.5-26.7
			c10.5-9.8,29.3-15.1,44.5-10.3c5.4,1.7,10.4,4.7,14.4,9.3c13.8,15.7,6.1,38.9,5.7,40c3.7,0,7.8,0.1,12.1,0.5
			C906.7,262,913.9,263.7,919.8,265.6z"/>
		<path fill="#D1F4F9" d="M828.8,225.1c-1,1.4-10.3,15.5-3.6,27c3,5.1,7.9,7.6,10.6,8.6c0,0-2.9-0.1-6.7-0.2
			c-8.5-1.2-15.4-5.7-18-12.1c-5-12.2,8.5-24.8,10.5-26.7c10.5-9.8,29.3-15.1,44.5-10.3C850.7,209.3,836.2,214.3,828.8,225.1z"/>
	</g>
	<g>
		<path fill="#C3EFE8" d="M718.7,171.2c-24.8-2.5-52.3-4-82.2-3.7c-24.2,0.2-46.7,1.6-67.4,3.7c4.8-1.6,10.2-3.1,16.4-4.3
			c6.6-1.3,12.7-1.9,18.1-2.1c-2.1,0-4.2-0.1-6.2-0.4c-11.4-1.6-20.7-7.7-24.2-16.2c-6.7-16.4,11.4-33.2,14.1-35.7
			c14.1-13.1,39.2-20.2,59.6-13.9c7.3,2.3,14,6.3,19.3,12.4c18.5,21.1,8.2,52.1,7.7,53.6c5-0.1,10.4,0.1,16.2,0.7
			C701.1,166.4,710.8,168.7,718.7,171.2z"/>
		<path fill="#D1F4F9" d="M596.9,117c-1.3,1.9-13.8,20.7-4.8,36.1c4,6.9,10.6,10.1,14.2,11.5c0,0-3.9-0.1-9-0.3
			c-11.4-1.6-20.7-7.7-24.2-16.2c-6.7-16.4,11.4-33.2,14.1-35.7c14.1-13.1,39.2-20.2,59.6-13.9C626.2,95.8,606.8,102.6,596.9,117z"
			/>
	</g>
	<g>
		<path fill="#C3EFE8" d="M390.9,89.2c-18.9-1.9-39.9-3.1-62.7-2.8c-18.4,0.2-35.7,1.2-51.5,2.8c3.6-1.2,7.8-2.4,12.5-3.3
			c5-1,9.7-1.4,13.8-1.6c-1.6,0-3.2-0.1-4.7-0.3c-8.7-1.2-15.8-5.9-18.4-12.4c-5.1-12.5,8.7-25.4,10.8-27.2
			c10.8-10,29.9-15.5,45.5-10.6c5.6,1.7,10.7,4.8,14.8,9.5c14.1,16.1,6.2,39.8,5.9,40.9c3.8,0,7.9,0.1,12.4,0.5
			C377.4,85.6,384.8,87.3,390.9,89.2z"/>
		<path fill="#D1F4F9" d="M297.9,47.9c-1,1.4-10.6,15.8-3.7,27.6c3.1,5.2,8.1,7.7,10.8,8.8c0,0-3-0.1-6.8-0.2
			c-8.7-1.2-15.8-5.9-18.4-12.4c-5.1-12.5,8.7-25.4,10.8-27.2c10.8-10,29.9-15.5,45.5-10.6C320.3,31.7,305.4,36.9,297.9,47.9z"/>
	</g>
	<g>
		<path fill="#C3EFE8" d="M524.2,243c-19.8-2-41.9-3.2-65.7-3c-19.3,0.2-37.4,1.3-53.9,3c3.8-1.3,8.2-2.5,13.1-3.4
			c5.3-1,10.1-1.5,14.4-1.7c-1.7,0-3.4-0.1-5-0.3c-9.2-1.3-16.5-6.2-19.3-13c-5.3-13.1,9.2-26.6,11.3-28.6
			c11.3-10.5,31.3-16.2,47.6-11.1c5.8,1.8,11.2,5,15.5,9.9c14.8,16.9,6.5,41.7,6.1,42.8c4,0,8.3,0.1,13,0.6
			C510.1,239.1,517.8,241,524.2,243z"/>
		<path fill="#D1F4F9" d="M426.7,199.6c-1,1.5-11.1,16.6-3.9,28.9c3.2,5.5,8.5,8.1,11.4,9.2c0,0-3.1-0.1-7.2-0.2
			c-9.2-1.3-16.5-6.2-19.3-13c-5.3-13.1,9.2-26.6,11.3-28.6c11.3-10.5,31.3-16.2,47.6-11.1C450.2,182.7,434.6,188.1,426.7,199.6z"/>
	</g>
	<g>
		<path fill="#C3EFE8" d="M238.8,254.7c-27.4-2.8-57.8-4.4-90.8-4.1c-26.7,0.3-51.6,1.8-74.5,4.1c5.3-1.8,11.3-3.4,18.1-4.7
			c7.3-1.4,14-2.1,20-2.3c-2.3,0-4.6-0.1-6.9-0.4c-12.6-1.7-22.9-8.5-26.7-17.9c-7.4-18.1,12.6-36.7,15.6-39.4
			c15.6-14.5,43.3-22.4,65.8-15.3c8.1,2.5,15.4,7,21.4,13.7c20.4,23.3,9,57.6,8.5,59.2c5.5-0.1,11.5,0.1,17.9,0.8
			C219.4,249.4,230,251.9,238.8,254.7z"/>
		<path fill="#D1F4F9" d="M104.2,194.9c-1.4,2.1-15.3,22.9-5.3,39.9c4.4,7.6,11.7,11.2,15.7,12.7c0,0-4.3-0.1-9.9-0.3
			c-12.6-1.7-22.9-8.5-26.7-17.9c-7.4-18.1,12.6-36.7,15.6-39.4c15.6-14.5,43.3-22.4,65.8-15.3C136.6,171.4,115.2,178.9,104.2,194.9
			z"/>
	</g>
</g>
<g id="_x36__1_">
	<path fill="#847F79" d="M0,409.3V270.2c3.6-22.8,15.3-38.5,27.7-39.4c2.6-0.2,7.4,0.1,13.4,4.7c-2.8-27,9-47.5,19.3-48.9
		c10.7-1.5,27,16.5,27.7,45.7c4.1-14.1,14.7-23.4,25.9-23.1c13.5,0.3,25.4,14.5,26.3,32.9c-9.4-17.4-7.4-39.8,3.7-52.5
		c9.3-10.7,24.2-13.8,35-6.1c13.9,9.9,19.3,36.6,7.8,58.7c19.5-97.3,47.3-162,69.2-159.4c27.6,3.3,40,113.2,41.4,125.6
		c2.3-4.4,6-9.6,11.6-12.6c11.7-6.3,27.2-0.9,38.7,13.9c10.3-52.4,37.5-80.8,52.7-76.2c14.2,4.3,26,40.3,21,85.6
		c2.4-2.8,10.6-11.9,23-12.7c20.4-1.3,32.4,21.1,32.8,22.1C445.3,140.9,433.7,94,442.3,87.5c10.3-7.8,49.9,42.7,118.6,151.7
		c15-102.1,26.2-118.3,32.7-118.1c6.2,0.2,15.4,15.5,25,96.9c-3.8-19.6,6.2-38.4,19.7-42.1c14.7-4.1,31.5,10.3,32.9,32.3
		c-11.8-46.6,0.1-87.3,20.4-97.8c15.7-8.1,32.6,3.9,34,4.9c19.9,14.6,29.2,49.5,20.6,85.9c4.1-19.5,32-148.8,51.4-145.7
		c18.5,2.9,19.8,125.3,20,147.3c2.2-16.5,9.2-30.4,18-32.7c11.9-3.1,30.3,14.2,33.3,46.2c1.7-29.1,22.7-46.1,38-41.3
		c12.3,3.9,22.4,22.3,20.9,44c1-7.7,6.7-47.8,19.1-49.7c11.1-1.7,25.5,27.2,35.8,72c1.9-3.6,7.6-13.3,15.5-13.9
		c10.9-0.8,24.1,15.9,25.7,42.6c0,49.4,0,98.8,0,148.2C682.7,415.4,341.3,412.3,0,409.3z"/>
</g>
<g id="_x35__1_">
	<path fill="#8091AB" d="M117.9,0l-4,23.2l-2.3,13.5l-8.3,47.5l-3.1,17.8l-0.9,5.5l-4.9,28.1l-9,52.1l11.8-5.9L84,195.1l-15.8,90.8
		l-5.7,32.8l-4.1,23.6l18.3-9.2l-21.4,27.1l-6.5,37.7l-0.9,5.3c-0.3,0.5-3,5.2-7.5,5.8c-3.9,0.4-7.4-2.3-8.9-6.8
		c0.3-1.4,0.6-2.8,0.8-4.1c4.9-24,9.9-48.1,14.8-72.1c2.1-10.4,4.3-20.8,6.4-31.2c1.9-9.2,3.8-18.4,5.7-27.6l-7.8-22l9.8,12.2
		c8.2-40.1,16.5-80.2,24.7-120.3c1.9-9.5,3.9-19,5.8-28.5c1.6-7.8,3.2-15.6,4.8-23.5l-1.8-6.2l-2.2-7.4l-0.6-2l1.9,2.5l4.2,5.4
		c0.5-2.6,1.1-5.3,1.6-7.9c2.2-10.8,4.4-21.7,6.7-32.5c1-4.7,1.9-9.3,2.9-14c1.6-7.7,3.1-15.4,4.7-23H117.9z"/>
	<path fill="#8091AB" d="M176.5,391.3c-0.1,0.6-0.7,6-4.7,8.3c-3.4,1.9-7.7,0.8-10.9-2.8c-0.3-1.4-0.6-2.8-0.9-4.1
		c-7.3-35.2-14.5-70.4-21.8-105.6c-1.8-8.5-3.5-16.9-5.2-25.4l-6-6.4l-9.9-10.7l13.9,7.3c-8.1-39.4-16.2-78.7-24.4-118.1
		c-1.8-8.8-3.6-17.7-5.5-26.5c-0.4-1.8-0.7-3.5-1.1-5.3c-1.5-7.4-3.1-14.9-4.6-22.3l-0.8-1l-9.6-11.5l7.4,4.1l1.4,0.8
		c0-0.1,0-0.2,0-0.2c-2.3-11.2-4.6-22.4-6.9-33.6c-1.1-5.4-2.2-10.8-3.3-16.2C82.1,14.8,80.6,7.4,79.1,0h4.1l5.3,22.3L92.2,38
		l7.5,31.5l3.5,14.7l5.3,22.3l6.3,26.3l10.9,45.7l8.5-10.1l-6.8,17.3l14.9,62.7l8.1,34.1l11.6,48.6l12.4-14.7l0.8-1l-0.7,2.7
		l-8.3,30.7l8.9,37.2L176.5,391.3z"/>
	<path fill="#8091AB" d="M193.7,388.2l0.4,5.3c-0.2,0.5-1.6,5.8-5.9,7.4c-3.6,1.4-7.8-0.4-10.3-4.5c-0.1-1.4-0.1-2.8-0.2-4.2
		c-1-24.7-2.1-49.4-3.1-74c0-0.6,0-1.2-0.1-1.8c-0.6-14-1.2-27.9-1.8-41.9c-0.2-5.3-0.4-10.6-0.7-15.9L160.4,241l-1.2-1.8l1.9,1.5
		l10.6,8c-0.2-4-0.3-7.9-0.5-11.9c-1.5-36.2-3.1-72.4-4.6-108.6c-0.3-8.3-0.7-16.6-1-24.9c-0.4-10.1-0.8-20.2-1.3-30.3l-8.2-14
		l7.9,6.3c-0.4-10.3-0.9-20.5-1.3-30.7c-0.1-2.6-0.2-5.3-0.3-7.9c-0.4-8.9-0.7-17.8-1.1-26.6h4.2l2,27.1l0.5,7.3l5,68.8l1.8,24.5
		l3.5,47.6l10-8.5l-9.5,16l3.6,49.7l2.8,37.8l4.5,61.6l15.6-13.4L191,350L193.7,388.2z"/>
	<path fill="#8091AB" d="M274.2,129.6l-9.3,46.8l11.9-5.6l-13.4,12.9l-5.1,25.8l-8.1,40.8l-15.9,79.9l18.6-8.8l-22.1,26.6l-7.2,36.4
		l-0.2,1.1l-1.1,5.3c-0.3,0.5-3.1,5.2-7.7,5.6c-2.3,0.2-4.4-0.7-6.1-2.4c-1.1-1.2-2.1-2.8-2.6-4.6c0.3-1.4,0.6-2.7,0.9-4.1
		c10-43.4,20-86.9,30-130.3l-0.3-0.8l-7-21.3l9.5,12.4c2.5-10.9,5-21.9,7.6-32.8c6.4-27.8,12.8-55.6,19.2-83.5
		c1.3-5.4,2.5-10.9,3.8-16.3c3-12.9,6-25.8,8.9-38.7l-4.2-15.7l5.9,8.1c5.1-22.1,10.2-44.2,15.3-66.4h4.2l-22.6,114.1L274.2,129.6z"
		/>
	<path fill="#8091AB" d="M334.1,229.9l-8.7,100.3l17.5-10.7l-3.3,5l-15.8,23.9l-3.3,38.1l-0.5,5.3c-0.2,0.5-2.5,5.5-7,6.4
		c-3.8,0.8-7.6-1.6-9.4-6.1c0.2-1.4,0.3-2.8,0.5-4.2c2-16.7,3.9-33.5,5.9-50.2c3.2-27.5,6.5-55.1,9.7-82.6l-9.2-20.1l-0.5-1.1l1,1
		l9.9,10.3c0.5-4.3,1-8.6,1.5-12.9c1.4-12.1,2.9-24.3,4.3-36.5c2.3-19.8,4.6-39.6,7-59.5c0.3-2.4,0.6-4.9,0.9-7.4
		c2.3-19.5,4.6-39,6.9-58.5l-5.9-15.1l6.8,7.4c2.5-21,4.9-41.9,7.4-62.9h4.3l-11.4,131.7l-0.5,6.1l-3.1,36.1l11.2-6.9l-11.9,14.3
		l-1.1,13L334.1,229.9z"/>
	<path fill="#8091AB" d="M427.4,381.7l0,5.4c-0.2,0.5-2,5.7-6.4,7c-3.7,1.1-7.7-0.9-10-5.1c0-1.4,0.1-2.8,0.1-4.2
		c0.6-29.3,1.3-58.5,1.9-87.8c0.3-15.3,0.7-30.5,1-45.8l-11.7-20.2l11.9,10.2c0.2-8.5,0.4-16.9,0.6-25.4c0.2-9.4,0.4-18.8,0.6-28.2
		c0.9-40.7,1.8-81.5,2.6-122.2l-7.3-14.5l7.5,6.7c0.4-19.2,0.8-38.3,1.3-57.5h4.5l1.5,168.3l10.5-7.9l-10.5,15.4l0.1,11.3l0.3,27
		l0.7,78.5l0.3,32.6l16.4-12.3L427,343.4L427.4,381.7z"/>
	<path fill="#8091AB" d="M41.9,328.3L28,354.5l0.3,38.3l0,5.4c-0.2,0.5-2,5.7-6.4,7c-3.7,1.1-7.7-0.9-10-5.1c0-1.4,0.1-2.8,0.1-4.2
		c0.4-17.8,0.8-35.6,1.2-53.4c0.2-7.2,0.3-14.4,0.5-21.6c0.4-19.5,0.8-39.1,1.3-58.6L3.4,241.9l11.9,10.2
		c0.7-33.6,1.4-67.2,2.2-100.8c0.2-10.7,0.5-21.4,0.7-32.1l0.9-42.9l-7.3-14.5l7.5,6.7c0.2-7.9,0.3-15.7,0.5-23.6
		c0.2-7.4,0.3-14.8,0.5-22.2c0.2-7.6,0.3-15.2,0.5-22.8h4.1l0.2,22.6l0.2,21.8l0.7,73.6l0.3,31.2l0.3,30.2l10.5-7.9l-10.5,15.4
		l1.1,124.4l0.2,23.9l0,1.2l4.4-3.3l12-9L41.9,328.3z"/>
	<path fill="#8091AB" d="M507.6,341l-5.3,9.9l0.4,40.5l0.1,5.7c-0.2,0.6-2.1,6-6.8,7.4c-3.9,1.2-8.2-1-10.5-5.4c0-1.5,0.1-3,0.1-4.5
		c0.3-13.7,0.6-27.4,0.9-41.1c0.6-25.9,1.1-51.7,1.7-77.6c0.2-7.6,0.3-15.3,0.5-22.9l-12.4-21.4l12.6,10.8
		c0.3-11.8,0.5-23.6,0.8-35.5c0.1-6.4,0.3-12.9,0.4-19.3c0.8-37.8,1.6-75.5,2.5-113.3l0.4-18.1l-0.1-0.3l-7.6-15l7.9,7.1
		c0.4-16,0.7-32.1,1-48.1h5.1l0.5,58.2l0.2,20.3l0.8,87.1l11.2-8.4l-11.1,16.3l0.1,14.9l0.2,17.8l0.6,66.8l0.5,58.7l17.4-13.1
		L507.6,341z"/>
	<path fill="#8091AB" d="M622.2,390l1,5.6c-0.1,0.6-1,6.3-5.4,8.5c-3.7,1.9-8.2,0.5-11.3-3.5c-0.2-1.5-0.4-2.9-0.7-4.4
		c-0.7-4.7-1.4-9.4-2.2-14c-4.1-26.4-8.2-52.8-12.3-79.2c-2.3-14.7-4.5-29.4-6.8-44.1c-0.1-0.9-0.3-1.7-0.4-2.6l-15.9-18.9l14.3,8.5
		c-2.2-14.5-4.5-28.9-6.7-43.4c-0.3-2.2-0.7-4.4-1-6.6c-4.8-30.9-9.6-61.8-14.4-92.6c-1.6-10.4-3.2-20.8-4.8-31.3
		c-0.5-3.4-1-6.8-1.6-10.1L543.7,48l9,5.6c-2.8-17.9-5.5-35.8-8.3-53.7h5l13.7,73.3l6,32.4l11.6,62.2l9.5-10.2l-8.1,18l4.1,21.8
		l0.9,4.7l10.3,55.2L605,298l6.2,33.2l14.8-15.9l-11.3,34.9l4,21.4L622.2,390z"/>
	<path fill="#8091AB" d="M998.1,334.9l18.2-11.8l-16.4,26.2l-3,4.8l-0.6,9.9l-1.9,30.5l-0.4,5.7c-0.2,0.6-2.5,5.9-7.3,6.9
		c-1.1,0.3-2.3,0.3-3.4,0c-2.8-0.6-5.3-2.8-6.7-6.1c0.1-1.5,0.3-3,0.4-4.5c0.7-7.6,1.4-15.3,2.1-22.9c0.2-2.5,0.5-5.1,0.7-7.6
		c1-11.2,2.1-22.4,3.1-33.6c2.4-25.6,4.8-51.3,7.1-76.9l-10.8-22.3l11.8,11.7c2.6-27.8,5.2-55.6,7.8-83.5c1.1-12,2.2-24,3.3-36
		c2-22,4.1-44,6.1-66l-3.9-9.3l-2.7-6.6l5.9,6.1l1.5,1.6c0.1-0.6,0.1-1.2,0.2-1.8c0.8-8.3,1.5-16.7,2.3-25
		c0.8-8.2,1.5-16.4,2.3-24.6h5l-1.5,24.2l-1.5,24.5l-4.7,75.5l-2.2,35.1l-0.6,9.8l11.7-7.5l-12.2,15.5L998.1,334.9z"/>
	<path fill="#8091AB" d="M988.5,393.4l0.7,5.6c-0.1,0.6-1.4,6.1-5.8,8.1c0,0,0,0-0.1,0c-3.8,1.6-8.2,0-11.1-4.2
		c-0.1-1.5-0.3-3-0.4-4.5c-0.6-6.5-1.2-13-1.8-19.6c-0.1-1.3-0.2-2.6-0.4-3.9c-3.5-39.2-7.1-78.4-10.6-117.5l-14.7-19.9l13.7,9.3
		c-2.3-25.6-4.6-51.2-7-76.8c-1.1-12.3-2.2-24.6-3.3-36.9c-2.2-23.9-4.3-47.8-6.5-71.7l-0.1-0.2l-9.3-14.2l8.7,6.2
		c-0.6-6.8-1.2-13.6-1.9-20.5c-1-11-2-21.9-3-32.9h5l3.9,32l3.4,28l8.8,72.1l4.5,36.6l0,0.4l0.5-0.5l9.6-9.1l-4.3,8.2l-4.9,9.2
		l19.1,157.1l1.7-1.6l14.1-13.3l-13.5,34.1l1.1,8.7l1,8.1L988.5,393.4z"/>
	<path fill="#8091AB" d="M906.8,404.5l0.1,5.7c-0.2,0.6-2,6-6.6,7.5c-3.9,1.3-8.2-0.8-10.6-5.2c0-1.5,0-3,0-4.5
		c0.1-38.2,0.3-76.4,0.4-114.6c0-6.9,0-13.7,0.1-20.6c0-2.1,0-4.3,0-6.4l-12.7-21.2l12.8,10.6c0.1-27,0.2-54,0.3-81.1
		c0-11.9,0.1-23.9,0.1-35.8c0.1-22.3,0.2-44.5,0.3-66.8c0-0.8,0-1.7,0-2.5l-8-15.2l8.1,7c0-6.6,0-13.3,0.1-19.9
		c0.1-13.9,0.1-27.7,0.2-41.6h4.7l1.1,40.3l0.8,30.3l1.8,67.7l1,36.2l0.1,4.2l5.7-4.4l5.3-4.1l-2.6,4l-8.2,12.5l2.3,84.6l0.4,14.7
		l1.6,58.9l17.1-13.4l-16.6,32.6L906.8,404.5z"/>
	<path fill="#8091AB" d="M828.1,173l-0.6,5.7l8.7-5.1l3.3-1.9l-1.8,2l-11.1,12.9l-10.3,100.3l-5.9,57.1l5.3-3.1l13.4-7.9l-20.7,30.2
		l-4.2,40.3l-0.6,5.7c-0.3,0.5-2.7,5.7-7.6,6.6c-4,0.7-8-1.9-9.9-6.6c0.2-1.5,0.4-3,0.6-4.4c2.1-15.6,4.2-31.2,6.3-46.8
		c3-22.5,6-45,9.1-67.5c1.2-8.7,2.3-17.3,3.5-26l-9.9-22.7l11.3,12.2c3.7-27.3,7.3-54.6,11-81.9c1.3-9.9,2.6-19.7,4-29.6
		c2.5-18.3,4.9-36.6,7.4-54.9c0.8-6.1,1.6-12.1,2.4-18.2l-4.5-12l-1.5-4.1l3.2,3.6l3.9,4.4c0.3-1.9,0.5-3.7,0.8-5.6
		c2.5-18.6,5-37.1,7.5-55.7h4.7l-5.5,53.8l-3.3,31.7l-5.8,56.7L828.1,173z"/>
	<path fill="#8091AB" d="M781.1,333.2l-18.5,31.6l-0.7,20.1l-0.7,20.4L761,411c-0.2,0.5-2.3,5.9-7.1,7.1c-4,1-8.1-1.3-10.3-5.9
		c0.1-1.5,0.2-3,0.3-4.5c0.1-1.8,0.2-3.6,0.3-5.4c2.1-32,4.1-64,6.2-96c0.8-13.3,1.7-26.6,2.6-39.9l-2.3-4.4l-5-9.5l-4.2-8l8.8,8.3
		l3.3,3.1c0.1-1,0.1-1.9,0.2-2.9c1.9-29.9,3.8-59.7,5.8-89.6c0.4-6.9,0.9-13.9,1.3-20.8c0.8-12.9,1.7-25.8,2.5-38.7
		c0.7-10.4,1.3-20.9,2-31.3c0-0.8,0.1-1.7,0.2-2.5l-7.1-15.7l7.6,7.5c1.3-20.6,2.6-41.3,4-61.9h4.7l-2.4,71.1l-1,31l-1.4,40.6
		l-0.8,22.5l-0.5,14.3l11.5-7.9l-11.8,15.8l-2.2,66.4l-0.2,6l-1.4,41.8l-1.5,44L781.1,333.2z"/>
	<path fill="#8091AB" d="M718.9,404.4l0.4,5.7c-0.1,0.6-1.7,6.1-6.3,7.9c-3.8,1.5-8.2-0.4-10.9-4.7c-0.1-1.5-0.1-3-0.2-4.5
		c-1.2-27.1-2.5-54.3-3.7-81.4c-0.8-18.2-1.7-36.5-2.5-54.7c-0.1-1.8-0.2-3.6-0.3-5.4l-10.4-15.5l-2.9-4.3l-0.5-0.7l0.5,0.4l6.1,4.6
		l6.7,5c-0.1-1.7-0.2-3.4-0.2-5.1c-1.1-24.9-2.3-49.9-3.4-74.8c-0.5-10.4-0.9-20.8-1.4-31.1c-0.1-2.2-0.2-4.4-0.3-6.6
		c-0.3-5.6-0.5-11.2-0.8-16.8c-0.1-2-0.2-4.1-0.3-6.1c-0.5-11.4-1-22.8-1.6-34.2c-0.2-3.8-0.3-7.6-0.5-11.3l-8.8-14.8l8.4,6.6
		c-0.9-20.8-1.9-41.7-2.9-62.5h4.7l6.3,81.6l0.3,4.1l2.3,29.7l0.7,8.8l1.2,15.5l0.7,8.8l1.2,16.1l0.1,1.8l1,12.7l10.6-9.1l-10,17
		l5,64.7l1.4,18.3l3.9,51.2l1.8,23.7l16.4-14.2l-15,33.4L718.9,404.4z"/>
	<path fill="#8091AB" d="M700.5,164.6l3.5-1.9l-3.3,3.7l-9.3,10.4l-0.5,0.5l-8.6,69.8l0,0.3l-0.5,4.4l-3,24.8l-7.1,57.8l18.9-10.7
		l-7.9,11l-13.4,18.8l-5,40.2l-0.7,5.6c-0.3,0.5-2.9,5.7-7.7,6.5c-3.2,0.5-6.4-1.1-8.4-4.1c-0.5-0.8-1-1.7-1.3-2.6
		c0.2-1.5,0.5-2.9,0.7-4.4c0.4-2.4,0.7-4.7,1.1-7.1c1.9-12.5,3.9-25,5.8-37.5c0.6-3.9,1.2-7.8,1.8-11.7c0.6-3.8,1.2-7.6,1.8-11.5
		c2.4-15.6,4.8-31.1,7.2-46.6c1.3-8.5,2.6-17,3.9-25.4l-1-2.5l-8.4-20.4l11,12.4c5.2-33.3,10.3-66.7,15.5-100
		c0.3-1.8,0.6-3.6,0.9-5.5c0.9-5.5,1.7-11.1,2.6-16.6c0.3-2.1,0.6-4.1,1-6.2c1.6-10.1,3.1-20.2,4.7-30.3c0.2-1.4,0.4-2.8,0.6-4.1
		c1.1-7.1,2.2-14.2,3.3-21.3L692.8,44l6.9,8.1c2.7-17.4,5.4-34.8,8.1-52.1h5l-10,81.1l-4.2,34.1l-1.1,9l-1.9,15.3l-0.9,7.6
		l-2.8,22.4L700.5,164.6z"/>
	<path fill="#8091AB" d="M647.5,353.5l-0.2,0.4l0.5,33.6l0.1,6.9l0.1,5.7c-0.1,0.2-0.3,0.8-0.6,1.6c-0.9,1.9-2.8,4.9-6.1,5.9
		c-3.9,1.2-8.2-0.9-10.6-5.4c0-1.5,0-3,0.1-4.5c0.2-11.5,0.3-22.9,0.5-34.4c0.4-24.7,0.7-49.5,1.1-74.2c0.1-11,0.3-22,0.5-33l-1.2-2
		l-11.3-19.4l12.7,10.7c0.6-42.9,1.3-85.8,1.9-128.7c0.2-11.7,0.4-23.4,0.5-35.1c0.1-7.5,0.2-14.9,0.3-22.4l-7.9-15.3l8,7.1
		c0.3-17.1,0.5-34.1,0.8-51.2h5l1.3,82.1l0.6,35.2l0.8,51.2l11.1-8.4l-11,16.4l1.2,76.9l0.5,31.9l0.8,49.5l10.2-7.8l7-5.4l-8.8,16.8
		L647.5,353.5z"/>
</g>
<g id="_x34_">
	<path fill="#D0B564" d="M0,411h1024v-35.5c-4-1.6-9.9-4-17.1-6.8c0,0-84-32.4-170.4-49.8c-101.3-20.3-211.7,10.5-507.5,48
		c-7.8,1,2.9-0.5-89.5,9.5c-96,10.4-144.6,16.2-208,5.5c-13.7-2.3-24.7-4.8-31.5-6.5C0,387.4,0,399.2,0,411z"/>
	<g>
		<path fill="#A06F3A" d="M742.7,345c-1.4,4,4,9,4.7,9.7c15.8,14.6,55.9-3.1,55.1-9.7C801.6,337.6,746.6,333.6,742.7,345z"/>
		<path fill="#463445" d="M789.8,281.1l-9.2,20c0.2,12.4,0.4,24.9,0.7,37.3c0,2.2,0.1,4.4,0.1,6.6c-0.5,0.7-5.5,7.6-14.6,7.8
			c-9.4,0.1-14.7-7.1-15.1-7.8l0.3-5.5l3.8-69.2l-9.5-15.5l9.9,8.9l2.9-52.8l-12.8-24.7l13.2,17.1l5.5-99.9l-11-19.7l11.3,14.9
			L770.5,0h4.7c1.1,59.4,2.1,118.7,3.1,178.1l11.4-13.4l-11.2,24c0.6,33.9,1.2,67.8,1.8,101.7L789.8,281.1z"/>
	</g>
	<g>
		<path fill="#A06F3A" d="M540.5,353c-0.3,3.1,9.1,6.1,10,6.4c18.3,6,38.5-7.6,37.5-11.5C586.6,342.3,541.2,346.4,540.5,353z"/>
		<path fill="#463445" d="M568.6,345.5c0.2,1.9,0.4,3.8,0.6,5.8c-1,1-4.2,4.1-9.5,4.8c-6,0.8-10.4-2.2-11.4-2.9l-0.3-4.5l-6-93
			l-7.5-11.1l7.2,5.9l-7.6-116.6l-7.6-9.9l7.3,5.1L525.4,0h6.9c2.3,21.7,4.6,43.4,6.8,65.2L550,50l-10,23.5
			c3.9,36.7,7.7,73.4,11.6,110l7.6-9.5l-7.1,14.3c4.2,40.3,8.5,80.7,12.7,121l9.4-8.5l-8.5,17.1
			C566.7,327.2,567.7,336.3,568.6,345.5z"/>
	</g>
	<g>
		<path fill="#A06F3A" d="M240,390c-0.5,2.1,4.1,4.8,5.9,5.9c15.5,9.1,38.6-1.5,38.1-5.4C283.4,385.5,241.4,384,240,390z"/>
		<path fill="#463445" d="M270.9,386.6l0.1,3.4c-0.7,0.7-5.5,5.7-13,5.3c-6.3-0.4-10.2-4.4-11-5.3l0.1-3.1l2.6-98.6l-6.7-15.8
			l6.9,8.3l2-74.9L243,193l8.9,8.3l2.9-111.7L247,74.5l8,9.5l2.2-84h6.7l2.7,149.6l11.6-8.6l-11.5,14.9l1.8,97.7l9.7-6.1l-9.6,12.7
			l1.3,71.6l14-9.3l-13.9,17.3L270.9,386.6z"/>
	</g>
	<g>
		<path fill="#A06F3A" d="M848.5,341.3c-1.7,2.9,3.3,8.7,5.8,11c12.8,12,37,5.2,37.5,0.5C892.4,346.6,852.5,334.5,848.5,341.3z"/>
		<path fill="#463445" d="M934.7,99.9l9.5-4.1l-11.7,13.7l-27.8,118.8l11.4-4.3L903,236l-25.2,108l-1.2,5.2
			c-0.6,0.4-6.7,4.1-13.5,1.5c-5.3-2.1-7.5-6.7-8-7.7l1-3.7l12.8-45.9l-7.4-22.9l10.3,12.5l31.1-111.3l-2.4-17.2l4.5,9.5l33.7-120.5
			l-0.8-17.2l2.9,9.6l10-35.9h7.2L934.7,99.9z"/>
	</g>
	<g>
		<path fill="#A06F3A" d="M382.3,374.7c-0.5,2.5,3,5.1,3.8,5.7c12,8.8,37.4-5.5,36.5-9.7C421.6,365.9,383.9,367.2,382.3,374.7z"/>
		<path fill="#463445" d="M404.3,368l0.2,4.7c-0.2,0.5-2,5-6.7,6.3c-4,1.1-8.4-0.6-11-4.3c0-1.2,0-2.5,0-3.7
			c-0.4-39.2-0.8-78.4-1.1-117.6L372.3,236l13.3,8.7c-0.5-51.5-1-103.1-1.5-154.6l-8.4-12.5l8.4,5.7c-0.3-27.8-0.5-55.5-0.8-83.2
			h3.6l8.6,180.5l11.2-7.2L395.7,187l6.2,131.3l17.4-11.3l-16.7,27.3L404.3,368z"/>
	</g>
	<g>
		<path fill="#A06F3A" d="M85.5,399.5c-0.3,2.4,4.4,4.6,5.7,5.2c14.3,6.8,34.9-7.4,33.8-11.2C123.6,388.8,86.2,393,85.5,399.5z"/>
		<path fill="#463445" d="M112.6,391.6l0.4,3.7c-0.4,0.7-3.8,6.6-11,7.7c-6.8,1.1-11.6-2.9-12.3-3.5l-0.3-3.4l-9.2-98.7L58.7,268
			l20.5,18.3L68.1,167l-13.7-21l12.8,11.1L52.5,0h12l11,89.8L89,77.3l-12.2,22.8l15,122.5l11.2-9.3l-9.9,19.1l15.7,128.1l10.9-9.4
			l-10,16.6L112.6,391.6z"/>
	</g>
</g>
<g id="_x33_">
	<path fill="#E0C868" d="M0,411h1024v-21c-1.9,0.4-4.7,0.9-8.1,1.1c-6,0.4-10.5-0.3-11.2-0.4c-12.4-1.6-189.5-1.2-242.4-2.3
		c-86.3-1.9-141.2-14.6-187.8-21.8C468.8,350,295.7,344,0,390C0,397,0,404,0,411z"/>
	<g>
		<path fill="#BF9958" d="M139.3,382c-0.4,2.2,2.7,4.3,4.3,5.5c17.1,12.3,51.4-5.1,50.4-10C192.8,371.7,140.7,373.6,139.3,382z"/>
		<path fill="#2C3A3B" d="M148.1,234.7c-1.2-5.4-4.8-9.5-9-10.3c-2.2,0.8-4,2.5-5.3,4.9c-1.4,2.6-2.2,5.9-1.9,9.5
			c0.6,6.7,4.6,12,9.4,13c4.6-1.7,7.7-7.6,7.2-14.3C148.5,236.4,148.3,235.5,148.1,234.7z"/>
		<path fill="#A07442" d="M148,381.1c0.1,0.2,2.7,3.2,6.7,2.7c3.5-0.5,5.3-3.4,5.5-3.7c-7.5-65.7-15-131.4-22.4-197.1L148,381.1z"/>
		<path fill="#B08E58" d="M194.6,364.2"/>
		<path fill="#94A89A" d="M171.7,222.8c-4.1-9.1-13.8-12.5-17.4-13.9c-2.5-0.9-10.3-3.5-19.9-1.2c-2.8,0.7-18.3,4.8-22.7,18.1
			c-0.6,1.7-0.9,3.4-1,5.1c-0.7,9.8,5.5,18.7,10,25.1c0.9,1.3,3.2,4.5,7.1,7.9c0.3,0.3,0.6,0.5,0.9,0.8l5.4-5.8l-2.6,8
			c1,0.7,2.1,1.4,3.3,2.1c3.8,2.2,8,4.5,12.6,3.2c3.5-1,6.4-3.8,6.9-4.3c1.2-1.2,1.3-1.7,3.3-4.4c1.6-2.2,3.5-4.7,5.7-6.7
			c3.7-3.4,5.4-2.7,7.4-4.6c0.2-0.2,0.4-0.4,0.6-0.6c0.6-0.7,2.5-3.1,2.3-13.2C173.4,230.3,173.3,226.4,171.7,222.8z M141.4,251.6
			c-4.8-1-8.9-6.3-9.4-13c-0.6-6.7,2.5-12.6,7.2-14.3c4.8,0.9,8.9,6.3,9.4,13C149.1,244,146,249.9,141.4,251.6z"/>
		<path fill="#AEC1B5" d="M173.5,238.2c0.2,10.2-1.6,12.5-2.3,13.2c-0.2,0.2-0.4,0.4-0.6,0.6c-8-8.4-15.8-13.8-22.5-17.4
			c-1.2-5.4-4.8-9.5-9-10.3c-2.2,0.8-4,2.5-5.3,4.9c-1.3-0.3-2.7-0.5-4.1-0.6c-7.3-0.8-13.9,0.5-19.1,2.4c0.1-1.7,0.4-3.4,1-5.1
			c4.4-13.3,20-17.4,22.7-18.1c9.6-2.3,17.5,0.4,19.9,1.2c3.7,1.3,13.4,4.7,17.4,13.9C173.3,226.4,173.4,230.3,173.5,238.2z"/>
		<path fill="#4B5D54" d="M152.9,236.9c0.6,7.7-3.5,14.3-9.3,14.8c-0.7,0.1-1.5,0-2.2-0.1c4.6-1.7,7.7-7.6,7.2-14.3
			c-0.6-6.7-4.6-12-9.4-13c0.7-0.3,1.4-0.4,2.2-0.5C147.1,223.4,152.3,229.2,152.9,236.9z"/>
		<path fill="#4B5D54" d="M170.6,239.2c0.4,4.7-2.2,8.8-5.7,9.1c-0.5,0-0.9,0-1.4-0.1c-3-0.6-5.5-3.9-5.8-8
			c-0.3-4.1,1.6-7.8,4.4-8.8c0.4-0.2,0.9-0.3,1.3-0.3C167,230.8,170.2,234.4,170.6,239.2z"/>
		<path fill="#2C3A3B" d="M167.9,239.4c0.3,4.1-1.6,7.8-4.4,8.8c-3-0.6-5.5-3.9-5.8-8c-0.3-4.1,1.6-7.8,4.4-8.8
			C165.1,232,167.6,235.3,167.9,239.4z"/>
		<path fill="#4B5D54" d="M156.1,253.7c0.1,0.8-0.9,1.4-2.2,1.6c-0.2,0-0.3,0-0.5,0c-1.1,0-1.9-0.5-1.9-1.2
			c-0.1-0.7,0.7-1.3,1.7-1.5c0.2,0,0.3-0.1,0.5-0.1C155,252.4,156.1,252.9,156.1,253.7z"/>
		<path fill="#2C3A3B" d="M155.2,253.8c0.1,0.7-0.7,1.3-1.7,1.5c-1.1,0-1.9-0.5-1.9-1.2c-0.1-0.7,0.7-1.3,1.7-1.5
			C154.3,252.6,155.1,253.1,155.2,253.8z"/>
		<path fill="#4B5D54" d="M160.5,253c0,0.6-0.7,1.1-1.7,1.2c-0.1,0-0.2,0-0.4,0c-0.8,0-1.4-0.4-1.5-0.9c0-0.5,0.5-1,1.3-1.1
			c0.1,0,0.2,0,0.4-0.1C159.7,252,160.5,252.4,160.5,253z"/>
		<path fill="#2C3A3B" d="M159.8,253.1c0,0.5-0.5,1-1.3,1.1c-0.8,0-1.4-0.4-1.5-0.9c0-0.5,0.5-1,1.3-1.1
			C159.1,252.2,159.8,252.6,159.8,253.1z"/>
		<path fill="#4B5D54" d="M156.2,262.2c0.1,1.4-1.8,2.8-4.2,3c-0.3,0-0.6,0-0.9,0c-2-0.1-3.6-1-3.7-2.2c-0.1-1.2,1.3-2.4,3.3-2.8
			c0.3-0.1,0.6-0.1,0.9-0.1C154.1,259.8,156.1,260.8,156.2,262.2z"/>
		<path fill="#2C3A3B" d="M154.4,262.4c0.1,1.2-1.3,2.4-3.3,2.8c-2-0.1-3.6-1-3.7-2.2c-0.1-1.2,1.3-2.4,3.3-2.8
			C152.7,260.2,154.3,261.1,154.4,262.4z"/>
		<path fill="#AEC1B5" d="M119.2,228.8c-0.4,0.9-0.9,2.3-1.1,3.9c-0.4,3,0.4,5.4,0.9,6.6c0-1.4,0.3-3.7,1.4-6.2
			c1.6-3.4,4-5.4,5.2-6.3C123.5,227.4,121.4,228.1,119.2,228.8z"/>
		<path fill="#AEC1B5" d="M155.4,238.6c0,1.1-0.1,2.4-0.5,3.9c-0.5,2-1.3,3.6-1.9,4.7c0.8-0.6,2-1.8,3-3.6c0.8-1.6,1.1-3,1.2-4
			C156.7,239.3,156,239,155.4,238.6z"/>
		<polygon fill="#4B5D54" points="131.5,266.8 130.9,264.5 132.3,260.8 134.1,258.9 		"/>
		<path fill="#2C3A3B" d="M138.8,215.5c0,0.1,0.2,0.3,0.3,0.4c1.2,0.8,3.6-0.3,3.5-0.7C142.5,214.8,138.9,215,138.8,215.5z"/>
		<path fill="#A07442" d="M141.5,215.9c-0.7,0.3-1.4,0.3-2,0.2l-0.1-1.5l-1.6-31.6c1.2,10.5,2.4,20.9,3.6,31.4
			C141.4,214.9,141.5,215.4,141.5,215.9z"/>
	</g>
	<g>
		<path fill="#BF9958" d="M367.1,391.3c-0.7,1.8,1.4,4.1,2.6,5.4c12.1,13.4,43.9,5.3,44,1C413.8,392.6,369.9,384.5,367.1,391.3z"/>
		<path fill="#2C3A3B" d="M401.9,269.7c0-4.8-2.3-8.9-5.6-10.3c-2,0.3-3.8,1.4-5.3,3.1c-1.7,1.9-2.9,4.6-3.3,7.6
			c-0.8,5.7,1.6,10.9,5.5,12.6c4.2-0.6,7.9-5,8.7-10.7C401.9,271.2,401.9,270.4,401.9,269.7z"/>
		<path fill="#A07442" d="M374.6,392.2c0.1,0.2,1.7,3.2,5.1,3.5c3.1,0.3,5-1.8,5.3-2.1c6-56.4,11.9-112.7,17.9-169.1L374.6,392.2z"
			/>
		<path fill="#B08E58" d="M416.6,386.7"/>
		<path fill="#94A89A" d="M423.9,264.2c-1.7-8.4-9.2-13.1-12-14.8c-1.9-1.2-7.9-4.9-16.4-4.7c-2.4,0-16.2,0.6-22.4,10.9
			c-0.8,1.3-1.4,2.7-1.8,4.1c-2.4,8.1,1.1,16.6,3.7,22.9c0.5,1.3,1.9,4.4,4.5,7.9c0.2,0.3,0.4,0.6,0.6,0.8l5.6-3.9l-3.6,6.2
			c0.7,0.8,1.5,1.6,2.4,2.3c2.8,2.5,5.9,5.2,9.9,5c3.1-0.1,6-2,6.6-2.3c1.2-0.8,1.4-1.2,3.6-3.1c1.8-1.5,3.8-3.3,6-4.6
			c3.8-2.2,5-1.3,7-2.5c0.2-0.1,0.4-0.2,0.6-0.4c0.7-0.5,2.6-2.1,4.4-10.6C423.8,270.7,424.5,267.4,423.9,264.2z M393.1,282.6
			c-3.9-1.7-6.2-6.9-5.5-12.6c0.8-5.7,4.5-10.1,8.7-10.7c3.9,1.7,6.2,6.9,5.5,12.6C401,277.7,397.3,282,393.1,282.6z"/>
		<path fill="#AEC1B5" d="M422.5,277.4c-1.8,8.5-3.7,10.1-4.4,10.6c-0.2,0.2-0.4,0.3-0.6,0.4c-5.2-8.5-10.7-14.5-15.6-18.7
			c0-4.8-2.3-8.9-5.6-10.3c-2,0.3-3.8,1.4-5.3,3.1c-1-0.5-2.1-0.9-3.3-1.3c-6-2-11.7-2.1-16.4-1.6c0.4-1.4,1-2.8,1.8-4.1
			c6.1-10.3,19.9-10.8,22.4-10.9c8.5-0.1,14.6,3.6,16.4,4.7c2.8,1.8,10.3,6.4,12,14.8C424.5,267.4,423.8,270.7,422.5,277.4z"/>
		<path fill="#4B5D54" d="M405.5,272.4c-0.9,6.6-5.6,11.3-10.5,10.7c-0.6-0.1-1.2-0.3-1.8-0.5c4.2-0.6,7.9-5,8.7-10.7
			c0.8-5.7-1.6-10.9-5.5-12.6c0.6-0.1,1.3-0.1,1.9,0C403.1,260,406.4,265.9,405.5,272.4z"/>
		<path fill="#4B5D54" d="M419.9,277.6c-0.6,4-3.5,7-6.5,6.6c-0.4-0.1-0.8-0.2-1.1-0.3c-2.4-1-3.8-4.2-3.4-7.8
			c0.5-3.5,2.7-6.2,5.3-6.6c0.4-0.1,0.8-0.1,1.2,0C418.4,270,420.4,273.6,419.9,277.6z"/>
		<path fill="#2C3A3B" d="M417.6,277.3c-0.5,3.5-2.7,6.2-5.3,6.6c-2.4-1-3.8-4.2-3.4-7.8c0.5-3.5,2.7-6.2,5.3-6.6
			C416.6,270.6,418,273.8,417.6,277.3z"/>
		<path fill="#4B5D54" d="M405.1,287.1c-0.1,0.6-1,1-2.1,0.9c-0.1,0-0.3,0-0.4-0.1c-0.9-0.2-1.5-0.8-1.4-1.3
			c0.1-0.6,0.8-0.9,1.7-0.9c0.1,0,0.3,0,0.4,0C404.3,285.8,405.2,286.4,405.1,287.1z"/>
		<path fill="#2C3A3B" d="M404.2,287c-0.1,0.6-0.8,0.9-1.7,0.9c-0.9-0.2-1.5-0.8-1.4-1.3c0.1-0.6,0.8-0.9,1.7-0.9
			C403.7,285.8,404.3,286.4,404.2,287z"/>
		<path fill="#4B5D54" d="M408.9,287.3c-0.1,0.5-0.8,0.8-1.6,0.7c-0.1,0-0.2,0-0.3-0.1c-0.7-0.2-1.1-0.6-1.1-1
			c0.1-0.4,0.6-0.7,1.3-0.7c0.1,0,0.2,0,0.3,0C408.3,286.3,408.9,286.8,408.9,287.3z"/>
		<path fill="#2C3A3B" d="M408.2,287.2c-0.1,0.4-0.6,0.7-1.3,0.7c-0.7-0.2-1.1-0.6-1.1-1c0.1-0.4,0.6-0.7,1.3-0.7
			C407.8,286.4,408.3,286.8,408.2,287.2z"/>
		<path fill="#4B5D54" d="M403.6,294.2c-0.2,1.2-2,2-4.1,1.7c-0.3,0-0.5-0.1-0.8-0.2c-1.7-0.4-2.8-1.5-2.7-2.6
			c0.1-1.1,1.5-1.8,3.3-1.8c0.3,0,0.5,0,0.8,0.1C402.2,291.8,403.7,293,403.6,294.2z"/>
		<path fill="#2C3A3B" d="M402,294c-0.1,1.1-1.5,1.8-3.3,1.8c-1.7-0.4-2.8-1.5-2.7-2.6c0.1-1.1,1.5-1.8,3.3-1.8
			C401,291.9,402.1,293,402,294z"/>
		<path fill="#AEC1B5" d="M378.8,259.3c-0.5,0.7-1.2,1.7-1.7,3.1c-0.9,2.4-0.6,4.6-0.5,5.7c0.3-1.2,0.9-3,2.4-4.9
			c1.9-2.6,4.3-3.8,5.5-4.3C382.7,259,380.7,259.2,378.8,259.3z"/>
		<path fill="#AEC1B5" d="M407.2,274.3c-0.2,0.9-0.6,2-1.1,3.2c-0.8,1.6-1.7,2.8-2.5,3.6c0.8-0.4,2-1.1,3.2-2.5
			c1-1.2,1.5-2.3,1.8-3.1C408.2,275.1,407.7,274.7,407.2,274.3z"/>
		<polygon fill="#4B5D54" points="382,293.5 381.9,291.4 383.8,288.6 385.6,287.3 		"/>
		<path fill="#2C3A3B" d="M397.7,251.9c0,0.1,0.1,0.3,0.2,0.3c0.8,0.9,3,0.4,3,0.1C400.9,252,397.9,251.5,397.7,251.9z"/>
		<path fill="#A07442" d="M399.9,252.8c-0.6,0.1-1.2,0-1.7-0.2l0.2-1.3l4.5-26.7c-0.9,9-1.9,18-2.8,26.9
			C400,251.9,399.9,252.3,399.9,252.8z"/>
	</g>
	<g>
		<path fill="#BF9958" d="M820.6,396.8c-0.4,1.7,2,3.6,3.3,4.6c13.4,10.4,41.4-2.4,40.8-6.4C863.9,390.2,822,390.1,820.6,396.8z"/>
		<path fill="#2C3A3B" d="M832.4,278.7c-0.8-4.4-3.6-7.8-6.9-8.6c-1.8,0.6-3.3,1.9-4.4,3.7c-1.2,2-1.9,4.7-1.8,7.6
			c0.2,5.4,3.3,9.8,7.1,10.7c3.8-1.2,6.4-5.9,6.2-11.3C832.6,280.1,832.6,279.4,832.4,278.7z"/>
		<path fill="#A07442" d="M827.7,396.4c0.1,0.2,2.1,2.7,5.3,2.4c2.9-0.3,4.3-2.5,4.5-2.8c-3.9-53-7.8-106-11.7-159.1L827.7,396.4z"
			/>
		<path fill="#B08E58" d="M865.6,384.3"/>
		<path fill="#94A89A" d="M851.8,270c-3-7.5-10.7-10.5-13.6-11.7c-1.9-0.8-8.2-3.2-16-1.6c-2.2,0.4-14.9,3.2-18.8,13.8
			c-0.5,1.4-0.8,2.7-1,4.1c-0.9,7.8,3.8,15.2,7.2,20.5c0.7,1.1,2.5,3.7,5.4,6.5c0.2,0.2,0.5,0.4,0.7,0.7l4.5-4.5L818,304
			c0.8,0.6,1.7,1.2,2.6,1.8c3,1.9,6.3,3.8,10,3c2.9-0.7,5.2-2.8,5.7-3.3c1-1,1.1-1.3,2.8-3.4c1.4-1.7,3-3.7,4.8-5.2
			c3.1-2.6,4.4-2,6.1-3.5c0.2-0.1,0.3-0.3,0.5-0.4c0.5-0.6,2.1-2.4,2.3-10.6C852.9,276,852.9,272.9,851.8,270z M826.5,292.1
			c-3.9-0.9-6.9-5.3-7.1-10.7c-0.2-5.4,2.4-10.1,6.2-11.3c3.9,0.9,6.9,5.3,7.1,10.7C832.9,286.3,830.2,290.9,826.5,292.1z"/>
		<path fill="#AEC1B5" d="M852.7,282.4c-0.2,8.2-1.7,10-2.3,10.6c-0.2,0.2-0.3,0.3-0.5,0.4c-6.2-7-12.3-11.6-17.5-14.7
			c-0.8-4.4-3.6-7.8-6.9-8.6c-1.8,0.6-3.3,1.9-4.4,3.7c-1-0.3-2.1-0.5-3.3-0.6c-5.9-0.9-11.2,0-15.4,1.3c0.1-1.3,0.4-2.7,1-4.1
			c3.9-10.5,16.6-13.3,18.8-13.8c7.8-1.5,14,0.8,16,1.6c2.9,1.2,10.6,4.2,13.6,11.7C852.9,272.9,852.9,276,852.7,282.4z"/>
		<path fill="#4B5D54" d="M836.2,280.7c0.3,6.2-3.3,11.4-8,11.6c-0.6,0-1.2,0-1.8-0.2c3.8-1.2,6.4-5.9,6.2-11.3
			c-0.2-5.4-3.3-9.8-7.1-10.7c0.6-0.2,1.1-0.3,1.7-0.3C831.9,269.6,835.9,274.5,836.2,280.7z"/>
		<path fill="#4B5D54" d="M850.3,283.1c0.2,3.8-2,7-4.9,7.2c-0.4,0-0.7,0-1.1-0.1c-2.4-0.6-4.3-3.3-4.4-6.6c-0.1-3.3,1.5-6.2,3.8-7
			c0.3-0.1,0.7-0.2,1.1-0.2C847.7,276.2,850.2,279.2,850.3,283.1z"/>
		<path fill="#2C3A3B" d="M848.2,283.2c0.1,3.3-1.5,6.2-3.8,7c-2.4-0.6-4.3-3.3-4.4-6.6c-0.1-3.3,1.5-6.2,3.8-7
			C846.1,277.1,848,279.8,848.2,283.2z"/>
		<path fill="#4B5D54" d="M838.3,294.3c0,0.6-0.8,1.1-1.8,1.2c-0.1,0-0.3,0-0.4,0c-0.8-0.1-1.5-0.5-1.5-1c0-0.5,0.6-1,1.4-1.1
			c0.1,0,0.3,0,0.4,0C837.4,293.2,838.2,293.7,838.3,294.3z"/>
		<path fill="#2C3A3B" d="M837.5,294.3c0,0.5-0.6,1-1.4,1.1c-0.8-0.1-1.5-0.5-1.5-1c0-0.5,0.6-1,1.4-1.1
			C836.8,293.4,837.5,293.8,837.5,294.3z"/>
		<path fill="#4B5D54" d="M841.8,293.8c0,0.5-0.6,0.9-1.4,0.9c-0.1,0-0.2,0-0.3,0c-0.6-0.1-1.1-0.4-1.2-0.8c0-0.4,0.4-0.8,1.1-0.9
			c0.1,0,0.2,0,0.3,0C841.1,293,841.8,293.4,841.8,293.8z"/>
		<path fill="#2C3A3B" d="M841.2,293.9c0,0.4-0.4,0.8-1.1,0.9c-0.6-0.1-1.1-0.4-1.2-0.8c0-0.4,0.4-0.8,1.1-0.9
			C840.7,293.2,841.2,293.5,841.2,293.9z"/>
		<path fill="#4B5D54" d="M838.1,301.1c0,1.2-1.5,2.2-3.5,2.2c-0.3,0-0.5,0-0.7,0c-1.6-0.1-2.9-0.9-2.9-1.9c0-1,1.1-1.9,2.7-2.2
			c0.2,0,0.5-0.1,0.7-0.1C836.4,299.1,838,300,838.1,301.1z"/>
		<path fill="#2C3A3B" d="M836.6,301.2c0,1-1.1,1.9-2.7,2.2c-1.6-0.1-2.9-0.9-2.9-1.9c0-1,1.1-1.9,2.7-2.2
			C835.3,299.4,836.5,300.2,836.6,301.2z"/>
		<path fill="#AEC1B5" d="M809.4,273.1c-0.4,0.7-0.8,1.8-1,3.1c-0.4,2.4,0.2,4.3,0.5,5.3c0.1-1.1,0.3-3,1.3-4.9
			c1.4-2.7,3.3-4.2,4.4-4.9C812.9,272.1,811.1,272.6,809.4,273.1z"/>
		<path fill="#AEC1B5" d="M838.1,282.1c0,0.9-0.2,1.9-0.5,3.2c-0.5,1.6-1.1,2.9-1.7,3.7c0.7-0.5,1.7-1.4,2.5-2.8
			c0.7-1.2,1-2.4,1.1-3.2C839.1,282.7,838.6,282.4,838.1,282.1z"/>
		<polygon fill="#4B5D54" points="818,304 817.6,302.2 818.9,299.2 820.4,297.7 		"/>
		<path fill="#2C3A3B" d="M825.6,263.1c0,0.1,0.1,0.2,0.2,0.3c0.9,0.7,2.9-0.2,2.8-0.4C828.6,262.6,825.7,262.6,825.6,263.1z"/>
		<path fill="#A07442" d="M827.7,263.4c-0.6,0.2-1.1,0.2-1.6,0.1l0-1.2l-0.3-25.4c0.6,8.4,1.2,16.9,1.9,25.3
			C827.7,262.6,827.7,263,827.7,263.4z"/>
	</g>
	<g>
		<path fill="#BF9958" d="M195.6,395.3c-0.3,1.6,5.2,3.9,8.6,4.7c10.1,2.4,20.2-3.4,19.8-5.6C223.4,391.1,196.2,391.7,195.6,395.3z"
			/>
		<path fill="#788283" d="M216.9,394.8c-0.1,0.1-0.3,0.3-0.6,0.5c-0.8,0.6-2.2,1.5-4.1,2.1c-1.6,0.5-3.4,0.8-5.5,0.6
			c-4-0.4-6.6-2.4-7.7-3.2c-3.4-3.9-5.1-8-5.4-11.3c-0.2-2.3,0.3-4.1,1.4-5.3c0,0,0,0,0,0c2.7-2.7,8.5-1.1,11.6,0.4
			C215.3,382.8,216.7,393.5,216.9,394.8z"/>
		<path fill="#7F8E95" d="M216.9,394.8c-0.1,0.1-0.3,0.3-0.6,0.5c-0.8,0.6-2.2,1.5-4.1,2.1c-1.8-2.3-4.1-4.8-7.1-7.3
			c-4.1-3.3-8.1-5.3-11.4-6.6c-0.2-2.3,0.3-4.1,1.4-5.3c0,0,0,0,0,0c2.7-2.7,8.5-1.1,11.6,0.4C215.3,382.8,216.7,393.5,216.9,394.8z
			"/>
		<path fill="#A5B295" d="M216.9,394.8c-0.1,0.1-0.3,0.3-0.6,0.5c-2.4-3.6-6-7.9-11.2-11.6c-3.5-2.5-7-4.3-10-5.4
			c2.7-2.7,8.5-1.1,11.6,0.4C215.3,382.8,216.7,393.5,216.9,394.8z"/>
	</g>
	<g>
		<path fill="#BF9958" d="M70.8,389.3c-0.3,1.6,5.2,3.9,8.6,4.7c10.1,2.4,20.2-3.4,19.8-5.6C98.6,385.1,71.4,385.7,70.8,389.3z"/>
		<path fill="#788283" d="M92.1,388.8c-0.1,0.1-0.3,0.3-0.6,0.5c-0.8,0.6-2.2,1.5-4.1,2.1c-1.6,0.5-3.4,0.8-5.5,0.6
			c-4-0.4-6.6-2.4-7.7-3.2c-3.4-3.9-5.1-8-5.4-11.3c-0.2-2.3,0.3-4.1,1.4-5.3c0,0,0,0,0,0c2.7-2.7,8.5-1.1,11.6,0.4
			C90.5,376.8,92,387.4,92.1,388.8z"/>
		<path fill="#7F8E95" d="M92.1,388.8c-0.1,0.1-0.3,0.3-0.6,0.5c-0.8,0.6-2.2,1.5-4.1,2.1c-1.8-2.3-4.1-4.8-7.1-7.3
			c-4.1-3.3-8.1-5.3-11.4-6.6c-0.2-2.3,0.3-4.1,1.4-5.3c0,0,0,0,0,0c2.7-2.7,8.5-1.1,11.6,0.4C90.5,376.8,92,387.4,92.1,388.8z"/>
		<path fill="#A5B295" d="M92.1,388.8c-0.1,0.1-0.3,0.3-0.6,0.5c-2.4-3.6-6-7.9-11.2-11.6c-3.5-2.5-7-4.3-10-5.4
			c2.7-2.7,8.5-1.1,11.6,0.4C90.5,376.8,92,387.4,92.1,388.8z"/>
	</g>
	<g>
		<path fill="#BF9958" d="M424.3,362.1c-0.2,1.3,4,3,6.6,3.6c7.7,1.8,15.5-2.6,15.2-4.3C445.6,358.9,424.7,359.4,424.3,362.1z"/>
		<path fill="#788283" d="M440.6,361.8c-0.1,0.1-0.3,0.2-0.5,0.4c-0.6,0.5-1.7,1.1-3.1,1.6c-1.2,0.4-2.6,0.6-4.2,0.5
			c-3.1-0.3-5.1-1.8-5.9-2.5c-2.6-3-3.9-6.1-4.1-8.6c-0.2-1.7,0.2-3.2,1.1-4c0,0,0,0,0,0c2-2.1,6.6-0.8,8.9,0.3
			C439.4,352.6,440.5,360.7,440.6,361.8z"/>
		<path fill="#7F8E95" d="M440.6,361.8c-0.1,0.1-0.3,0.2-0.5,0.4c-0.6,0.5-1.7,1.1-3.1,1.6c-1.4-1.8-3.2-3.7-5.5-5.6
			c-3.1-2.5-6.2-4.1-8.8-5.1c-0.2-1.7,0.2-3.2,1.1-4c0,0,0,0,0,0c2-2.1,6.6-0.8,8.9,0.3C439.4,352.6,440.5,360.7,440.6,361.8z"/>
		<path fill="#A5B295" d="M440.6,361.8c-0.1,0.1-0.3,0.2-0.5,0.4c-1.9-2.8-4.6-6.1-8.6-8.9c-2.7-2-5.4-3.3-7.7-4.2
			c2-2.1,6.6-0.8,8.9,0.3C439.4,352.6,440.5,360.7,440.6,361.8z"/>
	</g>
	<g>
		<path fill="#BF9958" d="M971.9,399.4c-0.2,1.3,4,3,6.6,3.6c7.7,1.8,15.5-2.6,15.2-4.3C993.3,396.2,972.4,396.7,971.9,399.4z"/>
		<path fill="#788283" d="M988.3,399.1c-0.1,0.1-0.3,0.2-0.5,0.4c-0.6,0.5-1.7,1.1-3.1,1.6c-1.2,0.4-2.6,0.6-4.2,0.5
			c-3.1-0.3-5.1-1.8-5.9-2.5c-2.6-3-3.9-6.1-4.1-8.6c-0.2-1.7,0.2-3.2,1.1-4c0,0,0,0,0,0c2-2.1,6.6-0.8,8.9,0.3
			C987,389.9,988.1,398,988.3,399.1z"/>
		<path fill="#7F8E95" d="M988.3,399.1c-0.1,0.1-0.3,0.2-0.5,0.4c-0.6,0.5-1.7,1.1-3.1,1.6c-1.4-1.8-3.2-3.7-5.5-5.6
			c-3.1-2.5-6.2-4.1-8.8-5.1c-0.2-1.7,0.2-3.2,1.1-4c0,0,0,0,0,0c2-2.1,6.6-0.8,8.9,0.3C987,389.9,988.1,398,988.3,399.1z"/>
		<path fill="#A5B295" d="M988.3,399.1c-0.1,0.1-0.3,0.2-0.5,0.4c-1.9-2.8-4.6-6.1-8.6-8.9c-2.7-2-5.4-3.3-7.7-4.2
			c2-2.1,6.6-0.8,8.9,0.3C987,389.9,988.1,398,988.3,399.1z"/>
	</g>
	<g>
		<path fill="#BF9958" d="M598.8,400.4c-0.2,1.3,4,3,6.6,3.6c7.7,1.8,15.5-2.6,15.2-4.3C620.2,397.2,599.3,397.7,598.8,400.4z"/>
		<path fill="#788283" d="M615.2,400c-0.1,0.1-0.3,0.2-0.5,0.4c-0.6,0.5-1.7,1.1-3.1,1.6c-1.2,0.4-2.6,0.6-4.2,0.5
			c-3.1-0.3-5.1-1.8-5.9-2.5c-2.6-3-3.9-6.1-4.1-8.6c-0.2-1.7,0.2-3.2,1.1-4c0,0,0,0,0,0c2-2.1,6.6-0.8,8.9,0.3
			C613.9,390.8,615.1,399,615.2,400z"/>
		<path fill="#7F8E95" d="M615.2,400c-0.1,0.1-0.3,0.2-0.5,0.4c-0.6,0.5-1.7,1.1-3.1,1.6c-1.4-1.8-3.2-3.7-5.5-5.6
			c-3.1-2.5-6.2-4.1-8.8-5.1c-0.2-1.7,0.2-3.2,1.1-4c0,0,0,0,0,0c2-2.1,6.6-0.8,8.9,0.3C613.9,390.8,615.1,399,615.2,400z"/>
		<path fill="#A5B295" d="M615.2,400c-0.1,0.1-0.3,0.2-0.5,0.4c-1.9-2.8-4.6-6.1-8.6-8.9c-2.7-2-5.4-3.3-7.7-4.2
			c2-2.1,6.6-0.8,8.9,0.3C613.9,390.8,615.1,399,615.2,400z"/>
	</g>
	<g>
		<path fill="#BF9958" d="M64.5,393.5c-0.1,0.6,1.4,1.3,2.6,1.9c9.2,4.4,21.2-0.2,21-1.9C87.8,391.3,64.9,391.2,64.5,393.5z"/>
		<g>
			<path fill="#7BB23C" d="M83.4,393.7c-0.2,0.1-0.3,0.2-0.5,0.3c-0.6,0.3-1.7,0.8-3.1,1.2c-0.4,0.1-0.8,0.2-1.3,0.3
				c-0.7,0.1-1.5,0.2-2.3,0.2c-1.4,0-2.7-0.2-3.8-0.6c-1.2-0.3-2.1-0.8-2.6-1.1c-1.9,0.2-3.2-0.8-3.3-1.6c0-0.7,0.8-1.4,1.9-1.8
				c-3.9-0.4-6.5-3.5-6.4-6.4c0.1-2.2,1.8-4.1,3.7-4.7c3-1,7.1,1.2,8.8,5.6c-0.6-1.6,0.1-3.3,1.3-4c1.3-0.7,2.9,0,3.7,0.7
				c1.3,1.3,1.5,3.6,0.2,5.6c0.2-0.3,1-1.3,2.2-1.5c1.7-0.2,3.3,1.3,3.7,2.7C86.3,390.3,85.4,392.5,83.4,393.7z"/>
			<path fill="#669846" d="M83.4,393.7c-0.2,0.1-0.3,0.2-0.5,0.3c-0.6,0.3-1.7,0.8-3.1,1.2c-0.1-1-0.4-2.2-0.9-3.4
				c-1.2-2.8-3.2-4.3-4.2-5c1.2,0.3,3.4,1.1,5.5,3C81.8,391.1,82.8,392.6,83.4,393.7z"/>
			<path fill="#669846" d="M78.5,395.4c-0.7,0.1-1.5,0.2-2.3,0.2c-1.4,0-2.7-0.2-3.8-0.6c0.2-0.6,0.4-1.4,0.4-2.3
				c0-2.6-1.6-4.3-2-4.7c1,0.4,2.6,1.1,4.1,2.4C77,392.1,78,394.1,78.5,395.4z"/>
		</g>
	</g>
	<g>
		<path fill="#BF9958" d="M149.9,384.5c-0.1,0.6,1.4,1.3,2.6,1.9c9.2,4.4,21.2-0.2,21-1.9C173.2,382.2,150.3,382.1,149.9,384.5z"/>
		<g>
			<path fill="#7BB23C" d="M168.8,384.6c-0.2,0.1-0.3,0.2-0.5,0.3c-0.6,0.3-1.7,0.8-3.1,1.2c-0.4,0.1-0.8,0.2-1.3,0.3
				c-0.7,0.1-1.5,0.2-2.3,0.2c-1.4,0-2.7-0.2-3.8-0.6c-1.2-0.3-2.1-0.8-2.6-1.1c-1.9,0.2-3.2-0.8-3.3-1.6c0-0.7,0.8-1.4,1.9-1.8
				c-3.9-0.4-6.5-3.5-6.4-6.4c0.1-2.2,1.8-4.1,3.7-4.7c3-1,7.1,1.2,8.8,5.6c-0.6-1.6,0.1-3.3,1.3-4c1.3-0.7,2.9,0,3.7,0.7
				c1.3,1.3,1.5,3.6,0.2,5.6c0.2-0.3,1-1.3,2.2-1.5c1.7-0.2,3.3,1.3,3.7,2.7C171.7,381.3,170.8,383.4,168.8,384.6z"/>
			<path fill="#669846" d="M168.8,384.6c-0.2,0.1-0.3,0.2-0.5,0.3c-0.6,0.3-1.7,0.8-3.1,1.2c-0.1-1-0.4-2.2-0.9-3.4
				c-1.2-2.8-3.2-4.3-4.2-5c1.2,0.3,3.4,1.1,5.5,3C167.2,382,168.2,383.5,168.8,384.6z"/>
			<path fill="#669846" d="M163.9,386.4c-0.7,0.1-1.5,0.2-2.3,0.2c-1.4,0-2.7-0.2-3.8-0.6c0.2-0.6,0.4-1.4,0.4-2.3
				c0-2.6-1.6-4.3-2-4.7c1,0.4,2.6,1.1,4.1,2.4C162.4,383.1,163.4,385.1,163.9,386.4z"/>
		</g>
	</g>
	<g>
		<path fill="#BF9958" d="M207.4,399.8c-0.1,0.6,1.4,1.3,2.6,1.9c9.2,4.4,21.2-0.2,21-1.9C230.7,397.6,207.8,397.5,207.4,399.8z"/>
		<g>
			<path fill="#7BB23C" d="M226.3,400c-0.2,0.1-0.3,0.2-0.5,0.3c-0.6,0.3-1.7,0.8-3.1,1.2c-0.4,0.1-0.8,0.2-1.3,0.3
				c-0.7,0.1-1.5,0.2-2.3,0.2c-1.4,0-2.7-0.2-3.8-0.6c-1.2-0.3-2.1-0.8-2.6-1.1c-1.9,0.2-3.2-0.8-3.3-1.6c0-0.7,0.8-1.4,1.9-1.8
				c-3.9-0.4-6.5-3.5-6.4-6.4c0.1-2.2,1.8-4.1,3.7-4.7c3-1,7.1,1.2,8.8,5.6c-0.6-1.6,0.1-3.3,1.3-4c1.3-0.7,2.9,0,3.7,0.7
				c1.3,1.3,1.5,3.6,0.2,5.6c0.2-0.3,1-1.3,2.2-1.5c1.7-0.2,3.3,1.3,3.7,2.7C229.2,396.7,228.3,398.8,226.3,400z"/>
			<path fill="#669846" d="M226.3,400c-0.2,0.1-0.3,0.2-0.5,0.3c-0.6,0.3-1.7,0.8-3.1,1.2c-0.1-1-0.4-2.2-0.9-3.4
				c-1.2-2.8-3.2-4.3-4.2-5c1.2,0.3,3.4,1.1,5.5,3C224.7,397.4,225.7,398.9,226.3,400z"/>
			<path fill="#669846" d="M221.4,401.7c-0.7,0.1-1.5,0.2-2.3,0.2c-1.4,0-2.7-0.2-3.8-0.6c0.2-0.6,0.4-1.4,0.4-2.3
				c0-2.6-1.6-4.3-2-4.7c1,0.4,2.6,1.1,4.1,2.4C219.9,398.4,220.9,400.4,221.4,401.7z"/>
		</g>
	</g>
	<g>
		<path fill="#BF9958" d="M423.7,367.4c-0.1,0.6,1.4,1.3,2.6,1.9c9.2,4.4,21.2-0.2,21-1.9C447.1,365.2,424.1,365.1,423.7,367.4z"/>
		<g>
			<path fill="#7BB23C" d="M442.6,367.6c-0.2,0.1-0.3,0.2-0.5,0.3c-0.6,0.3-1.7,0.8-3.1,1.2c-0.4,0.1-0.8,0.2-1.3,0.3
				c-0.7,0.1-1.5,0.2-2.3,0.2c-1.4,0-2.7-0.2-3.8-0.6c-1.2-0.3-2.1-0.8-2.6-1.1c-1.9,0.2-3.2-0.8-3.3-1.6c0-0.7,0.8-1.4,1.9-1.8
				c-3.9-0.4-6.5-3.5-6.4-6.4c0.1-2.2,1.8-4.1,3.7-4.7c3-1,7.1,1.2,8.8,5.6c-0.6-1.6,0.1-3.3,1.3-4c1.3-0.7,2.9,0,3.7,0.7
				c1.3,1.3,1.5,3.6,0.2,5.6c0.2-0.3,1-1.3,2.2-1.5c1.7-0.2,3.3,1.3,3.7,2.7C445.5,364.3,444.6,366.4,442.6,367.6z"/>
			<path fill="#669846" d="M442.6,367.6c-0.2,0.1-0.3,0.2-0.5,0.3c-0.6,0.3-1.7,0.8-3.1,1.2c-0.1-1-0.4-2.2-0.9-3.4
				c-1.2-2.8-3.2-4.3-4.2-5c1.2,0.3,3.4,1.1,5.5,3C441,365,442,366.5,442.6,367.6z"/>
			<path fill="#669846" d="M437.7,369.3c-0.7,0.1-1.5,0.2-2.3,0.2c-1.4,0-2.7-0.2-3.8-0.6c0.2-0.6,0.4-1.4,0.4-2.3
				c0-2.6-1.6-4.3-2-4.7c1,0.4,2.6,1.1,4.1,2.4C436.2,366,437.2,368,437.7,369.3z"/>
		</g>
	</g>
	<g>
		<path fill="#BF9958" d="M827.6,399.7c-0.1,0.6,1.4,1.3,2.6,1.9c9.2,4.4,21.2-0.2,21-1.9C851,397.4,828,397.3,827.6,399.7z"/>
		<g>
			<path fill="#7BB23C" d="M846.5,399.8c-0.2,0.1-0.3,0.2-0.5,0.3c-0.6,0.3-1.7,0.8-3.1,1.2c-0.4,0.1-0.8,0.2-1.3,0.3
				c-0.7,0.1-1.5,0.2-2.3,0.2c-1.4,0-2.7-0.2-3.8-0.6c-1.2-0.3-2.1-0.8-2.6-1.1c-1.9,0.2-3.2-0.8-3.3-1.6c0-0.7,0.8-1.4,1.9-1.8
				c-3.9-0.4-6.5-3.5-6.4-6.4c0.1-2.2,1.8-4.1,3.7-4.7c3-1,7.1,1.2,8.8,5.6c-0.6-1.6,0.1-3.3,1.3-4c1.3-0.7,2.9,0,3.7,0.7
				c1.3,1.3,1.5,3.6,0.2,5.6c0.2-0.3,1-1.3,2.2-1.5c1.7-0.2,3.3,1.3,3.7,2.7C849.4,396.5,848.5,398.6,846.5,399.8z"/>
			<path fill="#669846" d="M846.5,399.8c-0.2,0.1-0.3,0.2-0.5,0.3c-0.6,0.3-1.7,0.8-3.1,1.2c-0.1-1-0.4-2.2-0.9-3.4
				c-1.2-2.8-3.2-4.3-4.2-5c1.2,0.3,3.4,1.1,5.5,3C844.9,397.2,845.9,398.7,846.5,399.8z"/>
			<path fill="#669846" d="M841.6,401.6c-0.7,0.1-1.5,0.2-2.3,0.2c-1.4,0-2.7-0.2-3.8-0.6c0.2-0.6,0.4-1.4,0.4-2.3
				c0-2.6-1.6-4.3-2-4.7c1,0.4,2.6,1.1,4.1,2.4C840.1,398.2,841.1,400.2,841.6,401.6z"/>
		</g>
	</g>
	<path fill="#669846" d="M516.5,383.9c-1.7-0.4-3.1,0.2-3.5,0.4c0,0.9-0.1,2.1-0.6,3.5c-1.2,3.2-3.6,5-4.7,5.6
		c1.9-2.6,4.4-6.8,5.6-12.7c0.7-3.5,0.7-6.5,0.5-8.9c-0.6-0.2-3.2-0.7-5.9,0.8c-2.6,1.4-3.6,3.6-3.9,4.3c1,1.1,2.1,2.7,3,4.9
		c1.4,3.6,1.3,7,0.9,9.4c-0.1-1-0.5-2.3-1.2-3.6c-0.6-1.1-1.2-1.9-1.8-2.4c-0.2,0.1-1,0.5-1.4,1.5c-0.4,0.9-0.2,1.7-0.1,2
		c0.5,0.1,1.2,0.3,1.9,0.6c1.4,0.8,2.1,1.9,2.5,2.7c-0.2,0.9-0.4,1.7-0.6,2.2c0.1-0.2,0.3-0.3,0.4-0.5c1.9-0.4,5-1.3,8-3.6
		c1.7-1.3,3-2.7,3.8-3.9C519.3,385.6,518.3,384.3,516.5,383.9z"/>
	<path fill="#669846" d="M388.7,388.7c-1.7-0.4-3.1,0.2-3.5,0.4c0,0.9-0.1,2.1-0.6,3.5c-1.2,3.2-3.6,5-4.7,5.6
		c1.9-2.6,4.4-6.8,5.6-12.7c0.7-3.5,0.7-6.5,0.5-8.9c-0.6-0.2-3.2-0.7-5.9,0.8c-2.6,1.4-3.6,3.6-3.9,4.3c1,1.1,2.1,2.7,3,4.9
		c1.4,3.6,1.3,7,0.9,9.4c-0.1-1-0.5-2.3-1.2-3.6c-0.6-1.1-1.2-1.9-1.8-2.4c-0.2,0.1-1,0.5-1.4,1.5c-0.4,0.9-0.2,1.7-0.1,2
		c0.5,0.1,1.2,0.3,1.9,0.6c1.4,0.8,2.1,1.9,2.5,2.7c-0.2,0.9-0.4,1.7-0.6,2.2c0.1-0.2,0.3-0.3,0.4-0.5c1.9-0.4,5-1.3,8-3.6
		c1.7-1.3,3-2.7,3.8-3.9C391.4,390.4,390.5,389.1,388.7,388.7z"/>
	<path fill="#669846" d="M408,242.8c-1.7-0.4-3.1,0.2-3.5,0.4c0,0.9-0.1,2.1-0.6,3.5c-1.2,3.2-3.6,5-4.7,5.6
		c1.9-2.6,4.4-6.8,5.6-12.7c0.7-3.5,0.7-6.5,0.5-8.9c-0.6-0.2-3.2-0.7-5.9,0.8c-2.6,1.4-3.6,3.6-3.9,4.3c1,1.1,2.1,2.7,3,4.9
		c1.4,3.6,1.3,7,0.9,9.4c-0.1-1-0.5-2.3-1.2-3.6c-0.6-1.1-1.2-1.9-1.8-2.4c-0.2,0.1-1,0.5-1.4,1.5c-0.4,0.9-0.2,1.7-0.1,2
		c0.5,0.1,1.2,0.3,1.9,0.6c1.4,0.8,2.1,1.9,2.5,2.7c-0.2,0.9-0.4,1.7-0.6,2.2c0.1-0.2,0.3-0.3,0.4-0.5c1.9-0.4,5-1.3,8-3.6
		c1.7-1.3,3-2.7,3.8-3.9C410.7,244.5,409.8,243.2,408,242.8z"/>
	<path fill="#669846" d="M176.4,377.5c-1.7-0.4-3.1,0.2-3.5,0.4c0,0.9-0.1,2.1-0.6,3.5c-1.2,3.2-3.6,5-4.7,5.6
		c1.9-2.6,4.4-6.8,5.6-12.7c0.7-3.5,0.7-6.5,0.5-8.9c-0.6-0.2-3.2-0.7-5.9,0.8c-2.6,1.4-3.6,3.6-3.9,4.3c1,1.1,2.1,2.7,3,4.9
		c1.4,3.6,1.3,7,0.9,9.4c-0.1-1-0.5-2.3-1.2-3.6c-0.6-1.1-1.2-1.9-1.8-2.4c-0.2,0.1-1,0.5-1.4,1.5c-0.4,0.9-0.2,1.7-0.1,2
		c0.5,0.1,1.2,0.3,1.9,0.6c1.4,0.8,2.1,1.9,2.5,2.7c-0.2,0.9-0.4,1.7-0.6,2.2c0.1-0.2,0.3-0.3,0.4-0.5c1.9-0.4,5-1.3,8-3.6
		c1.7-1.3,3-2.7,3.8-3.9C179.2,379.2,178.2,377.9,176.4,377.5z"/>
	<path fill="#669846" d="M46.2,393.4c-1.7-0.4-3.1,0.2-3.5,0.4c0,0.9-0.1,2.1-0.6,3.5c-1.2,3.2-3.6,5-4.7,5.6
		c1.9-2.6,4.4-6.8,5.6-12.7c0.7-3.5,0.7-6.5,0.5-8.9c-0.6-0.2-3.2-0.7-5.9,0.8c-2.6,1.4-3.6,3.6-3.9,4.3c1,1.1,2.1,2.7,3,4.9
		c1.4,3.6,1.3,7,0.9,9.4c-0.1-1-0.5-2.3-1.2-3.6c-0.6-1.1-1.2-1.9-1.8-2.4c-0.2,0.1-1,0.5-1.4,1.5c-0.4,0.9-0.2,1.7-0.1,2
		c0.5,0.1,1.2,0.3,1.9,0.6c1.4,0.8,2.1,1.9,2.5,2.7c-0.2,0.9-0.4,1.7-0.6,2.2c0.1-0.2,0.3-0.3,0.4-0.5c1.9-0.4,5-1.3,8-3.6
		c1.7-1.3,3-2.7,3.8-3.9C49,395.1,48,393.9,46.2,393.4z"/>
	<path fill="#669846" d="M335.7,357.3c-1.7-0.4-3.1,0.2-3.5,0.4c0,0.9-0.1,2.1-0.6,3.5c-1.2,3.2-3.6,5-4.7,5.6
		c1.9-2.6,4.4-6.8,5.6-12.7c0.7-3.5,0.7-6.5,0.5-8.9c-0.6-0.2-3.2-0.7-5.9,0.8c-2.6,1.4-3.6,3.6-3.9,4.3c1,1.1,2.1,2.7,3,4.9
		c1.4,3.6,1.3,7,0.9,9.4c-0.1-1-0.5-2.3-1.2-3.6c-0.6-1.1-1.2-1.9-1.8-2.4c-0.2,0.1-1,0.5-1.4,1.5c-0.4,0.9-0.2,1.7-0.1,2
		c0.5,0.1,1.2,0.3,1.9,0.6c1.4,0.8,2.1,1.9,2.5,2.7c-0.2,0.9-0.4,1.7-0.6,2.2c0.1-0.2,0.3-0.3,0.4-0.5c1.9-0.4,5-1.3,8-3.6
		c1.7-1.3,3-2.7,3.8-3.9C338.4,359,337.5,357.7,335.7,357.3z"/>
	<path fill="#669846" d="M676.3,389.9c-1.7-0.4-3.1,0.2-3.5,0.4c0,0.9-0.1,2.1-0.6,3.5c-1.2,3.2-3.6,5-4.7,5.6
		c1.9-2.6,4.4-6.8,5.6-12.7c0.7-3.5,0.7-6.5,0.5-8.9c-0.6-0.2-3.2-0.7-5.9,0.8c-2.6,1.4-3.6,3.6-3.9,4.3c1,1.1,2.1,2.7,3,4.9
		c1.4,3.6,1.3,7,0.9,9.4c-0.1-1-0.5-2.3-1.2-3.6c-0.6-1.1-1.2-1.9-1.8-2.4c-0.2,0.1-1,0.5-1.4,1.5c-0.4,0.9-0.2,1.7-0.1,2
		c0.5,0.1,1.2,0.3,1.9,0.6c1.4,0.8,2.1,1.9,2.5,2.7c-0.2,0.9-0.4,1.7-0.6,2.2c0.1-0.2,0.3-0.3,0.4-0.5c1.9-0.4,5-1.3,8-3.6
		c1.7-1.3,3-2.7,3.8-3.9C679.1,391.6,678.1,390.3,676.3,389.9z"/>
	<path fill="#669846" d="M924.9,387.9c-1.7-0.4-3.1,0.2-3.5,0.4c0,0.9-0.1,2.1-0.6,3.5c-1.2,3.2-3.6,5-4.7,5.6
		c1.9-2.6,4.4-6.8,5.6-12.7c0.7-3.5,0.7-6.5,0.5-8.9c-0.6-0.2-3.2-0.7-5.9,0.8c-2.6,1.4-3.6,3.6-3.9,4.3c1,1.1,2.1,2.7,3,4.9
		c1.4,3.6,1.3,7,0.9,9.4c-0.1-1-0.5-2.3-1.2-3.6c-0.6-1.1-1.2-1.9-1.8-2.4c-0.2,0.1-1,0.5-1.4,1.5c-0.4,0.9-0.2,1.7-0.1,2
		c0.5,0.1,1.2,0.3,1.9,0.6c1.4,0.8,2.1,1.9,2.5,2.7c-0.2,0.9-0.4,1.7-0.6,2.2c0.1-0.2,0.3-0.3,0.4-0.5c1.9-0.4,5-1.3,8-3.6
		c1.7-1.3,3-2.7,3.8-3.9C927.7,389.6,926.7,388.3,924.9,387.9z"/>
	<path fill="#669846" d="M788.1,397.6c-1.7-0.4-3.1,0.2-3.5,0.4c0,0.9-0.1,2.1-0.6,3.5c-1.2,3.2-3.6,5-4.7,5.6
		c1.9-2.6,4.4-6.8,5.6-12.7c0.7-3.5,0.7-6.5,0.5-8.9c-0.6-0.2-3.2-0.7-5.9,0.8c-2.6,1.4-3.6,3.6-3.9,4.3c1,1.1,2.1,2.7,3,4.9
		c1.4,3.6,1.3,7,0.9,9.4c-0.1-1-0.5-2.3-1.2-3.6c-0.6-1.1-1.2-1.9-1.8-2.4c-0.2,0.1-1,0.5-1.4,1.5c-0.4,0.9-0.2,1.7-0.1,2
		c0.5,0.1,1.2,0.3,1.9,0.6c1.4,0.8,2.1,1.9,2.5,2.7c-0.2,0.9-0.4,1.7-0.6,2.2c0.1-0.2,0.3-0.3,0.4-0.5c1.9-0.4,5-1.3,8-3.6
		c1.7-1.3,3-2.7,3.8-3.9C790.8,399.3,789.9,398,788.1,397.6z"/>
</g>
<g id="_x32_">
	<rect y="431" fill="#CDB564" width="1024" height="81"/>
	<rect y="430" fill="#9FD555" width="1024" height="1"/>
	<rect y="406.8" fill="#8CC250" width="1024" height="23.3"/>
	<g>
		<path fill="#94A89A" d="M402.4,450.1c3.5,5.3,3.4,7.1,3.3,7.7c0,0.2-0.1,0.3-0.1,0.5c-0.4,1.6-1.5,1.8-2.3,4.9
			c-0.5,1.8-0.6,3.8-0.7,5.5c-0.1,2.1,0,2.3-0.2,3.4c-0.1,0.5-0.6,2.9-2.1,4.6c-2,2.2-4.9,2.4-7.6,2.6c-0.8,0-1.6,0.1-2.4,0l-1.4-5
			l-0.8,4.9c-0.3,0-0.5-0.1-0.8-0.1c-3.1-0.5-5.4-1.3-6.3-1.7c-4.5-1.8-10.8-4.4-13.7-9.7c-0.5-0.9-0.9-1.9-1.2-3
			c-2.2-8.4,4.5-15.8,5.7-17.1c4.3-4.5,9.2-5.7,10.8-6.1c2.4-0.6,8.6-2.1,13.8,1.3C398.3,444,399.7,446,402.4,450.1z"/>
		<path fill="#AEC1B5" d="M402.4,450.1c3.5,5.3,3.4,7.1,3.3,7.7c0,0.2-0.1,0.3-0.1,0.5c-10-2.4-17.7-1.8-22.9-0.7
			c-1.9,0.4-4.1,1.1-6.4,2.2c-4.1,2.1-7.1,5-9.2,7.7c-0.5-0.9-0.9-1.9-1.2-3c-2.2-8.4,4.5-15.8,5.7-17.1c4.3-4.5,9.2-5.7,10.8-6.1
			c2.4-0.6,8.6-2.1,13.8,1.3C398.3,444,399.7,446,402.4,450.1z"/>
		<g>
			<path fill="#4B5D54" d="M391.2,456.4c2.9,3.8,3,8.7,0.1,10.9c-0.4,0.3-0.8,0.5-1.2,0.7c-2.9,1.1-6.7-0.3-9.3-3.6
				c-2.6-3.3-2.9-7.4-1.1-9.9c0.3-0.4,0.6-0.7,1-1C383.6,451.3,388.3,452.6,391.2,456.4z"/>
			<path fill="#2C3A3B" d="M389,458.1c2.6,3.3,2.9,7.4,1.1,9.9c-2.9,1.1-6.7-0.3-9.3-3.6c-2.6-3.3-2.9-7.4-1.1-9.9
				C382.6,453.3,386.5,454.8,389,458.1z"/>
		</g>
		<g>
			<path fill="#4B5D54" d="M401.2,451.6c1.8,2.3,1.8,5.3,0.1,6.7c-0.2,0.2-0.5,0.3-0.7,0.4c-1.8,0.7-4.2-0.2-5.7-2.2
				c-1.6-2-1.8-4.6-0.7-6.1c0.2-0.2,0.4-0.4,0.6-0.6C396.5,448.5,399.4,449.3,401.2,451.6z"/>
			<path fill="#2C3A3B" d="M399.9,452.6c1.6,2,1.8,4.6,0.7,6.1c-1.8,0.7-4.2-0.2-5.7-2.2c-1.6-2-1.8-4.6-0.7-6.1
				C395.9,449.7,398.3,450.6,399.9,452.6z"/>
		</g>
		<g>
			<path fill="#4B5D54" d="M398.6,464.1c0.3,0.4,0,1.1-0.6,1.6c-0.1,0.1-0.2,0.1-0.2,0.2c-0.6,0.3-1.2,0.4-1.4,0
				c-0.2-0.3-0.1-0.9,0.4-1.4c0.1-0.1,0.1-0.1,0.2-0.2C397.5,463.8,398.3,463.7,398.6,464.1z"/>
			<path fill="#2C3A3B" d="M398.1,464.4c0.2,0.3,0.1,0.9-0.4,1.4c-0.6,0.3-1.2,0.4-1.4,0c-0.2-0.3-0.1-0.9,0.4-1.4
				C397.2,464.1,397.8,464.1,398.1,464.4z"/>
		</g>
		<g>
			<path fill="#4B5D54" d="M400.6,462.2c0.2,0.3,0,0.8-0.5,1.2c-0.1,0-0.1,0.1-0.2,0.1c-0.4,0.3-0.9,0.3-1.1,0
				c-0.2-0.2-0.1-0.7,0.3-1c0.1-0.1,0.1-0.1,0.2-0.2C399.8,462,400.4,461.9,400.6,462.2z"/>
			<path fill="#2C3A3B" d="M400.2,462.5c0.2,0.2,0.1,0.7-0.3,1c-0.4,0.3-0.9,0.3-1.1,0c-0.2-0.2-0.1-0.7,0.3-1
				C399.6,462.3,400.1,462.3,400.2,462.5z"/>
		</g>
		<g>
			<path fill="#4B5D54" d="M401.5,468.5c0.5,0.7,0,2-1.2,3c-0.2,0.1-0.3,0.2-0.5,0.3c-1.1,0.6-2.2,0.7-2.7,0.1
				c-0.5-0.6-0.1-1.7,0.8-2.6c0.1-0.1,0.3-0.3,0.4-0.4C399.5,468,401,467.8,401.5,468.5z"/>
			<path fill="#2C3A3B" d="M400.6,469.2c0.5,0.6,0.1,1.7-0.8,2.6c-1.1,0.6-2.2,0.7-2.7,0.1c-0.5-0.6-0.1-1.7,0.8-2.6
				C399,468.6,400.1,468.6,400.6,469.2z"/>
		</g>
		<path fill="#AEC1B5" d="M370.9,463.5c0.1,0.6,0.3,1.5,0.7,2.4c0.8,1.7,2,2.7,2.7,3.1c-0.5-0.7-1.1-2-1.3-3.7
			c-0.3-2.3,0.2-4.2,0.6-5.1C372.6,461.4,371.8,462.4,370.9,463.5z"/>
		<path fill="#AEC1B5" d="M393.1,456.4c0.4,0.6,0.8,1.3,1.1,2.2c0.4,1.2,0.6,2.3,0.6,3.1c0.2-0.6,0.5-1.6,0.3-2.9
			c-0.1-1.1-0.4-2-0.7-2.5C394,456.4,393.5,456.4,393.1,456.4z"/>
		<polygon fill="#4B5D54" points="390.1,479.3 389,478.2 388.5,475.8 388.8,474.2 		"/>
		<path fill="#C09551" d="M387,438.4c-11.1-0.4-20.4,9.3-23,18.8c-4.1,14.4,5.9,32.2,19.5,34.2c10.1,1.5,17.9-6.3,18.9-7.3
			c9.1-9.4,9.3-25.1,2.1-35.2C403.5,447.4,397.3,438.7,387,438.4z M404.3,457.5c-0.6,3.4-3.2,3.8-3.9,8.2c-0.6,3.8,1,5.2-0.3,7.5
			c-1.5,2.7-5,3.4-7.6,3.9c-1.5,0.3-6.4,1.1-11.6-1.3c-5-2.4-7.4-6.3-9.8-10.4c-2-3.4-3.1-5.2-3-7.6c0.1-4.9,4.3-8.5,7.2-11
			c2.1-1.8,3.9-3.4,6.8-4.4c4.8-1.6,10.6-0.8,15.1,2.4C400.8,447.4,405.2,452.6,404.3,457.5z"/>
	</g>
	<g>
		<path fill="#94A89A" d="M719.2,455.4c3.5,5.3,3.4,7.1,3.3,7.7c0,0.2-0.1,0.3-0.1,0.5c-0.4,1.6-1.5,1.8-2.3,4.9
			c-0.5,1.8-0.6,3.8-0.7,5.5c-0.1,2.1,0,2.3-0.2,3.4c-0.1,0.5-0.6,2.9-2.1,4.6c-2,2.2-4.9,2.4-7.6,2.6c-0.8,0-1.6,0.1-2.4,0l-1.4-5
			l-0.8,4.9c-0.3,0-0.5-0.1-0.8-0.1c-3.1-0.5-5.4-1.3-6.3-1.7c-4.5-1.8-10.8-4.4-13.7-9.7c-0.5-0.9-0.9-1.9-1.2-3
			c-2.2-8.4,4.5-15.8,5.7-17.1c4.3-4.5,9.2-5.7,10.8-6.1c2.4-0.6,8.6-2.1,13.8,1.3C715.1,449.2,716.5,451.3,719.2,455.4z"/>
		<path fill="#AEC1B5" d="M719.2,455.4c3.5,5.3,3.4,7.1,3.3,7.7c0,0.2-0.1,0.3-0.1,0.5c-10-2.4-17.7-1.8-22.9-0.7
			c-1.9,0.4-4.1,1.1-6.4,2.2c-4.1,2.1-7.1,5-9.2,7.7c-0.5-0.9-0.9-1.9-1.2-3c-2.2-8.4,4.5-15.8,5.7-17.1c4.3-4.5,9.2-5.7,10.8-6.1
			c2.4-0.6,8.6-2.1,13.8,1.3C715.1,449.2,716.5,451.3,719.2,455.4z"/>
		<g>
			<path fill="#4B5D54" d="M708,461.6c2.9,3.8,3,8.7,0.1,10.9c-0.4,0.3-0.8,0.5-1.2,0.7c-2.9,1.1-6.7-0.3-9.3-3.6
				c-2.6-3.3-2.9-7.4-1.1-9.9c0.3-0.4,0.6-0.7,1-1C700.4,456.5,705.1,457.8,708,461.6z"/>
			<path fill="#2C3A3B" d="M705.8,463.3c2.6,3.3,2.9,7.4,1.1,9.9c-2.9,1.1-6.7-0.3-9.3-3.6c-2.6-3.3-2.9-7.4-1.1-9.9
				C699.4,458.6,703.3,460,705.8,463.3z"/>
		</g>
		<g>
			<path fill="#4B5D54" d="M718,456.8c1.8,2.3,1.8,5.3,0.1,6.7c-0.2,0.2-0.5,0.3-0.7,0.4c-1.8,0.7-4.2-0.2-5.7-2.2
				c-1.6-2-1.8-4.6-0.7-6.1c0.2-0.2,0.4-0.4,0.6-0.6C713.3,453.7,716.2,454.5,718,456.8z"/>
			<path fill="#2C3A3B" d="M716.7,457.9c1.6,2,1.8,4.6,0.7,6.1c-1.8,0.7-4.2-0.2-5.7-2.2c-1.6-2-1.8-4.6-0.7-6.1
				C712.7,454.9,715.1,455.8,716.7,457.9z"/>
		</g>
		<g>
			<path fill="#4B5D54" d="M715.4,469.3c0.3,0.4,0,1.1-0.6,1.6c-0.1,0.1-0.2,0.1-0.2,0.2c-0.6,0.3-1.2,0.4-1.4,0
				c-0.2-0.3-0.1-0.9,0.4-1.4c0.1-0.1,0.1-0.1,0.2-0.2C714.3,469,715.1,468.9,715.4,469.3z"/>
			<path fill="#2C3A3B" d="M714.9,469.7c0.2,0.3,0.1,0.9-0.4,1.4c-0.6,0.3-1.2,0.4-1.4,0c-0.2-0.3-0.1-0.9,0.4-1.4
				C714,469.4,714.6,469.3,714.9,469.7z"/>
		</g>
		<g>
			<path fill="#4B5D54" d="M717.4,467.4c0.2,0.3,0,0.8-0.5,1.2c-0.1,0-0.1,0.1-0.2,0.1c-0.4,0.3-0.9,0.3-1.1,0
				c-0.2-0.2-0.1-0.7,0.3-1c0.1-0.1,0.1-0.1,0.2-0.2C716.6,467.2,717.2,467.2,717.4,467.4z"/>
			<path fill="#2C3A3B" d="M717,467.7c0.2,0.2,0.1,0.7-0.3,1c-0.4,0.3-0.9,0.3-1.1,0c-0.2-0.2-0.1-0.7,0.3-1
				C716.4,467.5,716.9,467.5,717,467.7z"/>
		</g>
		<g>
			<path fill="#4B5D54" d="M718.3,473.7c0.5,0.7,0,2-1.2,3c-0.2,0.1-0.3,0.2-0.5,0.3c-1.1,0.6-2.2,0.7-2.7,0.1
				c-0.5-0.6-0.1-1.7,0.8-2.6c0.1-0.1,0.3-0.3,0.4-0.4C716.3,473.2,717.8,473,718.3,473.7z"/>
			<path fill="#2C3A3B" d="M717.4,474.4c0.5,0.6,0.1,1.7-0.8,2.6c-1.1,0.6-2.2,0.7-2.7,0.1c-0.5-0.6-0.1-1.7,0.8-2.6
				C715.8,473.9,716.9,473.8,717.4,474.4z"/>
		</g>
		<path fill="#AEC1B5" d="M687.7,468.7c0.1,0.6,0.3,1.5,0.7,2.4c0.8,1.7,2,2.7,2.7,3.1c-0.5-0.7-1.1-2-1.3-3.7
			c-0.3-2.3,0.2-4.2,0.6-5.1C689.4,466.6,688.6,467.7,687.7,468.7z"/>
		<path fill="#AEC1B5" d="M709.9,461.7c0.4,0.6,0.8,1.3,1.1,2.2c0.4,1.2,0.6,2.3,0.6,3.1c0.2-0.6,0.5-1.6,0.3-2.9
			c-0.1-1.1-0.4-2-0.7-2.5C710.8,461.6,710.3,461.6,709.9,461.7z"/>
		<polygon fill="#4B5D54" points="706.9,484.5 705.9,483.5 705.3,481 705.6,479.5 		"/>
		<path fill="#C09551" d="M703.8,443.6c-11.1-0.4-20.4,9.3-23,18.8c-4.1,14.4,5.9,32.2,19.5,34.2c10.1,1.5,17.9-6.3,18.9-7.3
			c9.1-9.4,9.3-25.1,2.1-35.2C720.3,452.7,714.1,443.9,703.8,443.6z M721.1,462.8c-0.6,3.4-3.2,3.8-3.9,8.2c-0.6,3.8,1,5.2-0.3,7.5
			c-1.5,2.7-5,3.4-7.6,3.9c-1.5,0.3-6.4,1.1-11.6-1.3c-5-2.4-7.4-6.3-9.8-10.4c-2-3.4-3.1-5.2-3-7.6c0.1-4.9,4.3-8.5,7.2-11
			c2.1-1.8,3.9-3.4,6.8-4.4c4.8-1.6,10.6-0.8,15.1,2.4C717.6,452.6,722,457.8,721.1,462.8z"/>
	</g>
	<g>
		<path fill="#94A89A" d="M806.3,501.4c-1.9,4.3-3.1,4.9-3.6,5.1c-0.1,0.1-0.2,0.1-0.4,0.1c-1.2,0.4-1.8-0.2-4,0.5
			c-1.3,0.4-2.6,1.1-3.7,1.7c-1.4,0.7-1.5,0.9-2.2,1.2c-0.3,0.1-2.1,0.8-3.8,0.5c-2.2-0.4-3.5-2.2-4.6-3.8c-0.4-0.5-0.7-1-1-1.5
			l2.6-2.8l-3.4,1.4c-0.1-0.2-0.2-0.4-0.2-0.5c-0.9-2.2-1.3-4-1.4-4.7c-0.6-3.6-1.5-8.5,0.7-12.5c0.4-0.7,0.8-1.3,1.4-1.9
			c4.4-4.7,11.8-3.4,13.1-3.1c4.5,0.9,7.3,3.6,8.1,4.4c1.3,1.3,4.7,4.6,4.6,9.3C808.5,496.3,807.8,498,806.3,501.4z"/>
		<path fill="#AEC1B5" d="M806.3,501.4c-1.9,4.3-3.1,4.9-3.6,5.1c-0.1,0.1-0.2,0.1-0.4,0.1c-2.4-7.3-5.9-11.9-8.6-14.8
			c-1-1-2.3-2.2-3.9-3.1c-2.9-1.8-5.9-2.5-8.5-2.8c0.4-0.7,0.8-1.3,1.4-1.9c4.4-4.7,11.8-3.4,13.1-3.1c4.5,0.9,7.3,3.6,8.1,4.4
			c1.3,1.3,4.7,4.6,4.6,9.3C808.5,496.3,807.8,498,806.3,501.4z"/>
		<g>
			<path fill="#4B5D54" d="M797.9,496.8c-1.2,3.4-4.3,5.3-6.8,4.4c-0.3-0.1-0.6-0.3-0.9-0.5c-1.8-1.4-2.5-4.4-1.4-7.3
				c1.1-2.9,3.5-4.8,5.8-4.6c0.3,0,0.7,0.1,1,0.2C798.1,489.9,799.1,493.4,797.9,496.8z"/>
			<path fill="#2C3A3B" d="M796,496c-1.1,2.9-3.5,4.8-5.8,4.6c-1.8-1.4-2.5-4.4-1.4-7.3c1.1-2.9,3.5-4.8,5.8-4.6
				C796.4,490.1,797,493.1,796,496z"/>
		</g>
		<g>
			<path fill="#4B5D54" d="M804.8,501.2c-0.8,2.1-2.7,3.3-4.2,2.7c-0.2-0.1-0.4-0.2-0.6-0.3c-1.1-0.8-1.5-2.7-0.9-4.5
				c0.7-1.8,2.2-3,3.6-2.8c0.2,0,0.4,0.1,0.6,0.1C805,497,805.6,499.1,804.8,501.2z"/>
			<path fill="#2C3A3B" d="M803.7,500.7c-0.7,1.8-2.2,3-3.6,2.8c-1.1-0.8-1.5-2.7-0.9-4.5c0.7-1.8,2.2-3,3.6-2.8
				C803.9,497.1,804.3,498.9,803.7,500.7z"/>
		</g>
		<g>
			<path fill="#4B5D54" d="M795.9,504.4c-0.1,0.3-0.7,0.4-1.2,0.2c-0.1,0-0.1-0.1-0.2-0.1c-0.4-0.2-0.7-0.6-0.6-0.9
				c0.1-0.3,0.5-0.4,1-0.3c0.1,0,0.1,0,0.2,0.1C795.7,503.7,796,504.1,795.9,504.4z"/>
			<path fill="#2C3A3B" d="M795.5,504.3c-0.1,0.3-0.5,0.4-1,0.3c-0.4-0.2-0.7-0.6-0.6-0.9c0.1-0.3,0.5-0.4,1-0.3
				C795.3,503.6,795.6,504,795.5,504.3z"/>
		</g>
		<g>
			<path fill="#4B5D54" d="M797.9,505c-0.1,0.2-0.5,0.3-0.9,0.2c-0.1,0-0.1,0-0.2-0.1c-0.3-0.2-0.5-0.4-0.4-0.7
				c0.1-0.2,0.4-0.3,0.8-0.2c0.1,0,0.1,0,0.2,0C797.7,504.4,798,504.7,797.9,505z"/>
			<path fill="#2C3A3B" d="M797.6,504.9c-0.1,0.2-0.4,0.3-0.8,0.2c-0.3-0.2-0.5-0.4-0.4-0.7c0.1-0.2,0.4-0.3,0.8-0.2
				C797.5,504.4,797.7,504.7,797.6,504.9z"/>
		</g>
		<g>
			<path fill="#4B5D54" d="M794.3,508c-0.2,0.6-1.3,0.8-2.3,0.4c-0.1-0.1-0.3-0.1-0.4-0.2c-0.8-0.4-1.3-1.1-1.1-1.7
				c0.2-0.5,1-0.8,1.9-0.5c0.1,0,0.3,0.1,0.4,0.1C793.8,506.6,794.5,507.4,794.3,508z"/>
			<path fill="#2C3A3B" d="M793.5,507.7c-0.2,0.5-1,0.8-1.9,0.5c-0.8-0.4-1.3-1.1-1.1-1.7c0.2-0.5,1-0.8,1.9-0.5
				C793.2,506.5,793.7,507.2,793.5,507.7z"/>
		</g>
		<path fill="#AEC1B5" d="M785.3,486.7c-0.4,0.3-0.8,0.8-1.2,1.4c-0.7,1.2-0.9,2.3-0.9,2.9c0.3-0.6,0.8-1.5,1.8-2.3
			c1.3-1.1,2.7-1.5,3.4-1.6C787.4,487,786.4,486.8,785.3,486.7z"/>
		<path fill="#AEC1B5" d="M798.6,498c-0.2,0.4-0.5,1-1,1.6c-0.6,0.7-1.2,1.3-1.7,1.6c0.5-0.1,1.2-0.3,2-0.9c0.7-0.5,1.1-1.1,1.3-1.4
			C799,498.5,798.8,498.2,798.6,498z"/>
		<polygon fill="#4B5D54" points="783,505.1 783.2,504 784.5,502.7 785.6,502.3 		"/>
		<path fill="#C09551" d="M807.6,487c-4.2-7.2-13.9-9.2-21-7.2c-10.7,3.1-18,16.5-13.9,25.9c1.3,2.9,3.4,4.9,5.6,6.3h21.1
			c3.8-2.3,6.9-5.8,8.5-9.8C808.4,501,811.5,493.6,807.6,487z M802,505.6c-2.2,0.7-3.5-0.6-6.4,0.7c-0.6,0.3-1.1,0.5-1.5,0.8
			c-0.2,0.1-0.4,0.3-0.5,0.4c-0.4,0.3-0.7,0.6-1.1,0.9c-0.1,0.1-0.2,0.1-0.3,0.2c-0.4,0.3-0.9,0.5-1.5,0.5c-2.3,0.1-4.1-1.9-5.4-3.3
			c-0.3-0.3-0.8-0.9-1.4-1.7c-0.1-0.1-0.2-0.3-0.3-0.5c-0.1-0.1-0.2-0.3-0.3-0.4c-0.8-1.3-1.5-3.1-1.8-5.3
			c-0.5-4.1,1.1-7.2,2.7-10.3c0.2-0.4,0.4-0.8,0.6-1.1c1-2,1.7-3,3-3.8c3.1-1.9,7.1-0.6,9.8,0.2c2,0.6,3.7,1.1,5.5,2.6
			c2.9,2.4,4.7,6.4,4.4,10.5c-0.2,3.2-1.8,8.1-5.3,9.5C802.2,505.5,802.1,505.6,802,505.6z"/>
	</g>
	<g>
		<path fill="#94A89A" d="M969.6,469c5.1,4.6,5.4,6.5,5.4,7.2c0,0.2,0,0.4,0,0.5c0,1.8-1.1,2.3-1.1,5.7c0,2,0.4,4.1,0.7,5.9
			c0.4,2.2,0.6,2.5,0.7,3.6c0,0.5,0.1,3.2-1.1,5.4c-1.5,2.8-4.5,3.8-7.4,4.7c-0.9,0.3-1.7,0.5-2.5,0.7l-2.7-4.9l0.4,5.3
			c-0.3,0-0.6,0.1-0.8,0.1c-3.4,0.3-6,0-7.1-0.1c-5.2-0.8-12.5-1.8-16.9-6.6c-0.8-0.8-1.5-1.8-2.1-2.8c-4.5-8.3,0.6-17.8,1.6-19.5
			c3.3-5.8,8.2-8.4,9.8-9.2c2.3-1.2,8.5-4.4,14.8-2.2C963.7,463.6,965.6,465.4,969.6,469z"/>
		<path fill="#AEC1B5" d="M969.6,469c5.1,4.6,5.4,6.5,5.4,7.2c0,0.2,0,0.4,0,0.5c-11.1,0.1-19,2.8-24.3,5.3c-1.9,0.9-4,2.2-6.1,4
			c-3.8,3.2-6.1,7-7.6,10.5c-0.8-0.8-1.5-1.8-2.1-2.8c-4.5-8.3,0.6-17.8,1.6-19.5c3.3-5.8,8.2-8.4,9.8-9.2c2.3-1.2,8.5-4.4,14.8-2.2
			C963.7,463.6,965.6,465.4,969.6,469z"/>
		<g>
			<path fill="#4B5D54" d="M959.4,478.5c4.1,3.2,5.4,8.3,3,11.4c-0.3,0.4-0.7,0.7-1.1,1c-2.7,1.9-7.1,1.5-10.7-1.3
				c-3.6-2.8-5-7-3.8-10.1c0.2-0.5,0.4-0.9,0.8-1.3C950.1,475.1,955.4,475.3,959.4,478.5z"/>
			<path fill="#2C3A3B" d="M957.6,480.8c3.5,2.8,5,7,3.8,10.1c-2.7,1.9-7.1,1.5-10.7-1.3c-3.6-2.8-5-7-3.8-10.1
				C949.6,477.5,954.1,478,957.6,480.8z"/>
		</g>
		<g>
			<path fill="#4B5D54" d="M968.7,470.9c2.5,2,3.3,5.1,1.8,7c-0.2,0.2-0.4,0.5-0.7,0.6c-1.7,1.2-4.4,0.9-6.6-0.8
				c-2.2-1.7-3.1-4.3-2.3-6.2c0.1-0.3,0.3-0.5,0.5-0.8C962.9,468.8,966.2,468.9,968.7,470.9z"/>
			<path fill="#2C3A3B" d="M967.6,472.3c2.2,1.7,3.1,4.3,2.3,6.2c-1.7,1.2-4.4,0.9-6.6-0.8c-2.2-1.7-3.1-4.3-2.3-6.2
				C962.6,470.3,965.4,470.5,967.6,472.3z"/>
		</g>
		<g>
			<path fill="#4B5D54" d="M969.2,484.6c0.4,0.3,0.3,1.1-0.3,1.8c-0.1,0.1-0.1,0.2-0.2,0.2c-0.5,0.5-1.1,0.7-1.5,0.4
				c-0.3-0.3-0.3-0.9,0.1-1.5c0.1-0.1,0.1-0.2,0.2-0.3C968,484.6,968.8,484.3,969.2,484.6z"/>
			<path fill="#2C3A3B" d="M968.8,485.1c0.3,0.3,0.3,0.9-0.1,1.5c-0.5,0.5-1.1,0.7-1.5,0.4c-0.3-0.3-0.3-0.9,0.1-1.5
				C967.8,485,968.4,484.8,968.8,485.1z"/>
		</g>
		<g>
			<path fill="#4B5D54" d="M970.8,482.1c0.3,0.2,0.2,0.8-0.2,1.4c-0.1,0.1-0.1,0.1-0.2,0.2c-0.4,0.4-0.9,0.5-1.1,0.3
				c-0.3-0.2-0.2-0.7,0-1.2c0-0.1,0.1-0.1,0.1-0.2C970,482.1,970.5,481.9,970.8,482.1z"/>
			<path fill="#2C3A3B" d="M970.5,482.5c0.3,0.2,0.2,0.7,0,1.2c-0.4,0.4-0.9,0.5-1.1,0.3c-0.3-0.2-0.2-0.7,0-1.2
				C969.8,482.5,970.3,482.3,970.5,482.5z"/>
		</g>
		<g>
			<path fill="#4B5D54" d="M973.4,488.5c0.8,0.6,0.5,2.1-0.5,3.4c-0.1,0.2-0.3,0.3-0.4,0.5c-1,0.9-2.1,1.3-2.8,0.8
				c-0.7-0.5-0.6-1.7,0.1-2.9c0.1-0.2,0.2-0.3,0.4-0.5C971.2,488.5,972.7,487.9,973.4,488.5z"/>
			<path fill="#2C3A3B" d="M972.6,489.5c0.7,0.5,0.6,1.7-0.1,2.9c-1,0.9-2.1,1.3-2.8,0.8c-0.7-0.5-0.6-1.7,0.1-2.9
				C970.8,489.3,972,488.9,972.6,489.5z"/>
		</g>
		<path fill="#AEC1B5" d="M940,491.3c0.3,0.6,0.7,1.5,1.4,2.3c1.3,1.5,2.8,2.3,3.6,2.6c-0.7-0.7-1.7-1.8-2.4-3.6
			c-1-2.3-0.8-4.4-0.7-5.5C941.3,488.5,940.6,489.9,940,491.3z"/>
		<path fill="#AEC1B5" d="M961.4,478c0.5,0.5,1.1,1.2,1.7,2.1c0.8,1.2,1.2,2.3,1.4,3.1c0.1-0.7,0.1-1.8-0.4-3.2
			c-0.4-1.1-1-2-1.4-2.4C962.3,477.7,961.9,477.9,961.4,478z"/>
		<polygon fill="#4B5D54" points="964.3,502.8 962.9,502 961.7,499.6 961.6,497.8 		"/>
		<path fill="#C09551" d="M971.4,467.1c-1.4-1.2-10.2-8.7-21.1-6.4c-11.8,2.5-18.9,15.1-19.3,25.7c-0.3,9.9,5.3,19.8,13,25.6h28
			c3.7-3.2,5.9-6.7,6.3-7.4C985.6,492.3,981.6,475.8,971.4,467.1z M961.8,501.4c-2.2,0.5-5,0.7-8.1,0.1c-5.9-1.2-9.4-4.7-13-8.4
			c-0.5-0.5-0.9-0.9-1.2-1.3c-2.2-2.3-3.4-3.7-3.9-5.9c-1.2-5.1,2.3-10,4.7-13.5c1.8-2.5,3.2-4.6,6.1-6.4c4.7-2.9,10.9-3.6,16.4-1.4
			c4.4,1.7,10.3,6,10.7,11.5c0,0.2,0,0.3,0,0.5c0,3.3-2.3,4.5-2,9.2c0.1,1,0.2,1.8,0.4,2.4c0.1,0.3,0.2,0.6,0.3,0.9h0
			c0.3,0.7,0.5,1.3,0.7,1.8c0.1,0.2,0.1,0.3,0.1,0.5c0.2,0.7,0.3,1.4,0,2.3c-0.8,3.2-4.4,4.9-6.9,6c-0.6,0.3-1.6,0.7-2.9,1.1
			c-0.3,0.1-0.5,0.2-0.8,0.2C962.3,501.3,962.1,501.4,961.8,501.4z"/>
	</g>
	<g>
		<path fill="#94A89A" d="M609.1,487c2.3,4.1,2.1,5.5,2,5.9c0,0.1-0.1,0.3-0.1,0.4c-0.4,1.2-1.2,1.3-2,3.5c-0.5,1.3-0.7,2.8-0.8,4
			c-0.2,1.5-0.1,1.7-0.4,2.5c-0.1,0.3-0.6,2.1-1.9,3.3c-1.6,1.5-3.8,1.5-5.8,1.5c-0.6,0-1.2,0-1.8-0.1l-0.7-3.8l-0.9,3.6
			c-0.2,0-0.4-0.1-0.6-0.1c-2.3-0.5-4-1.3-4.6-1.6c-3.3-1.6-7.8-3.9-9.6-8c-0.3-0.7-0.6-1.5-0.7-2.3c-1.2-6.4,4.3-11.5,5.2-12.4
			c3.4-3.1,7.2-3.7,8.4-3.9c1.8-0.3,6.5-1,10.2,1.8C606.4,482.2,607.3,483.8,609.1,487z"/>
		<path fill="#AEC1B5" d="M609.1,487c2.3,4.1,2.1,5.5,2,5.9c0,0.1-0.1,0.3-0.1,0.4c-7.3-2.3-13-2.3-17-1.8c-1.4,0.2-3.1,0.6-4.9,1.3
			c-3.2,1.3-5.5,3.3-7.2,5.2c-0.3-0.7-0.6-1.5-0.7-2.3c-1.2-6.4,4.3-11.5,5.2-12.4c3.4-3.1,7.2-3.7,8.4-3.9c1.8-0.3,6.5-1,10.2,1.8
			C606.4,482.2,607.3,483.8,609.1,487z"/>
		<g>
			<path fill="#4B5D54" d="M600.4,491c2,3,1.7,6.6-0.5,8.1c-0.3,0.2-0.6,0.3-0.9,0.4c-2.2,0.7-5-0.6-6.7-3.2
				c-1.7-2.6-1.8-5.7-0.3-7.4c0.2-0.3,0.5-0.5,0.8-0.7C595.1,486.8,598.5,488,600.4,491z"/>
			<path fill="#2C3A3B" d="M598.8,492.2c1.7,2.6,1.8,5.7,0.3,7.4c-2.2,0.7-5-0.6-6.7-3.2c-1.7-2.6-1.8-5.7-0.3-7.4
				C594.2,488.3,597,489.6,598.8,492.2z"/>
		</g>
		<g>
			<path fill="#4B5D54" d="M608.2,488.1c1.2,1.8,1.1,4.1-0.3,5c-0.2,0.1-0.4,0.2-0.6,0.3c-1.3,0.4-3.1-0.4-4.1-2
				c-1.1-1.6-1.1-3.5-0.2-4.6c0.1-0.2,0.3-0.3,0.5-0.4C604.8,485.4,606.9,486.2,608.2,488.1z"/>
			<path fill="#2C3A3B" d="M607.1,488.7c1.1,1.6,1.1,3.5,0.2,4.6c-1.3,0.4-3.1-0.4-4.1-2c-1.1-1.6-1.1-3.5-0.2-4.6
				C604.3,486.3,606,487.1,607.1,488.7z"/>
		</g>
		<g>
			<path fill="#4B5D54" d="M605.5,497.2c0.2,0.3-0.1,0.8-0.6,1.1c-0.1,0-0.1,0.1-0.2,0.1c-0.4,0.2-0.9,0.2-1.1-0.1
				c-0.2-0.3,0-0.7,0.4-1c0.1,0,0.1-0.1,0.2-0.1C604.7,496.9,605.3,496.9,605.5,497.2z"/>
			<path fill="#2C3A3B" d="M605.1,497.4c0.2,0.3,0,0.7-0.4,1c-0.4,0.2-0.9,0.2-1.1-0.1c-0.2-0.3,0-0.7,0.4-1
				C604.5,497.1,604.9,497.1,605.1,497.4z"/>
		</g>
		<g>
			<path fill="#4B5D54" d="M607.1,495.9c0.1,0.2,0,0.6-0.4,0.8c0,0-0.1,0.1-0.1,0.1c-0.3,0.2-0.7,0.2-0.8,0c-0.1-0.2,0-0.5,0.3-0.7
				c0,0,0.1-0.1,0.1-0.1C606.5,495.7,607,495.7,607.1,495.9z"/>
			<path fill="#2C3A3B" d="M606.8,496.1c0.1,0.2,0,0.5-0.3,0.7c-0.3,0.2-0.7,0.2-0.8,0c-0.1-0.2,0-0.5,0.3-0.7
				C606.4,495.9,606.7,495.9,606.8,496.1z"/>
		</g>
		<g>
			<path fill="#4B5D54" d="M607.4,500.6c0.4,0.6-0.1,1.5-1.1,2.1c-0.1,0.1-0.2,0.2-0.4,0.2c-0.8,0.4-1.7,0.4-2-0.1
				c-0.3-0.5,0-1.3,0.7-1.9c0.1-0.1,0.2-0.2,0.3-0.3C606,500.1,607,500.1,607.4,500.6z"/>
			<path fill="#2C3A3B" d="M606.7,501.1c0.3,0.5,0,1.3-0.7,1.9c-0.8,0.4-1.7,0.4-2-0.1c-0.3-0.5,0-1.3,0.7-1.9
				C605.5,500.6,606.4,500.6,606.7,501.1z"/>
		</g>
		<path fill="#AEC1B5" d="M584.9,495.2c0,0.5,0.1,1.1,0.4,1.8c0.5,1.3,1.4,2.1,1.8,2.5c-0.3-0.6-0.7-1.6-0.8-2.8
			c-0.1-1.7,0.4-3.1,0.7-3.7C586.4,493.7,585.6,494.4,584.9,495.2z"/>
		<path fill="#AEC1B5" d="M601.8,491.2c0.2,0.4,0.5,1,0.7,1.7c0.2,0.9,0.3,1.7,0.3,2.3c0.2-0.4,0.4-1.2,0.4-2.2
			c0-0.8-0.2-1.5-0.4-1.9C602.5,491.2,602.2,491.2,601.8,491.2z"/>
		<polygon fill="#4B5D54" points="598.4,508 597.6,507.2 597.3,505.3 597.6,504.2 		"/>
		<path fill="#C09551" d="M610.8,486.2c-0.7-1.1-4.8-7.9-12.4-8.8c-8.3-0.9-15.7,5.8-18.2,12.6c-2.7,7.4-0.3,16.5,4.9,22h22.4
			C614.5,505.5,615.5,494,610.8,486.2z M597,506.6c-1.5-0.2-3.4-0.6-5.3-1.7c-3.6-2-5.1-5.1-6.7-8.3c-0.2-0.4-0.4-0.8-0.5-1.1
			c-1-2-1.4-3.2-1.3-4.7c0.4-3.6,3.7-6.1,6-7.8c1.7-1.3,3.1-2.3,5.3-2.9c3.7-0.9,7.9,0,11.1,2.6c2.5,2.1,5.5,6.2,4.5,9.8
			c0,0.1-0.1,0.2-0.1,0.3c-0.7,2.2-2.5,2.5-3.3,5.6c-0.2,0.6-0.2,1.2-0.2,1.7c0,0.2,0,0.5,0,0.7c0,0.5,0.1,0.9,0.1,1.4
			c0,0.1,0,0.2,0,0.3c0,0.5-0.1,1-0.5,1.5c-1.2,1.9-3.9,2.2-5.8,2.4c-0.4,0.1-1.2,0.1-2.2,0.1c-0.2,0-0.4,0-0.6,0
			C597.4,506.6,597.2,506.6,597,506.6z"/>
	</g>
	<path fill="#416E4A" d="M0,439.7h1024v11.1c-5.8,17.2-21.3,28.2-37,27.2c-16.2-1-25.7-14.2-27-16.1c-1.4,2.5-4.3,3.6-6.7,2.8
		c-2.9-1-3.6-4.1-3.6-4.3c-14,20.8-37.7,27.3-52.8,18.9c-12.4-6.9-15.4-22-16-25.2c-0.5,0.5-2.4,1.9-5.2,2c-2.6,0.1-4.5-1.1-5.1-1.5
		c-0.9,13.5-7.6,25.7-18.3,30.8c-15.9,7.6-39.7-1.1-50-23.6c-0.1,4.4-1.8,8.3-4.3,9.1c-3.3,1-9-2.7-10.9-10.6
		c-32.1,28.1-65.6,33.9-79.3,21.3c-2.4-2.2-8.4-8.9-7.8-25.5c-0.7,3.5-3.4,6.2-6.8,6.8c-3.7,0.7-7.5-1.1-9.3-4.6
		c-3.2,5.6-11.2,17.3-25.9,23.1c-21.1,8.2-47.3,0.6-65.6-19.6c-0.3,4.5-4,8-8.1,8.1c-4.6,0.1-8.8-4.1-8.4-9.3
		c-20,18.7-45.5,23.7-62.3,13.7c-3.5-2.1-10.4-7.2-15.3-18.4c0.1,3.5-2.3,6.5-5.4,7.1c-3.6,0.7-7.4-1.8-8.1-5.8
		c-17.6,20.5-43.1,28.7-63.4,21c-12.5-4.7-19.8-14.2-23.3-19.8c-0.9,2.9-3.2,5-5.8,5.4c-3.6,0.6-7.4-2-8.4-6.2
		c-26.6,26.7-59.6,34.7-79.4,22.3c-4-2.5-11-8.1-15.8-20.1c-0.5,4.1-4.3,6.9-8.3,6.4c-3.9-0.5-6.8-4.2-6.4-8.2
		c-2.5,3.5-6.9,8.9-13.9,13.5c-15,9.8-39.3,14.2-56.2,1.5c-3.2-2.4-9.5-8-13.7-18.8c-0.1,0.4-1.1,3.2-4,4.3c-2.5,0.9-5.4,0.1-7.3-2
		c-0.3,5.2-1.7,12-6.1,18c-12.7,17.4-43.5,18.9-63.8,7.2C97.7,475.1,91.3,465,88,458.4c-2.1,4-5.9,5.2-7.7,4.1
		c-1.3-0.9-1.7-3.3-1.1-5.8c-3.8,2.2-57.6,32.7-70.8,17.8c-2.2-2.5-4.9-8.2-0.5-22.1c-0.2,0.2-1.7,1.7-4,1.4c-1.8-0.2-3.3-1.4-4-3
		C0,447.1,0,443.4,0,439.7z"/>
	<path fill="#528E4C" d="M0,431h1024v11.1c-5.8,17.2-21.3,28.2-37,27.2c-16.2-1-25.7-14.2-27-16.1c-1.4,2.5-4.3,3.6-6.7,2.8
		c-2.9-1-3.6-4.1-3.6-4.3c-14,20.8-37.7,27.3-52.8,18.9c-12.4-6.9-15.4-22-16-25.2c-0.5,0.5-2.4,1.9-5.2,2c-2.6,0.1-4.5-1.1-5.1-1.5
		c-0.9,13.5-7.6,25.7-18.3,30.8c-15.9,7.6-39.7-1.1-50-23.6c-0.1,4.4-1.8,8.3-4.3,9.1c-3.3,1-9-2.7-10.9-10.6
		c-32.1,28.1-65.6,33.9-79.3,21.3c-2.4-2.2-8.4-8.9-7.8-25.5c-0.7,3.5-3.4,6.2-6.8,6.8c-3.7,0.7-7.5-1.1-9.3-4.6
		c-3.2,5.6-11.2,17.3-25.9,23.1c-21.1,8.2-47.3,0.6-65.6-19.6c-0.3,4.5-4,8-8.1,8.1c-4.6,0.1-8.8-4.1-8.4-9.3
		c-20,18.7-45.5,23.7-62.3,13.7c-3.5-2.1-10.4-7.2-15.3-18.4c0.1,3.5-2.3,6.5-5.4,7.1c-3.6,0.7-7.4-1.8-8.1-5.8
		c-17.6,20.5-43.1,28.7-63.4,21c-12.5-4.7-19.8-14.2-23.3-19.8c-0.9,2.9-3.2,5-5.8,5.4c-3.6,0.6-7.4-2-8.4-6.2
		c-26.6,26.7-59.6,34.7-79.4,22.3c-4-2.5-11-8.1-15.8-20.1c-0.5,4.1-4.3,6.9-8.3,6.4c-3.9-0.5-6.8-4.2-6.4-8.2
		c-2.5,3.5-6.9,8.9-13.9,13.5c-15,9.8-39.3,14.2-56.2,1.5c-3.2-2.4-9.5-8-13.7-18.8c-0.1,0.4-1.1,3.2-4,4.3c-2.5,0.9-5.4,0.1-7.3-2
		c-0.3,5.2-1.7,12-6.1,18c-12.7,17.4-43.5,18.9-63.8,7.2c-11.7-6.7-18.1-16.8-21.3-23.4c-2.1,4-5.9,5.2-7.7,4.1
		c-1.3-0.9-1.7-3.3-1.1-5.8c-3.8,2.2-57.6,32.7-70.8,17.8c-2.2-2.5-4.9-8.2-0.5-22.1c-0.2,0.2-1.7,1.7-4,1.4c-1.8-0.2-3.3-1.4-4-3
		C0,438.4,0,434.7,0,431z"/>
	<g>
		<path fill="#94A89A" d="M67.1,492.4c-0.3,4.3-1.1,5.2-1.4,5.4c-0.1,0.1-0.2,0.2-0.3,0.2c-0.9,0.7-1.6,0.4-3.2,1.7
			c-1,0.8-1.9,1.8-2.6,2.6c-0.9,1.1-1,1.3-1.5,1.7c-0.2,0.2-1.5,1.3-3,1.6c-1.9,0.4-3.6-0.7-5.1-1.8c-0.5-0.3-0.9-0.6-1.3-1l1.3-3.2
			l-2.5,2.2c-0.1-0.1-0.2-0.2-0.4-0.4c-1.5-1.5-2.3-2.9-2.7-3.5c-1.7-2.8-3.9-6.8-3.3-10.8c0.1-0.7,0.3-1.4,0.6-2.1
			c2.3-5.4,8.9-6.6,10.1-6.8c4.1-0.6,7.3,0.8,8.3,1.2c1.5,0.7,5.4,2.4,6.8,6.4C67.5,487.4,67.3,489.1,67.1,492.4z"/>
		<path fill="#AEC1B5" d="M67.1,492.4c-0.3,4.3-1.1,5.2-1.4,5.4c-0.1,0.1-0.2,0.2-0.3,0.2c-4.4-5.4-8.7-8.2-11.9-9.8
			c-1.2-0.6-2.6-1.1-4.3-1.4c-3-0.6-5.8-0.3-8.1,0.3c0.1-0.7,0.3-1.4,0.6-2.1c2.3-5.4,8.9-6.6,10.1-6.8c4.1-0.6,7.3,0.8,8.3,1.2
			c1.5,0.7,5.4,2.4,6.8,6.4C67.5,487.4,67.3,489.1,67.1,492.4z"/>
		<g>
			<path fill="#4B5D54" d="M58.6,491.1c0,3.2-2,5.9-4.4,5.9c-0.3,0-0.6,0-0.9-0.1c-2-0.6-3.5-2.9-3.5-5.7c0-2.8,1.5-5.2,3.5-5.7
				c0.3-0.1,0.6-0.1,0.9-0.1C56.6,485.2,58.6,487.9,58.6,491.1z"/>
			<path fill="#2C3A3B" d="M56.7,491.1c0,2.8-1.5,5.2-3.5,5.7c-2-0.6-3.5-2.9-3.5-5.7c0-2.8,1.5-5.2,3.5-5.7
				C55.2,485.9,56.7,488.3,56.7,491.1z"/>
		</g>
		<g>
			<path fill="#4B5D54" d="M65.9,492.7c0,2-1.2,3.6-2.7,3.6c-0.2,0-0.4,0-0.6-0.1c-1.2-0.3-2.1-1.8-2.1-3.5c0-1.7,0.9-3.2,2.1-3.5
				c0.2-0.1,0.4-0.1,0.6-0.1C64.7,489.1,65.9,490.7,65.9,492.7z"/>
			<path fill="#2C3A3B" d="M64.7,492.7c0,1.7-0.9,3.2-2.1,3.5c-1.2-0.3-2.1-1.8-2.1-3.5c0-1.7,0.9-3.2,2.1-3.5
				C63.8,489.5,64.7,490.9,64.7,492.7z"/>
		</g>
		<g>
			<path fill="#4B5D54" d="M59.3,498.2c0,0.3-0.4,0.6-1,0.6c-0.1,0-0.1,0-0.2,0c-0.4-0.1-0.8-0.3-0.8-0.6c0-0.3,0.3-0.5,0.8-0.6
				c0.1,0,0.1,0,0.2,0C58.9,497.7,59.3,497.9,59.3,498.2z"/>
			<path fill="#2C3A3B" d="M58.9,498.2c0,0.3-0.3,0.5-0.8,0.6c-0.4-0.1-0.8-0.3-0.8-0.6c0-0.3,0.3-0.5,0.8-0.6
				C58.6,497.7,58.9,497.9,58.9,498.2z"/>
		</g>
		<g>
			<path fill="#4B5D54" d="M61.2,498.1c0,0.2-0.3,0.4-0.7,0.4c-0.1,0-0.1,0-0.2,0c-0.3,0-0.6-0.2-0.6-0.4c0-0.2,0.3-0.4,0.6-0.4
				c0,0,0.1,0,0.2,0C60.9,497.7,61.2,497.8,61.2,498.1z"/>
			<path fill="#2C3A3B" d="M60.9,498.1c0,0.2-0.3,0.4-0.6,0.4c-0.3,0-0.6-0.2-0.6-0.4c0-0.2,0.3-0.4,0.6-0.4
				C60.6,497.7,60.9,497.9,60.9,498.1z"/>
		</g>
		<g>
			<path fill="#4B5D54" d="M59.1,501.8c0,0.6-0.8,1.1-1.9,1.1c-0.1,0-0.3,0-0.4,0c-0.8-0.1-1.5-0.5-1.5-1.1c0-0.5,0.6-1,1.5-1.1
				c0.1,0,0.3,0,0.4,0C58.3,500.7,59.1,501.2,59.1,501.8z"/>
			<path fill="#2C3A3B" d="M58.3,501.8c0,0.5-0.6,1-1.5,1.1c-0.8-0.1-1.5-0.5-1.5-1.1c0-0.5,0.6-1,1.5-1.1
				C57.7,500.8,58.3,501.3,58.3,501.8z"/>
		</g>
		<path fill="#AEC1B5" d="M44.8,486.5c-0.2,0.4-0.5,0.9-0.6,1.6c-0.3,1.2,0,2.3,0.2,2.8c0.1-0.6,0.2-1.5,0.8-2.5
			c0.8-1.4,1.8-2.1,2.4-2.5C46.6,486.1,45.7,486.3,44.8,486.5z"/>
		<path fill="#AEC1B5" d="M59.5,491.9c0,0.4-0.1,1-0.3,1.6c-0.3,0.8-0.6,1.5-1,1.9c0.3-0.2,0.9-0.7,1.4-1.4c0.4-0.6,0.6-1.2,0.7-1.6
			C60,492.2,59.8,492.1,59.5,491.9z"/>
		<polygon fill="#4B5D54" points="48.6,502.9 48.4,501.9 49.1,500.4 49.9,499.6 		"/>
		<path fill="#C09551" d="M63.8,479.8c-5.8-4.8-14.7-3.4-20,0.5c-8.1,6-10.1,19.6-3.7,26.3c4.8,4.9,12.2,4,13.1,3.9
			c8.7-1.2,15.3-9.6,15.6-17.9C68.8,491.4,69.1,484.2,63.8,479.8z M65.1,497.1c-1.7,1.6-3.3,0.7-5.5,2.8c-1.9,1.8-1.6,3.2-3.2,3.9
			c-1.9,0.8-4.1-0.3-5.6-1c-0.9-0.5-3.9-2-5.7-5.5c-1.7-3.3-1.3-6.4-0.9-9.6c0.3-2.7,0.5-4,1.5-5.3c2.1-2.6,5.8-2.8,8.4-2.9
			c1.9-0.1,3.5-0.2,5.4,0.5c3.2,1.1,6,3.9,7.1,7.5C67.4,490.2,67.6,494.8,65.1,497.1z"/>
	</g>
	<g>
		<path fill="#94A89A" d="M199.2,481.9c1.5,4,1.1,5.2,1,5.5c0,0.1-0.1,0.2-0.1,0.3c-0.5,1-1.3,1-2.3,2.9c-0.6,1.1-1,2.4-1.3,3.5
			c-0.4,1.3-0.4,1.5-0.7,2.2c-0.1,0.3-0.9,1.8-2.1,2.7c-1.6,1.1-3.6,0.8-5.4,0.5c-0.6-0.1-1.1-0.2-1.6-0.4l-0.1-3.5l-1.3,3.1
			c-0.2-0.1-0.3-0.1-0.5-0.2c-2-0.8-3.3-1.7-3.9-2.1c-2.7-1.9-6.4-4.5-7.5-8.5c-0.2-0.7-0.3-1.4-0.3-2.2c-0.2-5.9,5.4-9.7,6.4-10.3
			c3.5-2.3,7-2.3,8-2.3c1.6,0,5.9,0,8.8,3C197.4,477.3,198,478.8,199.2,481.9z"/>
		<path fill="#AEC1B5" d="M199.2,481.9c1.5,4,1.1,5.2,1,5.5c0,0.1-0.1,0.2-0.1,0.3c-6.2-3.1-11.3-3.9-14.9-4c-1.3,0-2.9,0.1-4.5,0.5
			c-3,0.7-5.4,2.2-7.2,3.6c-0.2-0.7-0.3-1.4-0.3-2.2c-0.2-5.9,5.4-9.7,6.4-10.3c3.5-2.3,7-2.3,8-2.3c1.6,0,5.9,0,8.8,3
			C197.4,477.3,198,478.8,199.2,481.9z"/>
		<g>
			<path fill="#4B5D54" d="M190.8,484.3c1.3,3,0.6,6.2-1.6,7.2c-0.3,0.1-0.6,0.2-0.9,0.3c-2,0.3-4.4-1.2-5.5-3.8
				c-1.2-2.6-0.8-5.3,0.8-6.7c0.2-0.2,0.5-0.4,0.8-0.5C186.6,479.8,189.5,481.4,190.8,484.3z"/>
			<path fill="#2C3A3B" d="M189.2,485.1c1.2,2.6,0.8,5.3-0.8,6.7c-2,0.3-4.4-1.2-5.5-3.8c-1.2-2.6-0.8-5.3,0.8-6.7
				C185.7,481,188,482.5,189.2,485.1z"/>
		</g>
		<g>
			<path fill="#4B5D54" d="M198.1,482.7c0.8,1.8,0.4,3.8-1,4.4c-0.2,0.1-0.4,0.1-0.5,0.2c-1.3,0.2-2.7-0.8-3.4-2.3
				c-0.7-1.6-0.5-3.3,0.5-4.1c0.1-0.1,0.3-0.2,0.5-0.3C195.5,479.9,197.3,480.9,198.1,482.7z"/>
			<path fill="#2C3A3B" d="M197.1,483.2c0.7,1.6,0.5,3.3-0.5,4.1c-1.3,0.2-2.7-0.8-3.4-2.3c-0.7-1.6-0.5-3.3,0.5-4.1
				C195,480.7,196.4,481.6,197.1,483.2z"/>
		</g>
		<g>
			<path fill="#4B5D54" d="M194.5,490.5c0.1,0.3-0.2,0.7-0.7,0.9c-0.1,0-0.1,0.1-0.2,0.1c-0.4,0.1-0.8,0.1-0.9-0.2
				c-0.1-0.3,0.1-0.6,0.5-0.8c0.1,0,0.1-0.1,0.2-0.1C193.8,490.1,194.3,490.2,194.5,490.5z"/>
			<path fill="#2C3A3B" d="M194.1,490.6c0.1,0.3-0.1,0.6-0.5,0.8c-0.4,0.1-0.8,0.1-0.9-0.2c-0.1-0.3,0.1-0.6,0.5-0.8
				C193.6,490.3,194,490.4,194.1,490.6z"/>
		</g>
		<g>
			<path fill="#4B5D54" d="M196.1,489.6c0.1,0.2-0.1,0.5-0.5,0.7c0,0-0.1,0-0.1,0.1c-0.3,0.1-0.6,0-0.7-0.1
				c-0.1-0.2,0.1-0.5,0.4-0.6c0,0,0.1-0.1,0.1-0.1C195.6,489.3,196,489.4,196.1,489.6z"/>
			<path fill="#2C3A3B" d="M195.8,489.7c0.1,0.2-0.1,0.5-0.4,0.6c-0.3,0.1-0.6,0-0.7-0.1c-0.1-0.2,0.1-0.5,0.4-0.6
				C195.4,489.5,195.7,489.5,195.8,489.7z"/>
		</g>
		<g>
			<path fill="#4B5D54" d="M195.7,493.8c0.2,0.5-0.3,1.3-1.2,1.8c-0.1,0.1-0.2,0.1-0.4,0.1c-0.8,0.3-1.6,0.1-1.8-0.4
				c-0.2-0.5,0.2-1.1,0.9-1.6c0.1-0.1,0.2-0.1,0.3-0.2C194.5,493.2,195.5,493.3,195.7,493.8z"/>
			<path fill="#2C3A3B" d="M195,494.2c0.2,0.5-0.2,1.1-0.9,1.6c-0.8,0.3-1.6,0.1-1.8-0.4c-0.2-0.5,0.2-1.1,0.9-1.6
				C194,493.5,194.8,493.7,195,494.2z"/>
		</g>
		<path fill="#AEC1B5" d="M176.4,485.8c0,0.4,0,1,0.1,1.7c0.3,1.2,0.9,2.1,1.3,2.5c-0.2-0.6-0.4-1.5-0.3-2.6
			c0.1-1.6,0.8-2.7,1.2-3.2C177.9,484.7,177.1,485.3,176.4,485.8z"/>
		<path fill="#AEC1B5" d="M192.1,484.6c0.1,0.4,0.3,1,0.4,1.6c0.1,0.9,0,1.6-0.1,2.1c0.2-0.4,0.6-1,0.7-1.9c0.1-0.7,0-1.4-0.1-1.8
			C192.6,484.7,192.4,484.7,192.1,484.6z"/>
		<polygon fill="#4B5D54" points="186.6,499.1 186,498.3 186.1,496.6 186.5,495.6 		"/>
		<path fill="#C09551" d="M190.9,471.8c-7.2-2-14.8,2.9-18,8.7c-4.9,8.8-1.1,22,7.5,25.5c6.4,2.5,12.7-1.4,13.5-1.9
			c7.4-4.7,10-15,6.8-22.8C200.3,480.3,197.6,473.7,190.9,471.8z M199.2,487.1c-0.9,2.1-2.7,2-3.8,4.8c-1,2.4-0.2,3.5-1.3,4.9
			c-1.4,1.5-3.8,1.4-5.6,1.4c-1.1,0-4.4-0.2-7.4-2.7c-2.9-2.3-3.9-5.3-4.8-8.3c-0.8-2.6-1.2-3.9-0.8-5.4c0.8-3.2,4.1-4.9,6.4-6.1
			c1.7-0.9,3.1-1.6,5.2-1.8c3.4-0.3,7.1,1.1,9.5,3.9C198.5,479.9,200.6,484,199.2,487.1z"/>
	</g>
	<g>
		<path fill="#94A89A" d="M299.2,503.1c-4.1,4.8-5.9,5.2-6.5,5.3c-0.2,0-0.4,0-0.5,0c-1.7,0.1-2.2-1-5.3-0.9c-1.9,0-3.8,0.5-5.4,0.8
			c-2,0.4-2.3,0.6-3.3,0.7c-0.5,0-3,0.2-5-0.8c-2.6-1.3-3.7-4.1-4.6-6.6c-0.3-0.8-0.5-1.6-0.7-2.3l4.5-2.7l-4.9,0.5
			c0-0.3-0.1-0.5-0.1-0.8c-0.4-3.1-0.2-5.6-0.1-6.6c0.5-4.9,1.3-11.6,5.6-15.9c0.7-0.7,1.6-1.4,2.6-2c7.5-4.4,16.5,0,18,0.8
			c5.5,2.9,8,7.3,8.8,8.7c1.2,2.1,4.3,7.7,2.5,13.6C303.9,497.4,302.4,499.3,299.2,503.1z"/>
		<path fill="#AEC1B5" d="M299.2,503.1c-4.1,4.8-5.9,5.2-6.5,5.3c-0.2,0-0.4,0-0.5,0c-0.5-10.3-3.2-17.5-5.6-22.2
			c-0.9-1.7-2.2-3.6-3.9-5.5c-3.1-3.4-6.7-5.4-9.9-6.7c0.7-0.7,1.6-1.4,2.6-2c7.5-4.4,16.5,0,18,0.8c5.5,2.9,8,7.3,8.8,8.7
			c1.2,2.1,4.3,7.7,2.5,13.6C303.9,497.4,302.4,499.3,299.2,503.1z"/>
		<g>
			<path fill="#4B5D54" d="M290.1,494c-2.9,3.9-7.5,5.3-10.4,3.1c-0.4-0.3-0.7-0.6-1-1c-1.9-2.4-1.6-6.6,0.9-9.9
				c2.5-3.4,6.3-4.9,9.2-3.8c0.4,0.2,0.8,0.4,1.2,0.7C292.9,485.3,292.9,490.2,290.1,494z"/>
			<path fill="#2C3A3B" d="M287.9,492.4c-2.5,3.4-6.3,4.9-9.2,3.8c-1.9-2.4-1.6-6.6,0.9-9.9c2.5-3.4,6.3-4.9,9.2-3.8
				C290.7,484.9,290.4,489,287.9,492.4z"/>
		</g>
		<g>
			<path fill="#4B5D54" d="M297.4,502.3c-1.8,2.4-4.6,3.2-6.4,1.9c-0.2-0.2-0.4-0.4-0.6-0.6c-1.2-1.5-1-4,0.6-6.1
				c1.5-2.1,3.9-3,5.7-2.3c0.3,0.1,0.5,0.2,0.7,0.4C299.1,496.9,299.2,499.9,297.4,502.3z"/>
			<path fill="#2C3A3B" d="M296.1,501.3c-1.5,2.1-3.9,3-5.7,2.3c-1.2-1.5-1-4,0.6-6.1c1.5-2.1,3.9-3,5.7-2.3
				C297.8,496.7,297.6,499.3,296.1,501.3z"/>
		</g>
		<g>
			<path fill="#4B5D54" d="M284.7,503.2c-0.3,0.4-1,0.3-1.7-0.2c-0.1-0.1-0.2-0.1-0.2-0.2c-0.5-0.5-0.7-1-0.4-1.3
				c0.2-0.3,0.8-0.3,1.4,0c0.1,0,0.2,0.1,0.3,0.2C284.7,502.1,285,502.8,284.7,503.2z"/>
			<path fill="#2C3A3B" d="M284.2,502.8c-0.2,0.3-0.8,0.3-1.4,0c-0.5-0.5-0.7-1-0.4-1.3c0.2-0.3,0.8-0.3,1.4,0
				C284.3,502,284.5,502.5,284.2,502.8z"/>
		</g>
		<g>
			<path fill="#4B5D54" d="M287.1,504.7c-0.2,0.3-0.8,0.2-1.3-0.1c-0.1,0-0.1-0.1-0.2-0.1c-0.4-0.3-0.5-0.8-0.3-1
				c0.2-0.2,0.6-0.2,1.1,0c0.1,0,0.1,0.1,0.2,0.1C287,503.9,287.3,504.4,287.1,504.7z"/>
			<path fill="#2C3A3B" d="M286.7,504.4c-0.2,0.2-0.6,0.2-1.1,0c-0.4-0.3-0.5-0.8-0.3-1c0.2-0.2,0.6-0.2,1.1,0
				C286.7,503.7,286.9,504.2,286.7,504.4z"/>
		</g>
		<g>
			<path fill="#4B5D54" d="M281.3,507.2c-0.5,0.7-2,0.6-3.2-0.3c-0.2-0.1-0.3-0.2-0.4-0.4c-0.9-0.9-1.3-1.9-0.8-2.6
				c0.5-0.6,1.6-0.6,2.7,0c0.2,0.1,0.3,0.2,0.5,0.3C281.2,505.2,281.8,506.5,281.3,507.2z"/>
			<path fill="#2C3A3B" d="M280.3,506.6c-0.5,0.6-1.6,0.6-2.7,0c-0.9-0.9-1.3-1.9-0.8-2.6c0.5-0.6,1.6-0.6,2.7,0
				C280.4,504.9,280.8,505.9,280.3,506.6z"/>
		</g>
		<path fill="#AEC1B5" d="M277.6,476.4c-0.6,0.3-1.4,0.7-2.1,1.4c-1.4,1.2-2,2.7-2.3,3.5c0.6-0.6,1.6-1.6,3.2-2.3
			c2.1-1,4.1-0.9,5-0.8C280.2,477.5,278.9,477,277.6,476.4z"/>
		<path fill="#AEC1B5" d="M290.5,495.8c-0.4,0.5-1.1,1.1-1.8,1.6c-1.1,0.7-2.1,1.2-2.8,1.4c0.6,0,1.7,0,2.9-0.5c1-0.4,1.8-1,2.2-1.4
			C290.8,496.7,290.7,496.3,290.5,495.8z"/>
		<polygon fill="#4B5D54" points="267.8,499.3 268.5,498 270.7,496.8 272.3,496.6 		"/>
		<path fill="#C09551" d="M306.3,485.1c-2.7-10.8-14.5-17-24.4-17c-15,0-29.3,14.5-27.5,28.2c1.2,9,9,14.3,11.5,15.8H292
			c3.5-1.8,6.6-4.3,9-7.3C302.1,503.4,308.8,495,306.3,485.1z M302.9,496.7c-1.5,4.1-5.2,9.7-10.3,10.3c-0.2,0-0.3,0-0.5,0
			c-3.1,0.1-4.3-2-8.5-1.5c-0.9,0.1-1.6,0.3-2.3,0.5c-0.3,0.1-0.6,0.2-0.8,0.3c-0.6,0.3-1.2,0.5-1.7,0.7c-0.1,0-0.3,0.1-0.4,0.1
			c-0.6,0.2-1.3,0.3-2.1,0.1c-3-0.7-4.6-3.9-5.8-6.2c-0.3-0.5-0.7-1.4-1.1-2.7c-0.1-0.2-0.2-0.5-0.2-0.7c-0.1-0.2-0.1-0.4-0.2-0.6
			c-0.5-2-0.8-4.6-0.4-7.5c0.9-5.4,4.1-8.8,7.3-12.3c0.4-0.4,0.8-0.8,1.1-1.2c2-2.1,3.3-3.3,5.3-3.8c4.7-1.2,9.4,1.8,12.6,3.9
			c2.4,1.5,4.4,2.8,6.1,5.4C303.9,485.7,304.7,491.5,302.9,496.7z"/>
	</g>
	<g>
		<path fill="#94A89A" d="M508.7,476.7c3.5,5.3,3.4,7.1,3.3,7.7c0,0.2-0.1,0.3-0.1,0.5c-0.4,1.6-1.5,1.8-2.3,4.9
			c-0.5,1.8-0.6,3.8-0.7,5.5c-0.1,2.1,0,2.3-0.2,3.4c-0.1,0.5-0.6,2.9-2.1,4.6c-2,2.2-4.9,2.4-7.6,2.6c-0.8,0-1.6,0.1-2.4,0l-1.4-5
			l-0.8,4.9c-0.3,0-0.5-0.1-0.8-0.1c-3.1-0.5-5.4-1.3-6.3-1.7c-4.5-1.8-10.8-4.4-13.7-9.7c-0.5-0.9-0.9-1.9-1.2-3
			c-2.2-8.4,4.5-15.8,5.7-17.1c4.3-4.5,9.2-5.7,10.8-6.1c2.4-0.6,8.6-2.1,13.8,1.3C504.6,470.6,506,472.6,508.7,476.7z"/>
		<path fill="#AEC1B5" d="M508.7,476.7c3.5,5.3,3.4,7.1,3.3,7.7c0,0.2-0.1,0.3-0.1,0.5c-10-2.4-17.7-1.8-22.9-0.7
			c-1.9,0.4-4.1,1.1-6.4,2.2c-4.1,2.1-7.1,5-9.2,7.7c-0.5-0.9-0.9-1.9-1.2-3c-2.2-8.4,4.5-15.8,5.7-17.1c4.3-4.5,9.2-5.7,10.8-6.1
			c2.4-0.6,8.6-2.1,13.8,1.3C504.6,470.6,506,472.6,508.7,476.7z"/>
		<g>
			<path fill="#4B5D54" d="M497.5,483c2.9,3.8,3,8.7,0.1,10.9c-0.4,0.3-0.8,0.5-1.2,0.7c-2.9,1.1-6.7-0.3-9.3-3.6
				c-2.6-3.3-2.9-7.4-1.1-9.9c0.3-0.4,0.6-0.7,1-1C489.9,477.9,494.6,479.2,497.5,483z"/>
			<path fill="#2C3A3B" d="M495.4,484.7c2.6,3.3,2.9,7.4,1.1,9.9c-2.9,1.1-6.7-0.3-9.3-3.6c-2.6-3.3-2.9-7.4-1.1-9.9
				C488.9,479.9,492.8,481.3,495.4,484.7z"/>
		</g>
		<g>
			<path fill="#4B5D54" d="M507.5,478.2c1.8,2.3,1.8,5.3,0.1,6.7c-0.2,0.2-0.5,0.3-0.7,0.4c-1.8,0.7-4.2-0.2-5.7-2.2
				c-1.6-2-1.8-4.6-0.7-6.1c0.2-0.2,0.4-0.4,0.6-0.6C502.8,475.1,505.7,475.9,507.5,478.2z"/>
			<path fill="#2C3A3B" d="M506.2,479.2c1.6,2,1.8,4.6,0.7,6.1c-1.8,0.7-4.2-0.2-5.7-2.2c-1.6-2-1.8-4.6-0.7-6.1
				C502.2,476.3,504.6,477.2,506.2,479.2z"/>
		</g>
		<g>
			<path fill="#4B5D54" d="M504.9,490.7c0.3,0.4,0,1.1-0.6,1.6c-0.1,0.1-0.2,0.1-0.2,0.2c-0.6,0.3-1.2,0.4-1.4,0
				c-0.2-0.3-0.1-0.9,0.4-1.4c0.1-0.1,0.1-0.1,0.2-0.2C503.8,490.4,504.6,490.3,504.9,490.7z"/>
			<path fill="#2C3A3B" d="M504.4,491c0.2,0.3,0.1,0.9-0.4,1.4c-0.6,0.3-1.2,0.4-1.4,0c-0.2-0.3-0.1-0.9,0.4-1.4
				C503.5,490.7,504.1,490.7,504.4,491z"/>
		</g>
		<g>
			<path fill="#4B5D54" d="M506.9,488.8c0.2,0.3,0,0.8-0.5,1.2c-0.1,0-0.1,0.1-0.2,0.1c-0.4,0.3-0.9,0.3-1.1,0
				c-0.2-0.2-0.1-0.7,0.3-1c0.1-0.1,0.1-0.1,0.2-0.2C506.1,488.6,506.7,488.5,506.9,488.8z"/>
			<path fill="#2C3A3B" d="M506.6,489.1c0.2,0.2,0.1,0.7-0.3,1c-0.4,0.3-0.9,0.3-1.1,0c-0.2-0.2-0.1-0.7,0.3-1
				C505.9,488.9,506.4,488.8,506.6,489.1z"/>
		</g>
		<g>
			<path fill="#4B5D54" d="M507.8,495.1c0.5,0.7,0,2-1.2,3c-0.2,0.1-0.3,0.2-0.5,0.3c-1.1,0.6-2.2,0.7-2.7,0.1
				c-0.5-0.6-0.1-1.7,0.8-2.6c0.1-0.1,0.3-0.3,0.4-0.4C505.9,494.6,507.3,494.4,507.8,495.1z"/>
			<path fill="#2C3A3B" d="M506.9,495.8c0.5,0.6,0.1,1.7-0.8,2.6c-1.1,0.6-2.2,0.7-2.7,0.1c-0.5-0.6-0.1-1.7,0.8-2.6
				C505.3,495.2,506.4,495.2,506.9,495.8z"/>
		</g>
		<path fill="#AEC1B5" d="M477.2,490.1c0.1,0.6,0.3,1.5,0.7,2.4c0.8,1.7,2,2.7,2.7,3.1c-0.5-0.7-1.1-2-1.3-3.7
			c-0.3-2.3,0.2-4.2,0.6-5.1C479,487.9,478.1,489,477.2,490.1z"/>
		<path fill="#AEC1B5" d="M499.4,483c0.4,0.6,0.8,1.3,1.1,2.2c0.4,1.2,0.6,2.3,0.6,3.1c0.2-0.6,0.5-1.6,0.3-2.9
			c-0.1-1.1-0.4-2-0.7-2.5C500.3,483,499.8,483,499.4,483z"/>
		<polygon fill="#4B5D54" points="496.5,505.8 495.4,504.8 494.8,502.4 495.1,500.8 		"/>
		<path fill="#C09551" d="M510.8,475.4c-1-1.4-7.2-10.1-17.5-10.5c-11.1-0.4-20.3,9.3-23,18.8c-2.8,9.9,1,21.4,8.2,28.3h28.8
			c0.8-0.7,1.3-1.2,1.5-1.4C517.9,501.2,518,485.5,510.8,475.4z M494.5,504.1c-2.1,0-4.6-0.4-7.3-1.7c-5-2.4-7.4-6.3-9.8-10.4
			c-0.3-0.5-0.6-1-0.8-1.4c-1.5-2.5-2.2-4.1-2.2-6.1c0.1-4.9,4.3-8.5,7.2-11.1c2.1-1.8,3.9-3.4,6.8-4.4c4.8-1.6,10.6-0.8,15.1,2.4
			c3.5,2.5,7.9,7.7,7,12.7c0,0.2-0.1,0.3-0.1,0.5c-0.7,3-3.1,3.5-3.8,7.8c-0.2,0.9-0.2,1.6-0.1,2.3c0,0.3,0,0.6,0.1,0.9
			c0.1,0.7,0.2,1.3,0.3,1.8c0,0.1,0,0.3,0,0.4c0,0.7-0.1,1.3-0.5,2c-1.5,2.7-5,3.4-7.6,3.9c-0.6,0.1-1.6,0.3-2.9,0.4
			c-0.3,0-0.5,0-0.8,0C495,504.1,494.8,504.1,494.5,504.1z"/>
	</g>
	<g>
		<polygon fill="#416E4A" points="122.1,431 170,408 126.4,431 131,455.9 		"/>
		<polygon fill="#3D7854" points="126.4,431 126.4,442.9 122.1,431 170,408 		"/>
	</g>
	<g>
		<polygon fill="#416E4A" points="293.5,431 341.4,408 297.8,431 302.4,455.9 		"/>
		<polygon fill="#3D7854" points="297.8,431 297.8,442.9 293.5,431 341.4,408 		"/>
	</g>
	<g>
		<polygon fill="#416E4A" points="468.7,431 516.6,408 473,431 477.6,455.9 		"/>
		<polygon fill="#3D7854" points="473,431 473,442.9 468.7,431 516.6,408 		"/>
	</g>
	<g>
		<polygon fill="#416E4A" points="650.3,431 698.1,408 654.5,431 659.1,455.9 		"/>
		<polygon fill="#3D7854" points="654.5,431 654.5,442.9 650.3,431 698.1,408 		"/>
	</g>
	<g>
		<polygon fill="#416E4A" points="840,431 887.9,408 844.3,431 848.9,455.9 		"/>
		<polygon fill="#3D7854" points="844.3,431 844.3,442.9 840,431 887.9,408 		"/>
	</g>
	<g>
		<polygon fill="#416E4A" points="970.7,431 1018.6,408 975,431 979.6,455.9 		"/>
		<polygon fill="#3D7854" points="975,431 975,442.9 970.7,431 1018.6,408 		"/>
	</g>
	<path fill="#E0C66B" d="M93.7,482.1l-4.8,4.4L97,507c0,0,24-8.6,23.2-9.6C119.3,496.3,93.7,482.1,93.7,482.1z"/>
	<polygon fill="#E0C66B" points="242,482.1 245,489.3 221,503.5 218,490 	"/>
	<polygon fill="#E0C66B" points="346.3,493.3 338.7,499.9 356.7,500.7 	"/>
	<polygon fill="#E0C66B" points="428.2,488.1 434.3,488.4 434.3,507 421.7,501.8 	"/>
	<polygon fill="#E0C66B" points="545,488.4 541.7,492.6 562,503.3 568.7,488.1 	"/>
	<polygon fill="#E0C66B" points="672,490.8 676.3,494.3 663,507 656.3,495.3 	"/>
	<polygon fill="#E0C66B" points="740.3,495.2 736.7,498.5 744.3,508.4 751.7,498 	"/>
	<polygon fill="#E0C66B" points="877,485 871,486 869,503.7 885,499.8 	"/>
	<polygon fill="#E0C66B" points="1006.3,484.5 990.6,499.5 1001.3,506 1008,490.8 	"/>
</g>
</svg>
