<svg width="17" height="30" viewBox="0 0 17 30" fill="none" xmlns="http://www.w3.org/2000/svg">
<path d="M51.2808 31.7549L40.4234 34.6775L36.2383 32.251V27.6974L40.3756 25.3095L51.2806 28.2464C51.4998 28.3052 51.72 28.3342 51.9383 28.3342C53.0584 28.3342 54.0834 27.5823 54.3862 26.4434C54.7489 25.0823 53.9461 23.6836 52.592 23.3194L46.6137 21.7094L52.1249 18.5292C53.3396 17.8279 53.76 16.2691 53.0622 15.0477C52.362 13.8262 50.8142 13.4031 49.599 14.106L44.0764 17.2938L45.6779 11.2829C46.0403 9.92224 45.2386 8.52325 43.8839 8.15902C42.5383 7.80425 41.141 8.60226 40.7781 9.96201L37.8682 20.8752L33.705 23.2783L29.7584 20.9848V16.1725L37.7394 8.15099C38.7301 7.15469 38.7301 5.54094 37.7394 4.5445C36.7484 3.54833 35.1432 3.54833 34.1514 4.5445L29.7584 8.95974V2.55008C29.7586 1.14189 28.6222 0 27.221 0C25.8201 0 24.6839 1.14176 24.6839 2.55008V8.92814L20.3228 4.5445C19.3317 3.54833 17.7261 3.54833 16.7348 4.5445C15.7436 5.54081 15.7436 7.15456 16.7348 8.15099L24.6839 16.1405V21.0033L20.7672 23.2744L16.604 20.8736L13.6962 9.96214C13.3339 8.60239 11.9432 7.80218 10.5905 8.15915C9.23657 8.52337 8.43308 9.92237 8.79584 11.283L10.3972 17.2928L4.8749 14.106C3.65748 13.403 2.10785 13.8252 1.41118 15.0483C0.713879 16.27 1.13438 17.8278 2.34947 18.529L7.86013 21.7093L1.88168 23.3192C0.527665 23.6835 -0.27557 25.0822 0.0870651 26.4433C0.390549 27.5822 1.41531 28.3341 2.53556 28.3341C2.75373 28.3341 2.9741 28.305 3.19395 28.2462L14.1003 25.3084L18.233 27.6932L18.2372 32.2509L14.0508 34.6818L3.19395 31.7548C1.84946 31.4002 0.450215 32.1991 0.0870651 33.5583C-0.27557 34.9188 0.527665 36.318 1.88168 36.6802L7.83822 38.286L2.34316 41.4743C1.13012 42.1791 0.713879 43.7374 1.41544 44.9567C1.88542 45.7774 2.73801 46.2318 3.61393 46.2318C4.04396 46.2318 4.48044 46.1243 4.88031 45.8891L10.4032 42.6857L8.79584 48.7185C8.43308 50.0814 9.23657 51.4761 10.5905 51.8425C10.8097 51.9022 11.0299 51.9305 11.2482 51.9305C12.3679 51.9305 13.3927 51.1774 13.6962 50.0377L16.6184 39.0793L20.7746 36.669L24.6839 38.9362V43.8613L16.7348 51.8511C15.7436 52.8471 15.7436 54.4606 16.7348 55.4573C17.2304 55.9555 17.8785 56.2023 18.5287 56.2023C19.1768 56.2023 19.8272 55.9555 20.3228 55.4573L24.6839 51.0739V57.4498C24.6839 58.8606 25.8201 60 27.221 60C28.6222 60 29.7586 58.8603 29.7586 57.4498V51.0421L34.1515 55.4573C34.647 55.9555 35.2951 56.2023 35.9455 56.2023C36.5959 56.2023 37.244 55.9555 37.7395 55.4573C38.7302 54.4609 38.7302 52.8474 37.7395 51.8511L29.7586 43.8295V38.9559L33.7013 36.6687L37.8564 39.079L40.7786 50.0375C41.0817 51.1772 42.1064 51.9302 43.226 51.9302C43.4436 51.9302 43.6645 51.902 43.8842 51.8423C45.2388 51.4758 46.0404 50.0811 45.6782 48.7183L44.069 42.6854L49.5939 45.8888C49.9939 46.1238 50.4303 46.2315 50.8604 46.2315C51.7364 46.2315 52.5887 45.7771 53.0588 44.9565C53.7602 43.7371 53.3442 42.1791 52.1311 41.4741L46.636 38.2862L52.5924 36.6804C53.9465 36.3181 54.7493 34.9188 54.3865 33.5586C54.026 32.1991 52.6325 31.3985 51.2808 31.7549ZM31.1637 32.251L27.2369 34.5305L23.3128 32.2509L23.3084 27.6891L27.2369 25.4112L31.1637 27.6925V32.251Z" fill="#00B3FF"/>
</svg>
