<svg width="8" height="10" viewBox="0 0 8 10" fill="none" xmlns="http://www.w3.org/2000/svg">
<path d="M41.289 20.6656C41.2895 32.0796 32.0473 41.3328 20.6455 41.3333C9.24384 41.3338 0.000645163 32.0816 2.16144e-08 20.6677C-0.000516091 9.25376 9.24191 0.000516733 20.6435 6.62711e-08C20.6439 6.62711e-08 20.6441 6.62711e-08 20.6445 6.62711e-08C32.0452 -0.0009041 41.2881 9.25027 41.289 20.6633C41.289 20.6641 41.289 20.6649 41.289 20.6656Z" transform="translate(10.5114 10.3334)" fill="#A5E4F2"/>
<path d="M8.25781 16.5333C12.8185 16.5333 16.5156 12.8322 16.5156 8.26667C16.5156 3.70111 12.8185 0 8.25781 0C3.69715 0 0 3.70111 0 8.26667C0 12.8322 3.69715 16.5333 8.25781 16.5333Z" transform="translate(22.8983 22.7333)" fill="#66AAB5"/>
<path d="M17.5478 35.1333C7.8564 35.1333 0 27.2685 0 17.5667C0 7.86483 7.8564 0 17.5478 0V2.06667C8.99662 2.06667 2.06445 9.00628 2.06445 17.5667C2.06445 26.1271 8.99662 33.0667 17.5478 33.0667C26.0991 33.0667 33.0312 26.1271 33.0312 17.5667H35.0957C35.0848 27.264 27.2348 35.1225 17.5478 35.1333Z" transform="translate(13.6083 13.4333)" fill="#66AAB5"/>
<path d="M13.4189 26.8667V24.8C19.6898 24.8 24.7734 19.711 24.7734 13.4333C24.7734 7.1557 19.6898 2.06667 13.4189 2.06667C7.14803 2.06667 2.06445 7.1557 2.06445 13.4333H0C0 6.01426 6.00781 0 13.4189 0C20.8301 0 26.8379 6.01426 26.8379 13.4333C26.8379 20.8524 20.8301 26.8667 13.4189 26.8667Z" transform="translate(17.7372 17.5669)" fill="#66AAB5"/>
<path d="M30.9668 9.3C26.5296 9.29858 22.2003 10.6692 18.5706 13.2241C24.8102 6.44051 34.521 2.06667 45.4179 2.06667V0C25.4982 0 9.29158 13.9052 9.29003 30.9975V30.999V31C9.28887 35.4422 10.6582 39.7764 13.2108 43.4099C6.43451 37.1638 2.06497 27.4424 2.06445 16.5333H0C0.00103223 36.4755 13.8922 52.7 30.9657 52.7H30.9668C35.4043 52.7013 39.734 51.3304 43.3637 48.7749C37.124 55.5586 27.4128 59.9328 16.5156 59.9333V62C36.4369 61.999 52.644 48.0924 52.644 31.001H52.6434L52.6435 30.999C52.6448 26.5576 51.2759 22.224 48.724 18.591C55.5002 24.8372 59.8691 34.5582 59.8691 45.4667H61.9335C61.9335 25.5245 48.0419 9.3 30.9668 9.3ZM50.5791 30.999C50.5792 41.8421 41.7986 50.6324 30.9669 50.6324C20.1354 50.6326 11.3546 41.8425 11.3545 30.9994V30.9975C11.3741 20.1544 20.1707 11.3802 31.0024 11.3999C41.8067 11.4195 50.5602 20.1831 50.5791 30.999Z" transform="translate(0.189346)" fill="#61ABE2"/>
</svg>
