<svg width="30" height="30" viewBox="0 0 30 30" fill="none" xmlns="http://www.w3.org/2000/svg">
<path d="M20 9.9995C20.0002 15.5224 15.5234 19.9998 10.0005 20C4.47762 20.0002 0.00031251 15.5234 1.04698e-08 10.0005C-0.00024999 4.47762 4.47669 0.000250032 9.9995 3.20667e-08C9.99969 3.20667e-08 9.99981 3.20667e-08 10 3.20667e-08C15.5224 -0.000437468 19.9996 4.47594 20 9.99837C20 9.99875 20 9.99913 20 9.9995Z" transform="translate(4.99988 5)" fill="#A5E4F2"/>
<path d="M4 8C6.20914 8 8 6.20914 8 4C8 1.79086 6.20914 0 4 0C1.79086 0 0 1.79086 0 4C0 6.20914 1.79086 8 4 8Z" transform="translate(11 11)" fill="#66AAB5"/>
<path d="M8.5 17C3.80556 17 0 13.1944 0 8.5C0 3.80556 3.80556 0 8.5 0V1C4.35787 1 1 4.35787 1 8.5C1 12.6421 4.35787 16 8.5 16C12.6421 16 16 12.6421 16 8.5H17C16.9947 13.1922 13.1922 16.9947 8.5 17Z" transform="translate(6.5 6.5)" fill="#66AAB5"/>
<path d="M6.5 13V12C9.53756 12 12 9.53756 12 6.5C12 3.46244 9.53756 1 6.5 1C3.46244 1 1 3.46244 1 6.5H0C0 2.91013 2.91013 0 6.5 0C10.0899 0 13 2.91013 13 6.5C13 10.0899 10.0899 13 6.5 13Z" transform="translate(8.5 8.50012)" fill="#66AAB5"/>
<path d="M15 4.5C12.8507 4.49931 10.7536 5.1625 8.99544 6.39875C12.0178 3.11637 16.7216 1 22 1V0C12.3511 0 4.50075 6.72831 4.5 14.9988V14.9995V15C4.49944 17.1494 5.16275 19.2466 6.39919 21.0048C3.11681 17.9825 1.00025 13.2786 1 8H0C0.0005 17.6494 6.72925 25.5 14.9995 25.5H15C17.1495 25.5006 19.2467 24.8373 21.0049 23.6007C17.9825 26.8832 13.2785 28.9998 8 29V30C17.6497 29.9995 25.5002 23.2705 25.5002 15.0005H25.4999L25.5 14.9995C25.5006 12.8504 24.8376 10.7536 23.6014 8.99562C26.8837 12.018 29 16.7217 29 22H30C30 12.3506 23.271 4.5 15 4.5ZM24.5 14.9995C24.5001 20.2462 20.2468 24.4996 15.0001 24.4996C9.75338 24.4996 5.50006 20.2464 5.5 14.9997V14.9988C5.5095 9.75212 9.7705 5.50656 15.0173 5.51606C20.2507 5.52556 24.4909 9.766 24.5 14.9995Z" fill="#61ABE2"/>
</svg>
