<svg width="8" height="9" viewBox="0 0 8 9" fill="none" xmlns="http://www.w3.org/2000/svg">
<path d="M7.5311 4.63988L5.93658 5.06692L5.32195 4.71237V4.04702L5.92956 3.69811L7.53106 4.12723C7.56325 4.13582 7.59559 4.14006 7.62765 4.14006C7.79216 4.14006 7.94269 4.0302 7.98715 3.86378C8.04042 3.66491 7.92251 3.46054 7.72366 3.40732L6.84569 3.17207L7.65506 2.7074C7.83345 2.60493 7.89519 2.37716 7.7927 2.1987C7.68988 2.02023 7.46257 1.9584 7.2841 2.06111L6.47306 2.52688L6.70825 1.64861C6.76147 1.44979 6.64373 1.24538 6.44479 1.19216C6.24717 1.14032 6.04196 1.25692 5.98866 1.4556L5.56132 3.05019L4.94992 3.40132L4.37032 3.06621V2.36304L5.5424 1.19099C5.6879 1.04541 5.6879 0.809616 5.5424 0.664022C5.39686 0.518466 5.16112 0.518466 5.01547 0.664022L4.37032 1.30916V0.372606C4.37034 0.166848 4.20345 0 3.99768 0C3.79194 0 3.62507 0.166829 3.62507 0.372606V1.30454L2.98461 0.664022C2.83905 0.518466 2.60326 0.518466 2.45767 0.664022C2.31211 0.809597 2.31211 1.04539 2.45767 1.19099L3.62507 2.35837V3.06891L3.04986 3.40075L2.43846 3.04995L2.01142 1.45562C1.95822 1.25694 1.75398 1.14002 1.55531 1.19218C1.35648 1.2454 1.23848 1.44981 1.29176 1.64862L1.52693 2.52675L0.715928 2.06111C0.537138 1.95838 0.309558 2.02008 0.207246 2.19879C0.10484 2.3773 0.166594 2.60491 0.345043 2.70738L1.15434 3.17206L0.276344 3.4073C0.0774928 3.46052 -0.0404701 3.6649 0.0127864 3.86377C0.0573561 4.03018 0.207852 4.14004 0.372372 4.14004C0.404413 4.14004 0.436776 4.1358 0.469063 4.12721L2.07077 3.69794L2.67769 4.0464L2.67832 4.71235L2.0635 5.06754L0.469063 4.63986C0.271612 4.58805 0.0661186 4.70478 0.0127864 4.90338C-0.0404701 5.10218 0.0774928 5.30661 0.276344 5.35955L1.15112 5.59417L0.344116 6.06004C0.16597 6.16301 0.10484 6.39071 0.207871 6.56887C0.276892 6.68878 0.402104 6.75517 0.530741 6.75517C0.593896 6.75517 0.657996 6.73947 0.716722 6.7051L1.52781 6.23703L1.29176 7.11853C1.23848 7.31766 1.35648 7.52145 1.55531 7.57499C1.58751 7.58372 1.61985 7.58784 1.65191 7.58784C1.81635 7.58784 1.96685 7.47781 2.01142 7.31128L2.44058 5.71009L3.05096 5.3579L3.62507 5.68917V6.40882L2.45767 7.57624C2.31211 7.72178 2.31211 7.95753 2.45767 8.10317C2.53045 8.17595 2.62563 8.21203 2.72113 8.21203C2.8163 8.21203 2.91182 8.17595 2.98461 8.10317L3.62507 7.46269V8.3943C3.62507 8.60044 3.79194 8.76692 3.99768 8.76692C4.20345 8.76692 4.37034 8.6004 4.37034 8.3943V7.45803L5.01549 8.10317C5.08826 8.17595 5.18344 8.21203 5.27895 8.21203C5.37447 8.21203 5.46965 8.17595 5.54242 8.10317C5.68792 7.95757 5.68792 7.72182 5.54242 7.57624L4.37034 6.40416V5.69205L4.94937 5.35786L5.55958 5.71005L5.98874 7.31124C6.03325 7.47777 6.18375 7.5878 6.34817 7.5878C6.38012 7.5878 6.41256 7.58368 6.44483 7.57495C6.64377 7.52141 6.76149 7.31762 6.70829 7.11849L6.47197 6.23699L7.28336 6.70506C7.34211 6.73939 7.40619 6.75514 7.46936 6.75514C7.598 6.75514 7.72317 6.68875 7.79221 6.56883C7.89522 6.39067 7.83413 6.16301 7.65597 6.06L6.84896 5.5942L7.72372 5.35957C7.92257 5.30663 8.04048 5.10218 7.9872 4.90342C7.93425 4.70478 7.72961 4.5878 7.5311 4.63988ZM4.5767 4.71237L4 5.04544L3.42372 4.71235L3.42308 4.04581L4 3.71297L4.5767 4.0463V4.71237Z" fill="#00B3FF"/>
</svg>
