<svg width="15" height="15" viewBox="0 0 15 15" fill="none" xmlns="http://www.w3.org/2000/svg">
<path d="M10.3125 5.39062C9.14648 5.39062 8.20312 6.33398 8.20312 7.5C8.20312 8.66602 9.14648 9.60938 10.3125 9.60938C11.4785 9.60938 12.4219 8.66602 12.4219 7.5C12.4219 6.33398 11.4785 5.39062 10.3125 5.39062ZM10.3125 8.67188C9.66504 8.67188 9.14062 8.14746 9.14062 7.5C9.14062 6.85254 9.66504 6.32812 10.3125 6.32812C10.96 6.32812 11.4844 6.85254 11.4844 7.5C11.4844 8.14746 10.96 8.67188 10.3125 8.67188ZM4.6875 5.39062C3.52148 5.39062 2.57812 6.33398 2.57812 7.5C2.57812 8.66602 3.52148 9.60938 4.6875 9.60938C5.85352 9.60938 6.79688 8.66602 6.79688 7.5C6.79688 6.33398 5.85352 5.39062 4.6875 5.39062ZM4.6875 8.67188C4.04004 8.67188 3.51562 8.14746 3.51562 7.5C3.51562 6.85254 4.04004 6.32812 4.6875 6.32812C5.33496 6.32812 5.85938 6.85254 5.85938 7.5C5.85938 8.14746 5.33496 8.67188 4.6875 8.67188ZM7.5 0C3.35742 0 0 2.93848 0 6.5625C0 8.61621 1.08105 10.4473 2.76855 11.6514C3.05273 11.8535 3.21387 12.1816 3.16406 12.5273L2.95605 13.1514C2.6543 14.0625 3.33398 15 4.29199 15H10.708C11.666 15 12.3457 14.0625 12.0439 13.1514L11.8359 12.5273C11.7861 12.1846 11.9473 11.8535 12.2314 11.6514C13.9189 10.4473 15 8.61621 15 6.5625C15 2.93848 11.6426 0 7.5 0ZM11.6865 10.8867C11.1094 11.2969 10.8105 11.9766 10.9072 12.6562L10.9189 12.7383L10.9453 12.8203L11.1533 13.4443C11.2178 13.6436 11.1416 13.793 11.0889 13.8662C11.0361 13.9395 10.9189 14.0596 10.708 14.0596H9.375V12.4189C9.375 12.29 9.26953 12.1846 9.14062 12.1846H8.67188C8.54297 12.1846 8.4375 12.29 8.4375 12.4189V14.0596H6.5625V12.4189C6.5625 12.29 6.45703 12.1846 6.32812 12.1846H5.85938C5.73047 12.1846 5.625 12.29 5.625 12.4189V14.0596H4.29199C4.08398 14.0596 3.96387 13.9365 3.91113 13.8662C3.8584 13.793 3.7793 13.6406 3.84668 13.4443L4.05469 12.8203L4.08105 12.7383L4.09277 12.6562C4.18945 11.9766 3.89062 11.2969 3.31348 10.8867C1.80176 9.81152 0.9375 8.23535 0.9375 6.5625C0.9375 3.45996 3.88184 0.9375 7.5 0.9375C11.1182 0.9375 14.0625 3.45996 14.0625 6.5625C14.0625 8.23535 13.1982 9.81152 11.6865 10.8867Z" fill="#2285A4"/>
</svg>
