<svg width="18" height="15" viewBox="0 0 18 15" fill="none" xmlns="http://www.w3.org/2000/svg">
<path d="M11.25 0C9.62277 0 8.14955 0.301339 7.08147 0.783482C7.05134 0.796875 5.35714 1.48661 5.35714 2.67857V3.23772C2.54799 3.35491 0 4.39955 0 5.89286V12.3214C0 13.8013 2.63839 15 5.89286 15C9.14732 15 11.7857 13.8013 11.7857 12.3214V11.7723C14.7891 11.6484 17.1429 10.5033 17.1429 9.10714V2.67857C17.1429 1.43973 15.0636 0 11.25 0ZM10.7143 12.3214C10.7143 12.7868 9.02344 13.9286 5.89286 13.9286C2.76228 13.9286 1.07143 12.7868 1.07143 12.3214V10.644C2.13616 11.3337 3.89732 11.7857 5.89286 11.7857C7.88839 11.7857 9.64955 11.3337 10.7143 10.644V12.3214ZM10.7143 9.10714C10.7143 9.57255 9.02344 10.7143 5.89286 10.7143C2.76228 10.7143 1.07143 9.57255 1.07143 9.10714V7.42969C2.13616 8.11942 3.89732 8.57143 5.89286 8.57143C7.88839 8.57143 9.64955 8.11942 10.7143 7.42969V9.10714ZM5.89286 7.5C3.1808 7.5 0.981027 6.78013 0.981027 5.89286C0.981027 5.00558 3.1808 4.28571 5.89286 4.28571C8.60491 4.28571 10.8047 5.00558 10.8047 5.89286C10.8047 6.78013 8.60491 7.5 5.89286 7.5ZM16.0714 9.10714C16.0714 9.54576 14.5647 10.567 11.7857 10.6908V8.54464C13.5536 8.47098 15.1038 8.0558 16.0714 7.42969V9.10714ZM16.0714 5.89286C16.0714 6.33147 14.5614 7.34598 11.7857 7.47321V5.89286C11.7857 5.70536 11.7288 5.52455 11.6484 5.3471C13.4766 5.29018 15.077 4.86161 16.0714 4.2154V5.89286ZM11.25 4.28571C11.0056 4.28571 10.7812 4.26897 10.5502 4.25558C9.31473 3.52902 7.70424 3.31138 6.67969 3.25112C6.46875 3.07366 6.34152 2.88281 6.34152 2.67857C6.34152 1.79129 8.5413 1.07143 11.2533 1.07143C13.9654 1.07143 16.1652 1.79129 16.1652 2.67857C16.1652 3.56585 13.9621 4.28571 11.25 4.28571Z" fill="#2285A4"/>
</svg>
