<svg width="16" height="15" viewBox="0 0 16 15" fill="none" xmlns="http://www.w3.org/2000/svg">
<path d="M14.6618 12.9421C14.6573 12.9376 14.6528 12.933 14.6482 12.9285L14.0704 12.3639L13.0166 11.3035L12.2353 10.5222L12.928 9.82947C13.0553 9.70144 13.0553 9.49462 12.928 9.36659L12.1795 8.61809C12.0515 8.49079 11.8446 8.49079 11.7166 8.61809L11.4474 8.88728L10.3411 7.64963L14.727 3.72329C14.7925 3.66432 14.8315 3.58151 14.8354 3.49349L14.9929 0.345188C14.998 0.252282 14.9634 0.161592 14.8977 0.0956882C14.8318 0.0300303 14.7411 -0.0045632 14.6482 0.000484252L11.4999 0.15478C11.4119 0.158597 11.3291 0.197622 11.2701 0.263116L7.50465 4.48492L3.7326 0.272924C3.67363 0.20743 3.59082 0.168404 3.5028 0.164588L0.354499 0.0102919C0.261593 0.00524445 0.170903 0.039838 0.104999 0.105496C0.0393406 0.1714 0.0047471 0.26209 0.00979455 0.354996L0.167374 3.50329C0.17119 3.59132 0.210215 3.67413 0.275709 3.7331L4.66822 7.67257L3.56517 8.89052L3.29597 8.62133C3.16794 8.49403 2.96112 8.49403 2.83309 8.62133L2.08458 9.36983C1.95729 9.49786 1.95729 9.70468 2.08458 9.83272L2.77728 10.5254L1.99266 11.3035L0.351216 12.9449C-0.118362 13.4163 -0.116884 14.1792 0.35454 14.6488C0.579541 14.8729 0.883907 14.9991 1.20149 15C1.52042 15.0011 1.82655 14.8746 2.05176 14.6487L4.4614 12.2391L5.15409 12.9318C5.28213 13.0591 5.48895 13.0591 5.61698 12.9318L6.36548 12.1833C6.49278 12.0552 6.49278 11.8484 6.36548 11.7204L6.10942 11.4348L7.50465 10.1906L8.89988 11.4348L8.63068 11.704C8.50338 11.832 8.50338 12.0388 8.63068 12.1669L9.37918 12.9154C9.50721 13.0426 9.71404 13.0426 9.84207 12.9154L10.5348 12.2227L11.3161 13.004L12.3732 14.0611L12.9444 14.6323C13.4111 15.1066 14.174 15.1126 14.6482 14.6459C15.1225 14.1792 15.1286 13.4163 14.6618 12.9421ZM10.9747 9.35341L10.3969 9.9312L9.16251 8.69683L9.84207 8.0895L10.9747 9.35341ZM0.79769 3.32273L0.666374 0.673437L3.31567 0.804753L7.04504 4.97403L6.28341 5.8243L4.90459 4.44548C4.76687 4.32755 4.55964 4.34359 4.4417 4.48131C4.33645 4.60421 4.33645 4.78547 4.4417 4.90837L5.8632 6.31673L5.10813 7.167L0.79769 3.32273ZM1.5823 14.1563C1.47979 14.2595 1.34035 14.3174 1.19492 14.3172C0.892976 14.2947 0.666333 14.0318 0.68878 13.7298C0.697725 13.6091 0.746435 13.4947 0.827236 13.4045L1.15553 13.0762L1.92372 13.8346L1.5823 14.1563ZM2.38333 13.3553L1.62826 12.5969L2.22247 12.0027L2.99723 12.7775L2.38333 13.3553ZM3.4437 12.2949L2.66894 11.5201L3.23688 10.9883L4.01164 11.7631L3.4437 12.2949ZM5.38061 12.2063L4.6912 11.5168L3.45355 10.2792L2.77728 9.59963L3.0596 9.3173L5.68592 11.9436L5.38061 12.2063ZM5.62683 10.9555L5.04904 10.3777L10.5315 4.89524C10.6692 4.7773 10.6852 4.57007 10.5673 4.43235C10.4494 4.29464 10.2421 4.27859 10.1044 4.39653C10.0916 4.40753 10.0796 4.41951 10.0686 4.43235L4.58615 9.91479L4.00836 9.337L5.35435 7.83343L11.6772 0.808036L14.3265 0.67672L14.1952 3.32602L9.65823 7.38039L5.62683 10.9555ZM7.97738 9.73095L8.68321 9.13674L9.94055 10.3941L9.36276 10.9719L7.97738 9.73095ZM10.2754 11.5136L9.60898 12.2227L9.32665 11.9403L11.953 9.31402L12.2353 9.59635L11.5426 10.289L10.2754 11.5136ZM10.9714 11.7466L11.7724 10.9883L12.3207 11.5365L11.5459 12.3113L10.9714 11.7466ZM12.58 13.3553L11.9858 12.7611L12.7606 11.9863L13.3548 12.5805L12.58 13.3553ZM14.1821 14.1727L14.1558 14.1563C13.9389 14.3631 13.5979 14.3631 13.381 14.1563L13.0527 13.828L13.8439 13.0762L14.1722 13.4045C14.3844 13.6151 14.3887 13.9568 14.1821 14.1727Z" fill="#2285A4"/>
</svg>
