<svg width="17" height="15" viewBox="0 0 17 15" fill="none" xmlns="http://www.w3.org/2000/svg">
<path d="M10.8545 4.06934L9.38379 3.85547L8.72461 2.52246C8.60742 2.28516 8.26465 2.28223 8.14746 2.52246L7.48828 3.85547L6.01758 4.06934C5.75391 4.10742 5.64844 4.43262 5.83887 4.62012L6.90234 5.65723L6.65039 7.12207C6.60645 7.38281 6.88184 7.58496 7.11914 7.46191L8.43457 6.77051L9.75 7.46191C9.98438 7.58496 10.2627 7.38574 10.2188 7.12207L9.9668 5.65723L11.0303 4.62012C11.2266 4.43262 11.1182 4.10742 10.8545 4.06934ZM9.08789 5.37012L9.24023 6.2666L8.4375 5.84473L7.63184 6.2666L7.78418 5.37012L7.13379 4.7373L8.0332 4.60547L8.43457 3.79102L8.83594 4.60547L9.73535 4.7373L9.08789 5.37012ZM13.125 1.875V0.351562C13.125 0.158203 12.9668 0 12.7734 0H4.10156C3.9082 0 3.75 0.158203 3.75 0.351562V1.875H0.351562C0.158203 1.875 0 2.0332 0 2.22656V4.03125C0 5.85059 1.99512 7.96875 4.70801 8.37012C5.56934 10.1484 6.86719 11.0156 7.96875 11.209V14.0625H5.44922C5.02734 14.0625 4.6875 14.4053 4.6875 14.8271C4.6875 14.9238 4.7666 15 4.86328 15H12.0117C12.1084 15 12.1875 14.9238 12.1875 14.8271C12.1875 14.4053 11.8477 14.0625 11.4258 14.0625H8.90625V11.209C10.0107 11.0156 11.3057 10.1484 12.167 8.37012C14.8828 7.96875 16.875 5.84766 16.875 4.03125V2.22656C16.875 2.0332 16.7168 1.875 16.5234 1.875H13.125ZM0.9375 4.03125V2.8125H3.75V3.51562C3.75 5.0332 3.95508 6.2959 4.29199 7.33008C2.28223 6.81152 0.9375 5.21484 0.9375 4.03125ZM8.4375 10.3125C6.32812 10.3125 4.6875 7.26562 4.6875 3.51562V0.9375H12.1875V3.51562C12.1875 7.26562 10.5469 10.3125 8.4375 10.3125ZM15.9375 4.03125C15.9375 5.21484 14.5898 6.81152 12.583 7.33008C12.9199 6.2959 13.125 5.0332 13.125 3.51562V2.8125H15.9375V4.03125Z" fill="#2285A4"/>
</svg>
