<svg width="19" height="15" viewBox="0 0 19 15" fill="none" xmlns="http://www.w3.org/2000/svg">
<path d="M6.55995 7.49854C8.63136 7.49854 10.3102 5.82015 10.3102 3.74927C10.3102 1.67838 8.63136 0 6.55995 0C4.49147 0 2.81266 1.67838 2.81266 3.74927C2.81266 5.82015 4.49147 7.49854 6.55995 7.49854ZM6.55995 0.937317C8.10985 0.937317 9.37262 2.19977 9.37262 3.74927C9.37262 5.29877 8.10985 6.56122 6.55995 6.56122C5.01006 6.56122 3.74729 5.29877 3.74729 3.74927C3.75022 2.19977 5.01006 0.937317 6.55995 0.937317ZM18.4757 10.6854L15.833 8.04042C15.4814 7.68893 15.0038 7.49268 14.5087 7.49268H12.1853C11.6667 7.49268 11.2477 7.91154 11.2477 8.42999V10.7528C11.2477 11.2507 11.444 11.7282 11.7956 12.0797L14.4383 14.7247C14.62 14.9063 14.8602 15 15.1005 15C15.3407 15 15.581 14.9092 15.7626 14.7247L18.4728 12.0152C18.8419 11.6462 18.8419 11.0516 18.4757 10.6854ZM15.1034 14.0598L12.4607 11.4148C12.2849 11.239 12.1853 11.0018 12.1853 10.7528V8.42999H14.5087C14.7577 8.42999 14.995 8.52666 15.1708 8.70533L17.8135 11.3503L15.1034 14.0598ZM13.5916 9.37317C13.3338 9.37317 13.1228 9.58407 13.1228 9.84183C13.1228 10.0996 13.3338 10.3105 13.5916 10.3105C13.8494 10.3105 14.0604 10.0996 14.0604 9.84183C14.0604 9.58407 13.8494 9.37317 13.5916 9.37317ZM11.7165 14.0598H1.40633C1.1485 14.0598 0.937555 13.8489 0.937555 13.5911V12.3726C0.937555 10.7176 2.28236 9.37317 3.93773 9.37317C4.51198 9.37317 5.08331 9.84183 6.56288 9.84183C8.0366 9.84183 8.61379 9.37317 9.18804 9.37317C9.5865 9.37317 9.96445 9.45518 10.3131 9.59578V8.61746C9.95566 8.50908 9.58064 8.43585 9.18804 8.43585C8.34717 8.43585 7.94285 8.90451 6.56288 8.90451C5.18292 8.90451 4.78153 8.43585 3.93773 8.43585C1.76378 8.43585 0 10.1992 0 12.3726V13.5911C0 14.3673 0.62992 14.9971 1.40633 14.9971H11.7165C12.1736 14.9971 12.575 14.7745 12.8328 14.4376L12.1531 13.7581C12.0827 13.9338 11.9157 14.0598 11.7165 14.0598Z" fill="#2285A4"/>
</svg>
