<svg width="25" height="18" viewBox="0 0 25 18" fill="none" xmlns="http://www.w3.org/2000/svg">
<path d="M2.25301 0H8.44879C8.75858 0 9.01204 0.253125 9.01204 0.5625V0.9375C9.01204 1.24688 8.75858 1.5 8.44879 1.5H2.25301C1.83996 1.5 1.50201 1.8375 1.50201 2.25V15.75C1.50201 16.1625 1.83996 16.5 2.25301 16.5H8.44879C8.75858 16.5 9.01204 16.7531 9.01204 17.0625V17.4375C9.01204 17.7469 8.75858 18 8.44879 18H2.25301C1.00916 18 0 16.9922 0 15.75V2.25C0 1.00781 1.00916 0 2.25301 0ZM15.3486 0.914062L15.0154 1.24687C14.7948 1.46719 14.7948 1.82344 15.0154 2.04375L21.2112 8.20312H8.07329C7.7635 8.20312 7.51003 8.45625 7.51003 8.76562V9.23438C7.51003 9.54375 7.7635 9.79688 8.07329 9.79688H21.2112L15.0201 15.9562C14.7995 16.1766 14.7995 16.5328 15.0201 16.7531L15.3533 17.0859C15.5739 17.3062 15.9307 17.3062 16.1513 17.0859L23.8725 9.39844C24.0931 9.17813 24.0931 8.82187 23.8725 8.60156L16.1466 0.914062C15.926 0.69375 15.5692 0.69375 15.3486 0.914062Z" fill="#474747"/>
</svg>
