<svg width="90" height="38" viewBox="0 0 90 38" fill="none" xmlns="http://www.w3.org/2000/svg">
<path d="M77.8234 4.75651C77.7879 3.85905 77.4916 2.99127 76.9707 2.25885C76.3816 1.44624 75.5679 0.822652 74.6292 0.464435C74.0331 0.224284 73.396 0.101522 72.7532 0.102915C72.3577 0.104117 71.9636 0.14836 71.5778 0.234857C71.1727 0.323526 70.7798 0.460866 70.4078 0.643877C69.782 0.297909 69.0764 0.121417 68.3611 0.131943H68.2977C67.2844 0.125348 66.2969 0.449707 65.4856 1.05554C64.4927 0.358883 63.283 6.44248e-07 61.8881 6.44248e-07H61.6938C60.6188 0.0383918 59.5603 0.275968 58.5723 0.700613C57.5898 1.11206 56.6777 1.67384 55.8686 2.36572C55.3949 1.66492 54.7465 1.09925 53.9873 0.724361C53.0776 0.258606 51.9922 0.0158331 50.7626 0.0158331H50.7322C48.564 0.0424191 46.48 0.857817 44.8714 2.30899C44.6402 1.98575 44.3717 1.69081 44.0715 1.43025C43.1156 0.587142 41.857 0.102915 40.437 0.0303468C40.2797 0.0224302 40.125 0.0171517 39.973 0.0171517C38.5965 -0.00430087 37.2445 0.381338 36.0873 1.12547C35.74 1.34991 35.4155 1.60753 35.1182 1.89469C34.8485 1.57629 34.5372 1.2954 34.1927 1.0595C33.1985 0.360202 31.9875 0.00395875 30.5913 0.00395875H30.3957C29.3211 0.0423597 28.263 0.279939 27.2755 0.704571C26.5011 1.02963 25.7694 1.44791 25.0967 1.9501C24.5319 1.28527 23.8085 0.772993 22.9932 0.460477C22.3966 0.220319 21.7591 0.0975599 21.1158 0.0989572C20.7204 0.100233 20.3263 0.144474 19.9405 0.230899C19.5354 0.320001 19.1426 0.457324 18.7704 0.639919C18.1453 0.293655 17.44 0.117135 16.7251 0.127985H16.6524C15.4754 0.118394 14.3396 0.559976 13.4794 1.36164C13.1812 1.11526 12.8561 0.903247 12.5103 0.72964C11.6059 0.258607 10.5205 0.0158331 9.28829 0.0158331H9.2592C7.06681 0.0423324 4.96122 0.874782 3.34544 2.35385C1.63992 3.86854 0.569021 5.7065 0.164457 7.81757V7.84C-0.232173 10.0685 0.0877754 11.9922 1.13356 13.5571C1.1481 13.5782 1.16132 13.598 1.17719 13.6191C2.02466 14.7986 3.65084 16.2038 6.57798 16.2038H6.5912C8.3701 16.2167 10.0998 15.6211 11.4922 14.5163C11.5266 14.4899 11.5583 14.4595 11.5927 14.4331C11.7186 14.894 11.9931 15.3007 12.3738 15.5902C12.7545 15.8798 13.2202 16.0361 13.6988 16.0349H16.9102C17.4025 16.0332 17.8797 15.8658 18.2648 15.5598C18.6499 15.2538 18.9203 14.8271 19.0322 14.3487L20.4415 8.30312C20.4957 8.0643 20.5486 7.84792 20.5975 7.6434C20.8088 7.82702 21.0419 7.9839 21.2917 8.11048C20.9268 10.2387 21.2718 12.0859 22.3189 13.6045L22.3454 13.6402C23.1981 14.8277 24.8296 16.2355 27.7541 16.2355C29.6288 16.2355 31.292 15.6734 32.7014 14.5638L32.7226 14.5466C32.8759 14.4239 33.0253 14.2933 33.1721 14.1574C33.4304 14.4517 33.7154 14.7216 34.0235 14.9636L34.0605 14.9913C35.146 15.8106 36.5434 16.2262 38.2146 16.2262H38.4235C39.8632 16.1919 41.0743 15.8581 42.0116 15.238C42.4384 14.9628 42.8369 14.6464 43.2015 14.2933C44.1416 15.2749 45.662 16.2038 48.0418 16.2038H48.0563C49.8351 16.2163 51.5646 15.6207 52.9573 14.5163C53.2405 14.2926 53.5098 14.052 53.7638 13.7959C54.6443 14.9451 56.2573 16.2381 59.0522 16.2381C60.6139 16.2625 62.1472 15.82 63.4548 14.9675C63.5056 15.0539 63.5621 15.1368 63.6241 15.2156C63.829 15.4721 64.0892 15.6792 64.3854 15.8215C64.6816 15.9639 65.0061 16.0377 65.3349 16.0376H68.5462C69.0406 16.0379 69.5205 15.8711 69.9078 15.5644C70.295 15.2577 70.5668 14.8292 70.6788 14.3487L72.0868 8.30312C72.1424 8.0643 72.1939 7.84792 72.2442 7.6434C72.7002 8.0416 73.2541 8.31163 73.8492 8.42582C73.8972 8.43641 73.9457 8.44434 73.9946 8.44957H74.0316C74.0806 8.45617 74.1295 8.46013 74.1771 8.46409C74.2657 8.46409 74.3529 8.472 74.4415 8.472C74.9112 8.48331 75.3779 8.39508 75.8109 8.21313C76.244 8.03118 76.6334 7.75965 76.9535 7.41646C76.9641 7.40459 76.976 7.39271 76.9865 7.37952C77.4083 6.90189 77.9001 6.05086 77.8234 4.75651Z" transform="translate(0 21.7546)" fill="#424143"/>
<path d="M10.3177 2.58385C10.301 2.10404 10.1453 1.63934 9.86949 1.24596C9.52525 0.774333 9.04927 0.414513 8.50112 0.211531C7.93764 -0.0146752 7.3177 -0.0607764 6.72686 0.0795887C6.33296 0.167322 5.96106 0.334094 5.63377 0.569763C5.30648 0.805432 5.03064 1.10507 4.82303 1.45047C4.75405 1.10968 4.59418 0.793782 4.36029 0.536109C4.0377 0.202296 3.58554 0.0334081 3.021 0.0334081H2.97209C1.3459 0.0334081 0.35829 1.30533 0.0409854 3.81355L-4.43821e-07 4.13813H1.10263L1.15287 3.91251C1.63412 1.74602 2.06116 1.58109 2.14313 1.57053C2.16957 1.65366 2.21849 1.96636 1.98712 2.91766L0.00396671 11.5731H3.21535L4.62207 5.5354C5.15091 3.22641 5.58192 2.35295 5.84501 2.03233C6.16761 1.66026 6.50607 1.47949 6.8908 1.47949C6.99628 1.47966 7.10002 1.50634 7.19245 1.55707C7.28488 1.6078 7.36301 1.68095 7.41964 1.76977C7.4712 1.83838 7.58226 2.03365 7.75149 2.61816C7.84856 2.91654 7.97755 3.20363 8.13622 3.47446C8.22989 3.6125 8.34992 3.73075 8.48944 3.82245C8.62896 3.91414 8.78524 3.97747 8.94931 4.00882H8.98765C9.42923 4.03653 9.76769 3.91778 10.0123 3.65258C10.2436 3.40717 10.3441 3.04037 10.3177 2.58385Z" transform="translate(13.6803 24.0368)" fill="#FFFFFB"/>
<path d="M9.51245 6.96258C8.88841 8.23715 8.12292 9.21747 7.23579 9.88114C6.49012 10.4591 5.67306 10.6728 4.8441 10.5409C3.75866 10.3561 3.27344 9.37581 3.36203 7.54841C4.12368 7.4779 4.87896 7.35044 5.6215 7.1671C6.42843 6.96098 7.21144 6.67088 7.95765 6.30156C8.68399 5.95813 9.32274 5.45465 9.82578 4.82908C10.3205 4.24368 10.6004 3.50735 10.619 2.74176C10.6534 1.84191 10.307 1.1413 9.59442 0.65971C8.97435 0.219023 8.18373 -7.2478e-07 7.2424 -7.2478e-07H7.09564C6.29669 0.0319799 5.51052 0.210902 4.77667 0.527768C3.99545 0.854914 3.27049 1.30236 2.62826 1.85379C1.285 3.07821 0.449433 4.49263 0.146671 6.07593C-0.177244 7.71729 0.0356163 9.09477 0.782604 10.1754C1.58909 11.2942 2.81071 11.8616 4.41442 11.8616C5.71429 11.8852 6.98255 11.4607 8.00525 10.6596C8.98493 9.86795 9.82843 8.70818 10.5172 7.208L10.705 6.8003H9.58781L9.51245 6.96258ZM4.73569 3.03995C5.4483 1.88941 6.1596 1.27456 6.86031 1.21519C6.90418 1.20985 6.94833 1.20721 6.99252 1.20727C7.24107 1.20727 7.59143 1.29171 7.76595 2.02927C7.95104 2.82884 7.77917 3.6825 7.25958 4.56124C6.88041 5.19609 6.29972 5.68644 5.6096 5.95455C4.91333 6.21693 4.18579 6.38769 3.44532 6.46253C3.64398 5.24762 4.0826 4.08422 4.73569 3.03995Z" transform="translate(23.3384 23.9488)" fill="#FFFFFB"/>
<path d="M8.57008 0.870849C7.98043 0.34308 7.20303 0.0580855 6.26037 0.0092669C5.0956 -0.0527459 4.07229 0.196625 3.21954 0.75342C2.42268 1.25174 1.82832 2.0155 1.54179 2.90935C1.10549 4.38842 1.5127 5.56535 2.76606 6.41506C3.1455 6.64332 3.57915 6.88345 4.06171 7.13546C5.15113 7.67114 5.49884 7.85322 5.59271 7.90996C6.05677 8.20287 6.21542 8.42321 6.27359 8.56967C6.34708 8.72738 6.38648 8.89876 6.38921 9.07266C6.39194 9.24657 6.35795 9.4191 6.28946 9.57903C6.2064 9.79381 6.07717 9.98781 5.91088 10.1474C5.74459 10.307 5.54528 10.4282 5.32697 10.5026C4.73725 10.7099 4.10262 10.7554 3.48925 10.6346C2.89827 10.5198 2.48974 10.3469 2.28349 10.1279C2.13511 9.97191 2.05231 9.76508 2.05212 9.55C2.07564 9.31794 2.14723 9.09329 2.26234 8.89029C2.45209 8.6234 2.58032 8.3179 2.63781 7.99572C2.69334 7.56955 2.61137 7.23969 2.3919 7.01671C2.2855 6.89795 2.15565 6.80241 2.01049 6.73611C1.86534 6.66981 1.70801 6.63418 1.5484 6.63144C1.36504 6.62686 1.18262 6.65894 1.01187 6.72579C0.841127 6.79263 0.685508 6.89289 0.554177 7.02067C0.243888 7.34572 0.0548636 7.76726 0.0187273 8.21475C-0.0429978 8.76065 0.0485502 9.31294 0.283148 9.80993C0.53548 10.2947 0.892155 10.7178 1.32761 11.0489C2.02436 11.5766 2.97759 11.8405 4.1622 11.8405H4.31953C5.34151 11.8168 6.16386 11.603 6.76277 11.2085C7.74774 10.5646 8.40747 9.74 8.72081 8.75307C9.14785 7.36768 8.85302 6.24617 7.86541 5.43077C7.57322 5.17876 6.91613 4.79745 5.85978 4.26836C4.77697 3.68781 4.342 3.34476 4.16749 3.16004C3.96785 2.85921 3.94273 2.51089 4.08419 2.10451C4.31159 1.53847 4.86688 1.24425 5.78177 1.20334C6.16971 1.16744 6.55965 1.24637 6.90292 1.43028C7.03577 1.52909 7.12453 1.67594 7.15015 1.8393C7.19029 2.05707 7.19431 2.27994 7.16205 2.49901C7.13897 2.76411 7.15725 3.03117 7.21625 3.29067C7.35772 3.83031 7.75303 4.12718 8.32814 4.12718H8.39292C8.63305 4.12647 8.86589 4.04474 9.05359 3.89527C9.24129 3.74579 9.37282 3.53737 9.42681 3.30386C9.51185 2.92042 9.50323 2.52219 9.40169 2.14277C9.26096 1.64408 8.97079 1.20026 8.57008 0.870849Z" transform="translate(34.0563 23.9593)" fill="#FFFFFB"/>
<path d="M9.33961 0.472352C8.74335 0.159649 7.99504 9.66373e-07 7.11188 9.66373e-07C5.4423 0.0132809 3.83838 0.650723 2.61673 1.7865C1.27876 2.97398 0.443189 4.39895 0.131173 6.02843C-0.167623 7.68167 0.0439135 9.0631 0.767103 10.145C1.56036 11.2573 2.78464 11.8207 4.38967 11.8207C5.6823 11.8313 6.93965 11.4002 7.95273 10.5989C8.96414 9.80726 9.8169 8.65276 10.4872 7.16841L10.6842 6.75939H9.56173L9.48108 6.91904C8.85705 8.15798 8.08759 9.13171 7.18856 9.82177C6.58171 10.3086 5.96164 10.5448 5.29134 10.5448C5.13456 10.5445 4.97805 10.5317 4.82332 10.5066C4.61163 10.4782 4.4082 10.4061 4.22606 10.2948C4.04393 10.1834 3.8871 10.0354 3.76563 9.86003C3.2553 9.11588 3.19052 7.74896 3.57525 5.80677C3.71975 5.17793 3.92749 4.56525 4.19532 3.97805C4.53516 3.30563 4.97711 2.68966 5.50552 2.15198C6.0727 1.58726 6.67822 1.26664 7.32341 1.19671C7.91307 1.10304 8.32821 1.20859 8.58734 1.53317C8.65885 1.6111 8.7118 1.70414 8.74224 1.80535C8.77269 1.90656 8.77985 2.01332 8.76318 2.11767V2.1401C8.74335 2.38947 8.6151 2.73384 8.37712 3.16661C8.26708 3.36526 8.19196 3.58125 8.15501 3.80521C8.13515 3.96072 8.14705 4.11864 8.19 4.26943C8.23294 4.42023 8.30604 4.56078 8.40489 4.68262L8.44191 4.72221C8.65294 4.91551 8.9289 5.02284 9.21534 5.02304C9.25104 5.02304 9.28805 5.02304 9.31978 5.02304C9.52928 5.00655 9.73288 4.9458 9.91705 4.8448C10.1012 4.7438 10.2618 4.60486 10.388 4.43721C10.6513 4.08114 10.8172 3.6628 10.8693 3.22335C10.9494 2.66006 10.8287 2.08657 10.5282 1.6031C10.2648 1.10797 9.84778 0.711268 9.33961 0.472352Z" transform="translate(43.6481 23.9567)" fill="#FFFFFB"/>
<path d="M9.33273 0.472352C8.73647 0.159649 7.98948 9.66373e-07 7.10499 9.66373e-07C5.43775 0.015182 3.83657 0.652475 2.61645 1.7865C1.27981 2.97398 0.442917 4.39895 0.1309 6.02843C-0.167895 7.68167 0.044964 9.0631 0.768154 10.145C1.56142 11.2573 2.78568 11.8207 4.38939 11.8207C5.68202 11.8313 6.93937 11.4002 7.95246 10.5989C8.96387 9.80726 9.81662 8.65276 10.4883 7.16841L10.672 6.76071H9.54824L9.46891 6.92036C8.84356 8.1593 8.07409 9.13303 7.17506 9.82309C6.56954 10.31 5.94815 10.5461 5.27784 10.5461C5.12107 10.5457 4.96457 10.5329 4.80982 10.5079C4.59804 10.4799 4.39449 10.4079 4.21231 10.2965C4.03013 10.1851 3.87337 10.0369 3.75214 9.86135C3.24049 9.1172 3.17702 7.75028 3.56043 5.80809C3.70602 5.17939 3.91418 4.56677 4.18182 3.97937C4.52119 3.30666 4.96319 2.69062 5.49203 2.1533C6.05789 1.58858 6.66473 1.26796 7.30859 1.19803C7.89825 1.10435 8.31339 1.20991 8.57385 1.53449C8.64487 1.61269 8.69742 1.7058 8.72762 1.80696C8.75783 1.90811 8.76491 2.01474 8.74836 2.11899V2.14142C8.72985 2.39079 8.60029 2.73516 8.36231 3.16793C8.25286 3.36684 8.17777 3.58272 8.1402 3.80653C8.12021 3.96214 8.13217 4.12018 8.17536 4.27102C8.21854 4.42187 8.29205 4.56236 8.3914 4.68395L8.42709 4.72353C8.63812 4.91682 8.91408 5.02416 9.20052 5.02435C9.23622 5.02435 9.27456 5.02435 9.30497 5.02435C9.51465 5.00656 9.71812 4.9444 9.90186 4.84203C10.0856 4.73966 10.2454 4.59941 10.3706 4.43061C10.6371 4.07782 10.8066 3.66166 10.8624 3.22335C10.9423 2.66023 10.8221 2.08699 10.5226 1.6031C10.2587 1.10787 9.84128 0.711193 9.33273 0.472352Z" transform="translate(2.18329 23.9567)" fill="#FFFFFB"/>
<path d="M9.58961 6.80557L9.51029 6.96654C8.88625 8.2411 8.12208 9.22143 7.23363 9.8851C6.48796 10.463 5.6709 10.6834 4.84194 10.5448C3.7565 10.3561 3.27129 9.37581 3.36119 7.54841C4.12285 7.4779 4.87813 7.35044 5.62066 7.1671C6.42759 6.96098 7.2106 6.67088 7.95682 6.30156C8.6837 5.95842 9.32261 5.45438 9.82495 4.82776C10.3202 4.24315 10.6001 3.50706 10.6182 2.74176C10.6526 1.84323 10.3062 1.1413 9.59358 0.65971C8.97484 0.219023 8.1829 -5.63717e-07 7.24156 -5.63717e-07H7.09481C6.29586 0.0319801 5.50969 0.210902 4.77584 0.527768C3.99435 0.854406 3.26932 1.3019 2.62742 1.85379C1.28417 3.07689 0.44992 4.49263 0.145837 6.07593C-0.176756 7.71729 0.0361021 9.09477 0.781768 10.1754C1.58825 11.2942 2.80987 11.8616 4.41491 11.8616C5.71478 11.8852 6.98304 11.4607 8.00574 10.6596C8.98409 9.86795 9.82759 8.70686 10.5177 7.208L10.7041 6.8003L9.58961 6.80557ZM4.73353 3.0439C5.44615 1.89337 6.15876 1.27852 6.85815 1.21915C6.90202 1.21381 6.94617 1.21117 6.99036 1.21123C7.23891 1.21123 7.58927 1.29567 7.76379 2.03323C7.94888 2.8328 7.77701 3.68646 7.25743 4.5652C6.87771 5.19704 6.30022 5.68665 5.61405 5.95851C4.91778 6.22089 4.19024 6.39165 3.44977 6.46648C3.64582 5.2519 4.08223 4.08842 4.73353 3.0439Z" transform="translate(54.6413 23.9449)" fill="#FFFFFB"/>
<path d="M10.3137 2.58259C10.297 2.10319 10.1413 1.63892 9.86553 1.24602C9.52157 0.774117 9.04549 0.414227 8.49715 0.211592C7.93369 -0.0146995 7.31373 -0.0608028 6.72289 0.0796501C6.33015 0.167255 5.95929 0.333443 5.63274 0.568164C5.30619 0.802884 5.03073 1.10126 4.82303 1.44525C4.75388 1.10464 4.59351 0.789103 4.35897 0.532212C4.0377 0.19708 3.58554 0.0281927 3.01968 0.0281927H2.97341C1.3459 0.0281927 0.359614 1.30011 0.0409868 3.80833L1.93667e-06 4.13291H1.10263L1.15287 3.90729C1.63544 1.7408 2.06116 1.57587 2.14313 1.56532C2.17089 1.64844 2.21849 1.96114 1.98844 2.91245L0.00528744 11.5678H3.21667L4.62339 5.53018C5.15223 3.22119 5.58324 2.34773 5.84766 2.02711C6.17025 1.65504 6.50871 1.47428 6.89345 1.47428C6.99898 1.4742 7.10281 1.50078 7.19528 1.55153C7.28774 1.60228 7.36584 1.67557 7.42229 1.76455C7.47385 1.83316 7.5849 2.02843 7.75413 2.61294C7.8521 2.9112 7.98152 3.19824 8.14019 3.46924C8.23359 3.60753 8.35354 3.72597 8.49311 3.81769C8.63267 3.90941 8.78908 3.9726 8.95328 4.00361H8.9903C9.43188 4.03132 9.76902 3.91389 10.0163 3.64737C10.241 3.40723 10.3415 3.04043 10.3137 2.58259Z" transform="translate(65.3243 24.0367)" fill="#FFFFFB"/>
<path d="M2.81401e-07 0.697974V11.5317C-0.00017355 11.6235 0.0177894 11.7144 0.0528594 11.7992C0.0879293 11.8841 0.139418 11.9612 0.20438 12.0261C0.269342 12.0911 0.346502 12.1426 0.431443 12.1778C0.516383 12.2129 0.607437 12.231 0.699394 12.231H6.12795C6.2199 12.231 6.31096 12.2129 6.3959 12.1778C6.48084 12.1426 6.558 12.0911 6.62296 12.0261C6.68792 11.9612 6.73941 11.8841 6.77448 11.7992C6.80955 11.7144 6.82751 11.6235 6.82734 11.5317V6.81349H16.9837C17.0756 6.81349 17.1665 6.79544 17.2514 6.76036C17.3362 6.72528 17.4133 6.67387 17.4783 6.60906C17.5432 6.54425 17.5947 6.4673 17.6299 6.38262C17.665 6.29794 17.6831 6.20718 17.6831 6.11552V0.697974C17.6831 0.606315 17.665 0.515553 17.6299 0.430871C17.5947 0.346189 17.5432 0.269244 17.4783 0.204432C17.4133 0.139619 17.3362 0.0882063 17.2514 0.0531299C17.1665 0.0180534 17.0756 2.01328e-08 16.9837 2.01328e-08H0.699394C0.513903 2.01328e-08 0.336009 0.0735362 0.204848 0.204432C0.0736864 0.335327 2.81401e-07 0.51286 2.81401e-07 0.697974Z" transform="translate(21.9316 5.42151)" fill="#424143"/>
<path d="M14.8856 -2.41593e-07V4.02028H4.72916C4.6372 4.02028 4.54615 4.03837 4.46121 4.07353C4.37627 4.10869 4.29911 4.16022 4.23415 4.22517C4.16919 4.29013 4.1177 4.36723 4.08263 4.45206C4.04756 4.5369 4.0296 4.6278 4.02977 4.71957V9.43782H-7.26253e-07V-2.41593e-07H14.8856Z" transform="translate(23.3303 6.81744)" fill="#8DC63F"/>
<path d="M27.8408 1.26853e-06H22.4123C22.2268 1.26853e-06 22.0489 0.0735376 21.9177 0.204433C21.7866 0.335328 21.7129 0.512861 21.7129 0.697975V5.4215H16.9851C16.8931 5.42133 16.802 5.43925 16.717 5.47425C16.632 5.50925 16.5547 5.56064 16.4897 5.62547C16.4246 5.6903 16.3729 5.7673 16.3377 5.85207C16.3025 5.93684 16.2843 6.02771 16.2843 6.11948V10.8377H0.699393C0.607436 10.8377 0.516382 10.8558 0.431442 10.891C0.346502 10.9261 0.269343 10.9777 0.204381 11.0426C0.139419 11.1076 0.0879286 11.1847 0.0528586 11.2695C0.0177887 11.3543 -0.000172259 11.4452 1.57252e-06 11.537V16.9532C-0.000172259 17.045 0.0177887 17.1359 0.0528586 17.2207C0.0879286 17.3056 0.139419 17.3827 0.204381 17.4476C0.269343 17.5126 0.346502 17.5641 0.431442 17.5993C0.516382 17.6344 0.607436 17.6525 0.699393 17.6525H27.8408C27.9329 17.6525 28.024 17.6344 28.109 17.5993C28.194 17.5642 28.2712 17.5127 28.3363 17.4477C28.4014 17.3828 28.453 17.3057 28.4882 17.2208C28.5234 17.136 28.5416 17.0451 28.5416 16.9532V0.701933C28.5421 0.60983 28.5243 0.518535 28.4893 0.433309C28.4543 0.348083 28.4028 0.270612 28.3376 0.205362C28.2725 0.140112 28.1951 0.0883728 28.1098 0.053127C28.0245 0.0178812 27.9331 -0.000174324 27.8408 1.26853e-06Z" transform="translate(27.3535)" fill="#424143"/>
<path d="M20.3141 0H0V4.02028H20.3141V0Z" transform="translate(28.7536 12.235)" fill="#27A9E1"/>
<path d="M9.457 14.854H5.42855V10.1358C5.42855 9.95033 5.35473 9.77246 5.22332 9.64132C5.09191 9.51017 4.91368 9.4365 4.72784 9.4365H1.61389e-06V5.41754H4.72784C4.91368 5.41754 5.09191 5.34387 5.22332 5.21272C5.35473 5.08158 5.42855 4.90371 5.42855 4.71825V-1.50996e-08H9.457V14.854Z" transform="translate(45.038 1.40121)" fill="#F7941D"/>
<path fill-rule="evenodd" clip-rule="evenodd" d="M18.2715 7.04804e-05H16.9243C16.7276 0.0405305 16.5247 0.0405305 16.328 7.04804e-05H15.0139C14.7354 -0.000103805 14.4622 0.0762632 14.2243 0.220796C13.9864 0.365329 13.793 0.572446 13.6653 0.819432C13.5375 0.572541 13.344 0.365506 13.1062 0.220989C12.8683 0.0764725 12.5952 4.37801e-05 12.3168 7.04804e-05H10.7977C10.5329 0.000101657 10.2728 0.0692976 10.0432 0.200776C9.81356 0.332254 9.62242 0.521433 9.48878 0.749501C9.35493 0.521329 9.16356 0.3321 8.93371 0.200623C8.70385 0.0691463 8.44352 3.42735e-06 8.17858 7.04804e-05H6.81285C6.76922 7.04804e-05 6.72691 7.01585e-05 6.68064 0.00798668C6.62969 0.00271877 6.5785 7.67368e-05 6.52728 7.04804e-05H4.39737C4.11406 -0.0012475 3.83096 0.0159416 3.5499 0.0515278C3.21421 0.0969814 2.88356 0.173847 2.5623 0.281108C2.09523 0.431743 1.67065 0.690852 1.32348 1.03714C1.09934 1.2554 0.898617 1.4964 0.72457 1.75622C0.72029 1.76144 0.71673 1.76721 0.713991 1.77337C0.557598 2.02268 0.428611 2.2881 0.329263 2.56503C0.235711 2.82149 0.15887 3.08372 0.0992185 3.35008V3.36987C0.0335559 3.68586 0.000331663 4.0077 6.07839e-05 4.33041V4.69589C-0.0027612 5.32037 0.0982 5.94101 0.298849 6.53252C0.530094 7.20231 0.938489 7.79725 1.48081 8.25437L1.55882 8.31638C1.97786 8.63908 2.45825 8.8734 2.97082 9.00512C3.4296 9.11221 3.89982 9.16273 4.37093 9.15553H6.53124C6.75181 9.15546 6.9697 9.10738 7.16973 9.01463C7.36976 8.92188 7.54711 8.78671 7.6894 8.61853C7.83075 8.78545 8.00662 8.91988 8.20494 9.01257C8.40326 9.10527 8.61933 9.15404 8.83831 9.15553H10.4076C10.6462 9.15577 10.8815 9.09971 11.0943 8.99194C11.307 8.88417 11.4913 8.72774 11.6319 8.5354C11.7731 8.72753 11.9576 8.88379 12.1705 8.99153C12.3834 9.09926 12.6188 9.15545 12.8575 9.15553H14.444C14.6863 9.15569 14.9251 9.09791 15.1404 8.98703C15.3557 8.87615 15.5413 8.71541 15.6815 8.51825C15.8216 8.71531 16.0069 8.876 16.222 8.98688C16.437 9.09775 16.6756 9.15559 16.9177 9.15553H18.2649C18.6674 9.15553 19.0535 8.99595 19.3381 8.71189C19.6228 8.42783 19.7827 8.04256 19.7827 7.64084V1.51872C19.7837 1.11746 19.6252 0.732168 19.3419 0.447441C19.0585 0.162713 18.6736 0.00181678 18.2715 7.04804e-05Z" transform="translate(70.2173 28.8438)" fill="#424143"/>
<path fill-rule="evenodd" clip-rule="evenodd" d="M5.01747 0.00397767V1.04764H2.90211C2.58168 1.02913 2.26479 1.12242 2.00573 1.31152C1.80442 1.4606 1.65542 1.66932 1.58001 1.9079C1.52267 2.10577 1.4785 2.3072 1.4478 2.51088C1.41958 2.69294 1.405 2.87685 1.40417 3.06108V3.26559C1.40417 3.34475 1.40417 3.43315 1.41342 3.52947C1.42268 3.62579 1.42929 3.73662 1.4478 3.86988C1.46788 4.01751 1.50653 4.16203 1.56282 4.30001C1.62268 4.45412 1.70706 4.59758 1.8127 4.72487C1.93558 4.86083 2.09619 4.95727 2.27411 5.00195C2.48386 5.04373 2.69752 5.06275 2.91137 5.05868H5.02673V6.12213H2.85716C2.50729 6.12842 2.15793 6.09254 1.81667 6.01526C1.50212 5.93279 1.20784 5.78685 0.952009 5.58645C0.614688 5.30468 0.360576 4.9366 0.21692 4.52167C0.0702325 4.08821 -0.00304809 3.63338 9.36703e-05 3.17587V2.81039C-4.92581e-05 2.59232 0.0221005 2.37481 0.0661988 2.16123C0.111467 1.95962 0.168868 1.7609 0.238079 1.56617C0.299942 1.39362 0.380168 1.22819 0.477379 1.07271C0.593607 0.900928 0.726454 0.740951 0.874009 0.59508C1.0535 0.417003 1.27282 0.284047 1.5139 0.20717C1.74294 0.129723 1.97893 0.0744913 2.21859 0.042242C2.43775 0.0135008 2.65859 -0.000605404 2.87964 1.95659e-05L5.01747 0.00397767Z" transform="translate(71.7311 30.3546)" fill="#FBB041"/>
<path fill-rule="evenodd" clip-rule="evenodd" d="M3.60008 6.12343H2.03075L-9.68337e-07 -4.83186e-07H1.36573L2.78038 4.70901L3.98482 -4.83186e-07H5.50391L6.88551 4.70901L8.201 -4.83186e-07H9.51517L7.63779 6.12343H6.04994L4.75296 1.56615L3.60008 6.12343Z" transform="translate(77.0302 30.3586)" fill="#FBB041"/>
<path fill-rule="evenodd" clip-rule="evenodd" d="M-3.55057e-06 -4.83186e-07H1.34722V6.12343H-3.55057e-06V-4.83186e-07Z" transform="translate(87.1416 30.3586)" fill="#FBB041"/>
</svg>
