<svg width="111" height="89" viewBox="0 0 111 89" fill="none" xmlns="http://www.w3.org/2000/svg">
<path d="M72.069 0H26.5517C23.4094 0 20.8621 2.54336 20.8621 5.68085C20.8621 8.81834 23.4094 11.3617 26.5517 11.3617H30.3448C32.4398 11.3617 34.1379 13.0572 34.1379 15.1489C34.1379 17.2407 32.4398 18.9362 30.3448 18.9362H5.68966C2.54731 18.9362 0 21.4795 0 24.617C0 27.7545 2.54731 30.2979 5.68966 30.2979H58.7931C61.9355 30.2979 64.4828 27.7545 64.4828 24.617C64.4828 21.4795 61.9355 18.9362 58.7931 18.9362H51.2069C49.1119 18.9362 47.4138 17.2407 47.4138 15.1489C47.4138 13.0572 49.1119 11.3617 51.2069 11.3617H72.069C75.2113 11.3617 77.7586 8.81834 77.7586 5.68085C77.7586 2.54336 75.2113 0 72.069 0Z" transform="translate(30.798)" fill="#C9EBF4"/>
<path d="M58.7202 18.9272C58.7152 8.46897 50.2199 -0.00496808 39.7457 2.66249e-06C33.5065 0.00307979 27.668 3.06979 24.1309 8.20173C19.2814 6.32326 13.825 8.72579 11.9439 13.5678C11.5145 14.6725 11.2983 15.8484 11.3064 17.0336C11.309 17.7093 11.3842 18.3828 11.5302 19.0427C4.2619 20.0061 -0.847888 26.6702 0.116982 33.9272C0.989396 40.4879 6.57474 45.4007 13.203 45.4378H58.7202C66.0523 45.4378 71.9961 39.5032 71.9961 32.1825C71.9961 24.8618 66.0523 18.9272 58.7202 18.9272Z" transform="translate(11.9053 7.58344)" fill="#B5DEF3"/>
<circle cx="14.5" cy="14.5" r="14.5" transform="translate(26.4531 31)" fill="#FFF6A4"/>
<path d="M70.1724 22.7496H60.6897C60.7349 16.5199 55.7133 11.4331 49.4739 11.3879C48.9064 11.3839 48.3395 11.4225 47.7779 11.5034C43.6638 1.88576 32.5199 -2.58105 22.8873 1.52668C14.598 5.06159 9.94575 13.9337 11.7586 22.7496H9.48276C4.24567 22.7496 0 26.9887 0 32.2177C0 37.4467 4.24567 41.6858 9.48276 41.6858H58.7931C61.7643 41.6799 64.5591 40.2765 66.3357 37.8986H70.1724C74.3621 37.8986 77.7586 34.5073 77.7586 30.3241C77.7586 26.1409 74.3621 22.7496 70.1724 22.7496Z" transform="translate(0.453125 47.3142)" fill="#88D0EF"/>
<path d="M70.1724 22.7496H60.6897C60.7349 16.5199 55.7133 11.4331 49.4739 11.3879C48.9064 11.3839 48.3396 11.4225 47.7779 11.5034C43.6638 1.88576 32.5199 -2.58105 22.8873 1.52668C14.598 5.06159 9.94576 13.9337 11.7586 22.7496H9.48276C4.24567 22.7496 0 26.9887 0 32.2177C0 37.4467 4.24567 41.6858 9.48276 41.6858H58.7931C61.7643 41.6799 64.5591 40.2765 66.3357 37.8986H70.1724C74.3621 37.8986 77.7586 34.5073 77.7586 30.3241C77.7586 26.1409 74.3621 22.7496 70.1724 22.7496Z" transform="translate(32.6945 35.9525)" fill="#7D8F9F"/>
</svg>
