<svg width="146" height="150" viewBox="0 0 146 150" fill="none" xmlns="http://www.w3.org/2000/svg">
<path d="M72.069 0H26.5517C23.4094 0 20.8621 2.54336 20.8621 5.68085C20.8621 8.81834 23.4094 11.3617 26.5517 11.3617H30.3448C32.4398 11.3617 34.1379 13.0572 34.1379 15.1489C34.1379 17.2407 32.4398 18.9362 30.3448 18.9362H5.68966C2.54731 18.9362 0 21.4795 0 24.617C0 27.7545 2.54731 30.2979 5.68966 30.2979H58.7931C61.9355 30.2979 64.4828 27.7545 64.4828 24.617C64.4828 21.4795 61.9355 18.9362 58.7931 18.9362H51.2069C49.1119 18.9362 47.4138 17.2407 47.4138 15.1489C47.4138 13.0572 49.1119 11.3617 51.2069 11.3617H72.069C75.2113 11.3617 77.7586 8.81834 77.7586 5.68085C77.7586 2.54336 75.2113 0 72.069 0Z" transform="translate(46.798)" fill="#C9EBF4"/>
<path d="M58.7202 18.9272C58.7152 8.46897 50.2199 -0.00496808 39.7457 2.66249e-06C33.5065 0.00307979 27.668 3.06979 24.1309 8.20173C19.2814 6.32326 13.825 8.72579 11.9439 13.5678C11.5145 14.6725 11.2983 15.8484 11.3064 17.0336C11.309 17.7093 11.3842 18.3828 11.5302 19.0427C4.2619 20.0061 -0.847888 26.6702 0.116982 33.9272C0.989396 40.4879 6.57474 45.4007 13.203 45.4378H58.7202C66.0523 45.4378 71.9961 39.5032 71.9961 32.1825C71.9961 24.8618 66.0523 18.9272 58.7202 18.9272Z" transform="translate(27.9053 7.58344)" fill="#B5DEF3"/>
<path d="M19.2031 16.1875L22.2656 0H26.9375L21.8906 22.75H17.1719L13.4688 7.53125L9.76562 22.75H5.04688L0 0H4.67188L7.75 16.1562L11.5 0H15.4688L19.2031 16.1875Z" transform="translate(0 103.25)" fill="black"/>
<path d="M43.1719 12.8906H34.1719V18.9844H44.7344V22.75H29.4844V0H44.7031V3.79688H34.1719V9.21875H43.1719V12.8906Z" transform="translate(0 103.25)" fill="black"/>
<path d="M60.3281 18.0625H52.1094L50.5469 22.75H45.5625L54.0312 0H58.375L66.8906 22.75H61.9062L60.3281 18.0625ZM53.375 14.2656H59.0625L56.2031 5.75L53.375 14.2656Z" transform="translate(0 103.25)" fill="black"/>
<path d="M84.2656 3.79688H77.2969V22.75H72.6094V3.79688H65.7344V0H84.2656V3.79688Z" transform="translate(0 103.25)" fill="black"/>
<path d="M105.469 22.75H100.781V13H91.6406V22.75H86.9531V0H91.6406V9.21875H100.781V0H105.469V22.75Z" transform="translate(0 103.25)" fill="black"/>
<path d="M123.266 12.8906H114.266V18.9844H124.828V22.75H109.578V0H124.797V3.79688H114.266V9.21875H123.266V12.8906Z" transform="translate(0 103.25)" fill="black"/>
<path d="M136 14.4219H132.266V22.75H127.578V0H136.031C138.719 0 140.792 0.598958 142.25 1.79688C143.708 2.99479 144.438 4.6875 144.438 6.875C144.438 8.42708 144.099 9.72396 143.422 10.7656C142.755 11.7969 141.74 12.6198 140.375 13.2344L145.297 22.5312V22.75H140.266L136 14.4219ZM132.266 10.625H136.047C137.224 10.625 138.135 10.3281 138.781 9.73438C139.427 9.13021 139.75 8.30208 139.75 7.25C139.75 6.17708 139.443 5.33333 138.828 4.71875C138.224 4.10417 137.292 3.79688 136.031 3.79688H132.266V10.625Z" transform="translate(0 103.25)" fill="black"/>
<path d="M18.1971 45.75H17.3571L13.9491 38.886H4.39713L1.06113 45.75H0.221125L9.19712 27.318L18.1971 45.75ZM13.6611 38.19L9.14913 29.046L4.73312 38.19H13.6611Z" transform="translate(0 103.25)" fill="black"/>
<path d="M33.9507 28.446H29.7987V27.75H38.8467V28.446H34.7427V45.75H33.9507V28.446Z" transform="translate(0 103.25)" fill="black"/>
<path d="M56.2454 28.446H52.0934V27.75H61.1414V28.446H57.0374V45.75H56.2454V28.446Z" transform="translate(0 103.25)" fill="black"/>
<path d="M90.7999 45.75H89.9599L86.5519 38.886H76.9999L73.6639 45.75H72.8239L81.7999 27.318L90.7999 45.75ZM86.2639 38.19L81.7519 29.046L77.3359 38.19H86.2639Z" transform="translate(0 103.25)" fill="black"/>
<path d="M112.476 46.23C110.796 46.23 109.252 45.822 107.844 45.006C106.436 44.174 105.316 43.038 104.484 41.598C103.668 40.142 103.26 38.51 103.26 36.702C103.26 34.958 103.684 33.366 104.532 31.926C105.396 30.486 106.54 29.35 107.964 28.518C109.404 27.686 110.932 27.27 112.548 27.27C113.668 27.27 114.556 27.374 115.212 27.582C115.868 27.774 116.628 28.118 117.492 28.614V29.502C116.676 28.942 115.916 28.55 115.212 28.326C114.524 28.086 113.66 27.966 112.62 27.966C111.036 27.966 109.588 28.374 108.276 29.19C106.98 29.99 105.948 31.07 105.18 32.43C104.428 33.774 104.052 35.222 104.052 36.774C104.052 38.342 104.436 39.798 105.204 41.142C105.972 42.486 106.988 43.558 108.252 44.358C109.532 45.142 110.908 45.534 112.38 45.534C113.436 45.534 114.356 45.414 115.14 45.174C115.924 44.918 116.708 44.526 117.492 43.998V44.886C116.724 45.35 115.932 45.686 115.116 45.894C114.316 46.118 113.436 46.23 112.476 46.23Z" transform="translate(0 103.25)" fill="black"/>
<path d="M143.463 45.75L133.935 35.742V45.75H133.143V27.75H133.935V34.278L141.447 27.75H142.575L134.151 34.95L144.519 45.75H143.463Z" transform="translate(0 103.25)" fill="black"/>
<circle cx="14.5" cy="14.5" r="14.5" transform="translate(42.4531 31)" fill="#FFF6A4"/>
<path d="M70.1724 22.7496H60.6897C60.7349 16.5199 55.7133 11.4331 49.4739 11.3879C48.9064 11.3839 48.3395 11.4225 47.7779 11.5034C43.6638 1.88576 32.5199 -2.58105 22.8873 1.52668C14.598 5.06159 9.94575 13.9337 11.7586 22.7496H9.48276C4.24567 22.7496 0 26.9887 0 32.2177C0 37.4467 4.24567 41.6858 9.48276 41.6858H58.7931C61.7643 41.6799 64.5591 40.2765 66.3357 37.8986H70.1724C74.3621 37.8986 77.7586 34.5073 77.7586 30.3241C77.7586 26.1409 74.3621 22.7496 70.1724 22.7496Z" transform="translate(16.4531 47.3142)" fill="#88D0EF"/>
<path d="M70.1724 22.7496H60.6897C60.7349 16.5199 55.7133 11.4331 49.4739 11.3879C48.9064 11.3839 48.3396 11.4225 47.7779 11.5034C43.6638 1.88576 32.5199 -2.58105 22.8873 1.52668C14.598 5.06159 9.94576 13.9337 11.7586 22.7496H9.48276C4.24567 22.7496 0 26.9887 0 32.2177C0 37.4467 4.24567 41.6858 9.48276 41.6858H58.7931C61.7643 41.6799 64.5591 40.2765 66.3357 37.8986H70.1724C74.3621 37.8986 77.7586 34.5073 77.7586 30.3241C77.7586 26.1409 74.3621 22.7496 70.1724 22.7496Z" transform="translate(48.6945 35.9525)" fill="#7D8F9F"/>
</svg>
