<svg width="25" height="19" viewBox="0 0 25 19" fill="none" xmlns="http://www.w3.org/2000/svg">
<path d="M21.6554 0H3.01634C1.35251 0 0 1.30282 0 2.90554V15.1767C0 16.7794 1.35251 18.0822 3.01634 18.0822H21.6503C23.3141 18.0822 24.6666 16.7794 24.6666 15.1767V2.91046C24.6717 1.30774 23.3192 0 21.6554 0ZM23.2937 15.1767C23.2937 16.0469 22.5588 16.7548 21.6554 16.7548H3.01634C2.11297 16.7548 1.37802 16.0469 1.37802 15.1767V2.91046C1.37802 2.04027 2.11297 1.33232 3.01634 1.33232H21.6503C22.5537 1.33232 23.2886 2.04027 23.2886 2.91046V15.1767H23.2937Z" fill="#474747"/>
<path d="M12.7109 6.37389L18.7436 1.16259C19.0243 0.916776 19.0498 0.498889 18.7946 0.223575C18.5394 -0.046822 18.1056 -0.0714036 17.8198 0.174412L9.5006 7.36698L7.87759 5.97075C7.87248 5.96583 7.86738 5.96092 7.86738 5.956C7.83165 5.92159 7.79593 5.89209 7.7551 5.86259L1.15078 0.169496C0.864972 -0.0763199 0.431149 -0.0517383 0.17596 0.223575C-0.0792303 0.498889 -0.0537114 0.916776 0.232101 1.16259L6.33624 6.41813L0.25762 11.8998C-0.0179848 12.1506 -0.0332961 12.5684 0.226998 12.8388C0.3648 12.9765 0.548537 13.0502 0.732273 13.0502C0.900698 13.0502 1.06912 12.9912 1.20182 12.8733L7.37231 7.3129L9.04636 8.75338C9.17906 8.86646 9.34238 8.92054 9.5057 8.92054C9.66902 8.92054 9.83745 8.86154 9.96504 8.74847L11.685 7.26374L17.8198 12.8782C17.9525 13.0011 18.126 13.0601 18.2944 13.0601C18.4782 13.0601 18.6568 12.9912 18.7946 12.8536C19.0549 12.5881 19.0447 12.1653 18.7691 11.9146L12.7109 6.37389Z" transform="translate(2.84546 2.51477)" fill="#474747"/>
</svg>
