<svg width="19" height="19" viewBox="0 0 19 19" fill="none" xmlns="http://www.w3.org/2000/svg">
<path id="Vector" d="M17.8235 13.6094C16.1558 12.1967 14.6125 10.2034 14.6125 5.2268C14.6125 2.34472 12.2189 0 9.27668 0C6.33407 0 3.9401 2.34472 3.9401 5.2268C3.9401 10.2079 2.39737 12.1992 0.728227 13.6108C0.265457 14.0056 0 14.5742 0 15.1709C0 15.4992 0.27177 15.7655 0.60699 15.7655H6.36733C6.64833 17.0865 7.8458 18.0822 9.27635 18.0822C10.7069 18.0822 11.9045 17.0866 12.1854 15.7655H17.9457C18.2809 15.7655 18.5527 15.4992 18.5527 15.1709C18.5527 14.5694 18.2866 13.9999 17.8235 13.6094ZM9.27635 16.893C8.52045 16.893 7.87453 16.4229 7.62688 15.7655H10.9258C10.6782 16.4229 10.0323 16.893 9.27635 16.893ZM1.45305 14.5763C1.47515 14.5528 1.4987 14.5304 1.52355 14.5093C4.06829 12.3571 5.154 9.58104 5.154 5.2268C5.154 3.00045 7.00346 1.18921 9.27659 1.18921C11.5494 1.18921 13.3985 3.00045 13.3985 5.2268C13.3985 9.57708 14.4843 12.3531 17.0304 14.5098C17.0552 14.5308 17.0788 14.553 17.1009 14.5763H1.45305Z" fill="#474747"/>
</svg>
