<?xml version="1.0" encoding="iso-8859-1"?>
<!-- Generator: Adobe Illustrator 19.0.0, SVG Export Plug-In . SVG Version: 6.00 Build 0)  -->
<svg xmlns="http://www.w3.org/2000/svg" xmlns:xlink="http://www.w3.org/1999/xlink" version="1.1" id="Capa_1" x="0px" y="0px" viewBox="0 0 448.063 448.063" style="enable-background:new 0 0 448.063 448.063;" xml:space="preserve" width="512px" height="512px">
<g>
	<g>
		<path d="M384.032,96.015h-22.73l-1.152-6.633c-7.465-43.043-40.731-89.367-96.118-89.367c-37.273,0-75.293,28.641-88.441,66.617    l-2.957,8.543l-8.117-3.973c-11.533-4.893-23.957-7.341-36.484-7.187c-38.719,0-56.984,36.699-64.426,58.578l-1.957,5.746    l-6.062-0.336c-1.055-0.055-3.578-0.023-5.477-0.004l-2.078,0.016c-39.672,0-48,26.102-48,48c0,21.898,8.328,48,48,48    c11.787-1.014,23.028-5.415,32.371-12.672l7.555-4.684l4.168,2.48c12.331,8.374,26.581,13.491,41.422,14.876    c19.83,0.506,38.965-7.322,52.754-21.582l5.922-6.082l5.723,6.273c12.078,13.254,46.852,21.391,66.465,21.391    c16.414,0,54.078-10.164,66.059-21.75l5.734-5.543l5.563,5.715c14.324,14.723,27.754,21.578,42.266,21.578    c35.346,0,64-28.654,64-64C448.032,124.669,419.378,96.015,384.032,96.015z M317.661,102.952    c-5.883-32.207-24.625-51.438-50.129-51.438v-16c33.352,0,58.594,24.738,65.871,64.562L317.661,102.952z" fill="#00e0f0"/>
	</g>
</g>
<g>
	<g>
		<path d="M224.036,262.304c-7.133,11.488-16.004,28.789-16.004,41.711c0,8.837,7.163,16,16,16s16-7.163,16-16    C240.032,291.058,231.169,273.773,224.036,262.304z" fill="#00e0f0"/>
	</g>
</g>
<g>
	<g>
		<path d="M224.036,390.304c-7.133,11.488-16.004,28.789-16.004,41.711c0,8.837,7.163,16,16,16s16-7.163,16-16    C240.032,419.058,231.169,401.773,224.036,390.304z" fill="#00e0f0"/>
	</g>
</g>
<g>
	<g>
		<path d="M144.032,368.015c0-12.957-8.863-30.242-15.996-41.711c-7.133,11.488-16.004,28.789-16.004,41.711    c-0.042,0.639-0.042,1.281-0.002,1.92c0.52,8.296,7.667,14.6,15.963,14.08c0.653,0.043,1.307,0.044,1.96,0.002    C138.26,383.486,144.563,376.322,144.032,368.015z" fill="#00e0f0"/>
	</g>
</g>
<g>
	<g>
		<path d="M336.032,368.015c0-12.957-8.863-30.242-15.996-41.711c-7.133,11.488-16.004,28.789-16.004,41.711    c-0.042,0.639-0.042,1.281-0.002,1.92c0.52,8.296,7.667,14.6,15.963,14.08c0.653,0.043,1.307,0.044,1.96,0.002    C330.26,383.486,336.563,376.322,336.032,368.015z" fill="#00e0f0"/>
	</g>
</g>
<g>
	<g>
		<path d="M448.032,304.015c0-12.957-8.863-30.242-15.996-41.711c-7.133,11.488-16.004,28.789-16.004,41.711    c-0.042,0.639-0.042,1.281-0.002,1.92c0.52,8.296,7.667,14.6,15.963,14.08c0.653,0.043,1.307,0.044,1.96,0.002    C442.26,319.486,448.563,312.322,448.032,304.015z" fill="#00e0f0"/>
	</g>
</g>
<g>
	<g>
		<path d="M448.032,432.015c0-12.957-8.863-30.242-15.996-41.711c-7.133,11.488-16.004,28.789-16.004,41.711    c-0.042,0.639-0.042,1.281-0.002,1.92c0.52,8.296,7.667,14.6,15.963,14.08c0.653,0.043,1.307,0.044,1.96,0.002    C442.26,447.486,448.563,440.322,448.032,432.015z" fill="#00e0f0"/>
	</g>
</g>
<g>
	<g>
		<path d="M32.032,304.015c0-12.957-8.863-30.242-15.996-41.711c-7.133,11.488-16.004,28.789-16.004,41.711    c-0.042,0.639-0.042,1.281-0.002,1.92c0.52,8.296,7.667,14.6,15.963,14.08c0.653,0.043,1.307,0.044,1.96,0.002    C26.26,319.486,32.563,312.322,32.032,304.015z" fill="#00e0f0"/>
	</g>
</g>
<g>
	<g>
		<path d="M32.032,432.015c0-12.957-8.863-30.242-15.996-41.711c-7.133,11.488-16.004,28.789-16.004,41.711    c-0.042,0.639-0.042,1.281-0.002,1.92c0.52,8.296,7.667,14.6,15.963,14.08c0.653,0.043,1.307,0.044,1.96,0.002    C26.26,447.486,32.563,440.322,32.032,432.015z" fill="#00e0f0"/>
	</g>
</g>
<g>
</g>
<g>
</g>
<g>
</g>
<g>
</g>
<g>
</g>
<g>
</g>
<g>
</g>
<g>
</g>
<g>
</g>
<g>
</g>
<g>
</g>
<g>
</g>
<g>
</g>
<g>
</g>
<g>
</g>
</svg>
