<?xml version="1.0" encoding="iso-8859-1"?>
<!-- Generator: Adobe Illustrator 19.0.0, SVG Export Plug-In . SVG Version: 6.00 Build 0)  -->
<svg xmlns="http://www.w3.org/2000/svg" xmlns:xlink="http://www.w3.org/1999/xlink" version="1.1" id="Capa_1" x="0px" y="0px" viewBox="0 0 464 464" style="enable-background:new 0 0 464 464;" xml:space="preserve" width="512px" height="512px">
<g>
	<g>
		<path d="M392,116h-22.73l-1.152-6.633C360.652,66.324,327.387,20,272,20c-37.273,0-75.293,28.641-88.441,66.617l-2.957,8.543    l-8.117-3.973C160.951,86.294,148.528,83.847,136,84c-38.719,0-56.984,36.699-64.426,58.578l-1.957,5.746l-6.062-0.336    c-1.055-0.059-3.582-0.02-5.477-0.004L56,148c-39.672,0-48,26.102-48,48c0,21.898,8.328,48,48,48    c11.787-1.014,23.028-5.415,32.371-12.672l7.555-4.684l4.168,2.48c12.331,8.374,26.581,13.491,41.422,14.876    c19.83,0.506,38.965-7.322,52.754-21.582l5.922-6.082l5.723,6.273C217.992,235.863,252.766,244,272.379,244    c16.414,0,54.078-10.164,66.059-21.75l5.734-5.543l5.563,5.715C364.059,237.145,377.488,244,392,244c35.346,0,64-28.654,64-64    C456,144.654,427.346,116,392,116z M325.629,106.938C319.746,74.73,301.004,55.5,275.5,55.5v-16    c33.352,0,58.594,24.738,65.871,64.562L325.629,106.938z" fill="#b5b5b5"/>
	</g>
</g>
<g>
	<g>
		<polygon points="128,332 69.336,332 96,252 0,348 50.288,348 16,444   " fill="#b5b5b5"/>
	</g>
</g>
<g>
	<g>
		<polygon points="464,332 405.336,332 432,252 336,348 386.288,348 352,444   " fill="#b5b5b5"/>
	</g>
</g>
<g>
	<g>
		<polygon points="296,332 237.336,332 264,252 168,348 218.288,348 184,444   " fill="#b5b5b5"/>
	</g>
</g>
<g>
</g>
<g>
</g>
<g>
</g>
<g>
</g>
<g>
</g>
<g>
</g>
<g>
</g>
<g>
</g>
<g>
</g>
<g>
</g>
<g>
</g>
<g>
</g>
<g>
</g>
<g>
</g>
<g>
</g>
</svg>
