<?xml version="1.0" encoding="utf-8"?>
<svg width="106" height="106" viewBox="0 0 106 106" fill="none" xmlns="http://www.w3.org/2000/svg">
<path d="M28.4794 56.9602C12.7751 56.9602 -3.94507e-07 44.1854 -3.94507e-07 28.4816C-3.94507e-07 12.7747 12.7751 -3.94496e-07 28.4794 -3.94496e-07C44.1837 -3.94496e-07 56.9588 12.7778 56.9588 28.4816C56.9618 44.1854 44.1837 56.9602 28.4794 56.9602ZM28.4794 3.04161C14.4541 3.04161 3.04169 14.4537 3.04169 28.4816C3.04169 42.5065 14.4541 53.9186 28.4794 53.9186C42.5046 53.9186 53.9171 42.5065 53.9171 28.4816C53.9201 14.4537 42.5077 3.04161 28.4794 3.04161Z" transform="translate(24.5191 24.5184)" fill="#FFD600"/>
<path d="M1.52085 15.1533C0.681339 15.1533 -6.49776e-07 14.472 -6.49776e-07 13.6325V1.5208C-6.49776e-07 0.68132 0.681339 0 1.52085 0C2.36035 0 3.04169 0.68132 3.04169 1.5208V13.6325C3.04169 14.475 2.3634 15.1533 1.52085 15.1533Z" transform="translate(51.4777)" fill="#FFD600"/>
<path d="M1.52085 15.1533C0.681339 15.1533 -6.49776e-07 14.472 -6.49776e-07 13.6325V1.5208C-6.49776e-07 0.68132 0.681339 9.28225e-08 1.52085 9.28225e-08C2.36035 9.28225e-08 3.04169 0.68132 3.04169 1.5208V13.6325C3.04169 14.472 2.3634 15.1533 1.52085 15.1533Z" transform="translate(51.4777 90.8468)" fill="#FFD600"/>
<path d="M13.6329 3.0416H1.52085C0.68134 3.0416 0 2.36028 0 1.5208C0 0.681318 0.68134 -2.32056e-06 1.52085 -2.32056e-06H13.6298C14.4693 -2.32056e-06 15.1507 0.681318 15.1507 1.5208C15.1507 2.36028 14.4724 3.0416 13.6329 3.0416Z" transform="translate(0 51.4792)" fill="#FFD600"/>
<path d="M13.6329 3.0416H1.52085C0.681341 3.0416 1.76368e-06 2.36028 1.76368e-06 1.5208C1.76368e-06 0.681318 0.681341 -2.32056e-06 1.52085 -2.32056e-06H13.6329C14.4724 -2.32056e-06 15.1537 0.681318 15.1537 1.5208C15.1537 2.36028 14.4724 3.0416 13.6329 3.0416Z" transform="translate(90.8463 51.4792)" fill="#FFD600"/>
<path d="M10.087 11.5984C9.69768 11.5984 9.30834 11.4494 9.01026 11.1543L0.444848 2.59525C-0.148282 2.00214 -0.148282 1.03795 0.444848 0.444835C1.03798 -0.148278 2.00219 -0.148278 2.59532 0.444835L11.1607 9.00392C11.7539 9.59703 11.7539 10.5612 11.1607 11.1543C10.8657 11.4524 10.4764 11.5984 10.087 11.5984Z" transform="translate(15.08 15.0796)" fill="#FFD600"/>
<path d="M10.087 11.6075C9.69768 11.6075 9.30834 11.4585 9.01026 11.1635L0.444846 2.59525C-0.148284 2.00214 -0.148284 1.03795 0.444846 0.444834C1.03798 -0.14828 2.0022 -0.14828 2.59533 0.444834L11.1607 9.01305C11.7539 9.60616 11.7539 10.5703 11.1607 11.1635C10.8657 11.4585 10.4764 11.6075 10.087 11.6075Z" transform="translate(79.3174 79.3152)" fill="#FFD600"/>
<path d="M1.52161 11.6075C1.13227 11.6075 0.742934 11.4585 0.444848 11.1635C-0.148282 10.5703 -0.148282 9.60616 0.444848 9.01305L9.01026 0.444834C9.60339 -0.14828 10.5676 -0.14828 11.1607 0.444834C11.7539 1.03795 11.7539 2.00214 11.1607 2.59525L2.59532 11.1635C2.29724 11.4585 1.9079 11.6075 1.52161 11.6075Z" transform="translate(15.08 79.3152)" fill="#FFD600"/>
<path d="M1.52161 11.5984C1.13227 11.5984 0.742932 11.4494 0.444846 11.1543C-0.148284 10.5612 -0.148284 9.59703 0.444846 9.00392L9.01026 0.444835C9.60339 -0.148278 10.5676 -0.148278 11.1607 0.444835C11.7539 1.03795 11.7539 2.00214 11.1607 2.59525L2.59533 11.1543C2.30028 11.4524 1.91094 11.5984 1.52161 11.5984Z" transform="translate(79.3174 15.0796)" fill="#FFD600"/>
</svg>

