<svg width="64" height="45" viewBox="0 0 64 45" fill="none" xmlns="http://www.w3.org/2000/svg">
<g filter="url(#filter0_d)">
<path d="M16.6844 0.296831C16.4743 0.0988891 16.2252 0 15.9374 0H1.06258C0.774636 0 0.525708 0.0988891 0.31539 0.296831C0.105072 0.494993 0 0.729273 0 1.00011C0 1.27089 0.105072 1.50517 0.31539 1.70317L7.75281 8.70295C7.96336 8.90089 8.21229 9 8.5 9C8.78771 9 9.03687 8.90089 9.24702 8.70295L16.6844 1.70311C16.8945 1.50517 17 1.27089 17 1.00005C17 0.729273 16.8945 0.494993 16.6844 0.296831Z" transform="translate(24 34)" fill="white"/>
<path d="M9.13281 21.0645L13.6445 6.09375H18.2109L11.2793 26H7L0.0957031 6.09375H4.64844L9.13281 21.0645ZM18.5938 18.4668C18.5938 16.9993 18.8763 15.6914 19.4414 14.543C20.0065 13.3945 20.8177 12.5059 21.875 11.877C22.9414 11.248 24.1764 10.9336 25.5801 10.9336C27.5762 10.9336 29.2031 11.5443 30.4609 12.7656C31.7279 13.987 32.4342 15.6458 32.5801 17.7422L32.6074 18.7539C32.6074 21.0234 31.974 22.8464 30.707 24.2227C29.4401 25.5898 27.7402 26.2734 25.6074 26.2734C23.4746 26.2734 21.7702 25.5898 20.4941 24.2227C19.2272 22.8555 18.5938 20.9961 18.5938 18.6445V18.4668ZM22.5449 18.7539C22.5449 20.1576 22.8092 21.2331 23.3379 21.9805C23.8665 22.7188 24.623 23.0879 25.6074 23.0879C26.5645 23.0879 27.3118 22.7233 27.8496 21.9941C28.3874 21.2559 28.6562 20.0801 28.6562 18.4668C28.6562 17.0905 28.3874 16.0241 27.8496 15.2676C27.3118 14.5111 26.5553 14.1328 25.5801 14.1328C24.6139 14.1328 23.8665 14.5111 23.3379 15.2676C22.8092 16.015 22.5449 17.1771 22.5449 18.7539ZM41.1934 23.0879C41.9225 23.0879 42.515 22.8874 42.9707 22.4863C43.4264 22.0853 43.6634 21.5521 43.6816 20.8867H47.3867C47.3776 21.8893 47.1042 22.8099 46.5664 23.6484C46.0286 24.4779 45.2904 25.125 44.3516 25.5898C43.4219 26.0456 42.3919 26.2734 41.2617 26.2734C39.1471 26.2734 37.4792 25.6035 36.2578 24.2637C35.0365 22.9147 34.4258 21.0553 34.4258 18.6855V18.4258C34.4258 16.1471 35.0319 14.3288 36.2441 12.9707C37.4564 11.6126 39.1198 10.9336 41.2344 10.9336C43.0846 10.9336 44.5658 11.4622 45.6777 12.5195C46.7988 13.5677 47.3685 14.9668 47.3867 16.7168H43.6816C43.6634 15.9512 43.4264 15.3314 42.9707 14.8574C42.515 14.3743 41.9134 14.1328 41.166 14.1328C40.2454 14.1328 39.5482 14.4701 39.0742 15.1445C38.6094 15.8099 38.377 16.8945 38.377 18.3984V18.8086C38.377 20.3307 38.6094 21.4245 39.0742 22.0898C39.5391 22.7552 40.2454 23.0879 41.1934 23.0879ZM56.4512 26.2734C54.2819 26.2734 52.5137 25.6081 51.1465 24.2773C49.7884 22.9466 49.1094 21.1738 49.1094 18.959V18.5762C49.1094 17.0905 49.3965 15.7643 49.9707 14.5977C50.5449 13.4219 51.3561 12.5195 52.4043 11.8906C53.4616 11.2526 54.6647 10.9336 56.0137 10.9336C58.0371 10.9336 59.6276 11.5716 60.7852 12.8477C61.9518 14.1237 62.5352 15.9329 62.5352 18.2754V19.8887H53.1152C53.2428 20.8548 53.6257 21.6296 54.2637 22.2129C54.9108 22.7962 55.7266 23.0879 56.7109 23.0879C58.2331 23.0879 59.4225 22.5365 60.2793 21.4336L62.2207 23.6074C61.6283 24.446 60.8262 25.1022 59.8145 25.5762C58.8027 26.041 57.6816 26.2734 56.4512 26.2734ZM56 14.1328C55.2161 14.1328 54.5781 14.3971 54.0859 14.9258C53.6029 15.4544 53.293 16.2109 53.1562 17.1953H58.6523V16.8809C58.6341 16.0059 58.3971 15.3314 57.9414 14.8574C57.4857 14.3743 56.8385 14.1328 56 14.1328ZM60.8125 8.82812V8.99219H57.668L55.5625 7.00977L53.457 8.99219H50.3672V8.77344L54.4141 5H56.7109L60.8125 8.82812Z" fill="white"/>
</g>
<defs>
<filter id="filter0_d" x="0.0957031" y="5" width="62.4395" height="40" filterUnits="userSpaceOnUse" color-interpolation-filters="sRGB">
<feFlood flood-opacity="0" result="BackgroundImageFix"/>
<feColorMatrix in="SourceAlpha" type="matrix" values="0 0 0 0 0 0 0 0 0 0 0 0 0 0 0 0 0 0 255 0"/>
<feOffset dy="2"/>
<feColorMatrix type="matrix" values="0 0 0 0 0 0 0 0 0 0 0 0 0 0 0 0 0 0 1 0"/>
<feBlend mode="normal" in2="BackgroundImageFix" result="effect1_dropShadow"/>
<feBlend mode="normal" in="SourceGraphic" in2="effect1_dropShadow" result="shape"/>
</filter>
</defs>
</svg>
